/* XPM */
static char * click_mark_xpm[] = {
"70 70 176 2",
"  	c None",
". 	c #FBDCD8",
"+ 	c #F9C7C1",
"@ 	c #F9BDB5",
"# 	c #F8B8AF",
"$ 	c #F8B7AE",
"% 	c #F8BAB2",
"& 	c #F9C2BB",
"* 	c #FAD0CB",
"= 	c #FACDC7",
"- 	c #F8B9B1",
"; 	c #F7AA9F",
"> 	c #F59C90",
", 	c #F49386",
"' 	c #F38E81",
") 	c #F38B7D",
"! 	c #F38C7F",
"~ 	c #F49184",
"{ 	c #F5988C",
"] 	c #F6A498",
"^ 	c #F8B3A9",
"/ 	c #F9C9C3",
"( 	c #F8BCB4",
"_ 	c #F6A59A",
": 	c #F49183",
"< 	c #F38273",
"[ 	c #F17666",
"} 	c #F16F5E",
"| 	c #F06C5B",
"1 	c #F06857",
"2 	c #F06A59",
"3 	c #F16E5D",
"4 	c #F17362",
"5 	c #F27D6D",
"6 	c #F48B7D",
"7 	c #F59B8F",
"8 	c #F8B4AB",
"9 	c #F6ABA1",
"0 	c #F48F82",
"a 	c #F27C6C",
"b 	c #F06B5A",
"c 	c #EF604D",
"d 	c #EE5945",
"e 	c #EE533E",
"f 	c #EE513C",
"g 	c #ED4F3A",
"h 	c #ED503B",
"i 	c #EE523D",
"j 	c #EE5642",
"k 	c #EF5D4A",
"l 	c #F06755",
"m 	c #F17363",
"n 	c #F3897B",
"o 	c #F59F94",
"p 	c #F8BBB2",
"q 	c #FAD3CD",
"r 	c #F9C4BD",
"s 	c #F6A297",
"t 	c #F38879",
"u 	c #EE543F",
"v 	c #ED4C37",
"w 	c #ED4731",
"x 	c #EC432C",
"y 	c #EC422B",
"z 	c #EC412A",
"A 	c #ED452E",
"B 	c #ED4A34",
"C 	c #EE5A46",
"D 	c #F06957",
"E 	c #F5988B",
"F 	c #F8B8B0",
"G 	c #FACFC8",
"H 	c #F9C7C0",
"I 	c #F6A49A",
"J 	c #F28274",
"K 	c #EE5845",
"L 	c #ED4D38",
"M 	c #EC442E",
"N 	c #EC3F28",
"O 	c #EB3C25",
"P 	c #EB3922",
"Q 	c #EB3820",
"R 	c #EB3921",
"S 	c #EB3B24",
"T 	c #EB3E27",
"U 	c #ED4933",
"V 	c #EE5441",
"W 	c #EF624F",
"X 	c #F17969",
"Y 	c #F4968A",
"Z 	c #F6A79D",
"` 	c #F38475",
" .	c #EC4832",
"..	c #EB3A23",
"+.	c #EB371F",
"@.	c #EB351D",
"#.	c #EB341C",
"$.	c #EA331A",
"%.	c #EA3119",
"&.	c #EA321A",
"*.	c #EB341B",
"=.	c #EB361E",
"-.	c #EB3821",
";.	c #EB3D26",
">.	c #EC452F",
",.	c #F17767",
"'.	c #F7B4AB",
").	c #F48F81",
"!.	c #EE5744",
"~.	c #ED4934",
"{.	c #EB3A22",
"].	c #EA331B",
"^.	c #EA3018",
"/.	c #EA2F17",
"(.	c #EA3017",
"_.	c #EA3118",
":.	c #EC3D26",
"<.	c #ED523D",
"[.	c #EF6452",
"}.	c #F28070",
"|.	c #FACBC5",
"1.	c #F9C1BA",
"2.	c #EF5D49",
"3.	c #ED4A35",
"4.	c #EC4029",
"5.	c #EA2F16",
"6.	c #EA2E15",
"7.	c #EC4630",
"8.	c #EE5440",
"9.	c #F06A58",
"0.	c #F48D7F",
"a.	c #F7B3A9",
"b.	c #F8B7AF",
"c.	c #F06856",
"d.	c #EE523E",
"e.	c #EC422C",
"f.	c #EB351C",
"g.	c #ED4B36",
"h.	c #F6A094",
"i.	c #FBD5D0",
"j.	c #F6A499",
"k.	c #F27969",
"l.	c #EE5C49",
"m.	c #EC432D",
"n.	c #F06D5B",
"o.	c #F9C3BC",
"p.	c #F59689",
"q.	c #F06D5C",
"r.	c #EE5541",
"s.	c #EC452E",
"t.	c #EF6351",
"u.	c #F38172",
"v.	c #F7B4AA",
"w.	c #F8B6AD",
"x.	c #F38C7E",
"y.	c #F06654",
"z.	c #ED4F39",
"A.	c #EC3C25",
"B.	c #ED4832",
"C.	c #F27868",
"D.	c #F6A99F",
"E.	c #F7AEA5",
"F.	c #F38678",
"G.	c #EF6350",
"H.	c #ED4C36",
"I.	c #EC3F27",
"J.	c #EC3B23",
"K.	c #EF5945",
"L.	c #F17463",
"M.	c #F7ADA3",
"N.	c #EE5743",
"O.	c #F0705F",
"P.	c #EC3A22",
"Q.	c #F6A89D",
"R.	c #ED452F",
"S.	c #F38B7E",
"                                                                                                                                            ",
"                                                                                                                                            ",
"                                                                                                                                            ",
"                                                                                                                                            ",
"                                                                                                                                            ",
"                                                                                                                                            ",
"                                                                                                                                            ",
"                                                                                                                                            ",
"                                                                                                                                            ",
"                                                                                                                                            ",
"                                                                                                                                            ",
"                                                                                                                                            ",
"                                                                                                                                            ",
"                                                                                                                                            ",
"                                                                                                                                            ",
"                                                                                                                                            ",
"                                                                                                                                            ",
"                                                                                                                                            ",
"                                                                                                                                            ",
"                                                                                                                                            ",
"                                                              . + @ # $ $ % & *                                                             ",
"                                                          = - ; > , ' ) ! ~ { ] ^ /                                                         ",
"                                                        ( _ : < [ } | 1 2 3 4 5 6 7 8 &                                                     ",
"                                                    + 9 0 a b c d e f g h i j k l m n o p q                                                 ",
"                                                  r s t 3 c u v w x y z z y A B f C D a E F G                                               ",
"                                                H I J b K L M N O P Q Q Q R S T y U V W X Y #                                               ",
"                                                Z ` l j  .z ..+.@.#.$.%.&.*.#.=.-.;.>.g c ,.E F                                             ",
"                                              '.).} !.~.N {.@.].%.%.^./.(._.%.&.#.+.:.M <.[.}.Z |.                                          ",
"                                            1.7 [ 2.3.4.-.#.%.^./.5.6.6.6.5.5.(.%.$.+.O 7.8.9.0.a.                                          ",
"                                            b.n c.d.e...f.%.(.5.6.6.6.6.6.6.6.6.5.^.*.+.N g.k a h.=                                         ",
"                                          i.j.k.l.~.;.=.&.^.6.6.6.6.6.6.6.6.6.6.6.5.%.#...m.u n.0 o.                                        ",
"                                          1.p.q.r.s...#.^.5.6.6.6.6.6.6.6.6.6.6.6.6.^.&.Q 4.L t.u.v.                                        ",
"                                          w.x.y.z.z Q ].(.6.6.6.6.6.6.6.6.6.6.6.6.6./.%.=.A.B.2.C.D.                                        ",
"                                          E.F.G.H.I.=.&.(.6.6.6.6.6.6.6.6.6.6.6.6.6.5.%.f.J.>.K.L.s                                         ",
"                                          M.J c 3.I.@.%.5.6.6.6.6.6.6.6.6.6.6.6.6.6.6.^.].J.M N.O.o                                         ",
"                                          M.J c 3.I.@.%.5.6.6.6.6.6.6.6.6.6.6.6.6.6.6.^.].P.M N.O.o                                         ",
"                                          E.F.G.H.I.=.&.(.6.6.6.6.6.6.6.6.6.6.6.6.6.5.%.f.J.>.K.L.s                                         ",
"                                          w.x.y.z.z Q ].(.6.6.6.6.6.6.6.6.6.6.6.6.6./.%.=.A.B.2.C.D.                                        ",
"                                          1.p.q.r.s...#.^.5.6.6.6.6.6.6.6.6.6.6.6.6.^.&.Q 4.L t.u.v.                                        ",
"                                          i.j.k.l.~.;.=.&.^.6.6.6.6.6.6.6.6.6.6.6.5.%.#...m.u n.0 o.                                        ",
"                                            b.n c.d.e...f.%.(.5.6.6.6.6.6.6.6.6.5.^.*.+.N g.k a h.=                                         ",
"                                            1.7 [ 2.3.4.-.#.%.^./.5.6.6.6.5.5.(.%.$.+.O 7.8.9.0.^                                           ",
"                                              '.).} !.~.N {.@.].%.%.^./.(._.%.&.#.+.:.M <.[.}.Z |.                                          ",
"                                                Q.` l j  .z ..+.@.#.].%.&.*.#.=.-.;.>.g c ,.E F                                             ",
"                                                H I J b K L M N O P Q Q Q R S T y U V W X Y #                                               ",
"                                                  r s t 3 c u v w x y z z y R.B f C D a E F G                                               ",
"                                                    + 9 0 a b c d e f g h i j k l m n o p q                                                 ",
"                                                        ( _ : < [ } | 1 2 3 4 5 6 7 8 &                                                     ",
"                                                          = - ; > , ' S.! ~ { ] ^ /                                                         ",
"                                                              . + @ # $ $ % & *                                                             ",
"                                                                                                                                            ",
"                                                                                                                                            ",
"                                                                                                                                            ",
"                                                                                                                                            ",
"                                                                                                                                            ",
"                                                                                                                                            ",
"                                                                                                                                            ",
"                                                                                                                                            ",
"                                                                                                                                            ",
"                                                                                                                                            ",
"                                                                                                                                            ",
"                                                                                                                                            ",
"                                                                                                                                            ",
"                                                                                                                                            ",
"                                                                                                                                            ",
"                                                                                                                                            ",
"                                                                                                                                            ",
"                                                                                                                                            ",
"                                                                                                                                            ",
"                                                                                                                                            "};
