/* XPM */
static char * field_black_xpm[] = {
"70 70 453 2",
"  	c None",
". 	c #090911",
"+ 	c #111117",
"@ 	c #080810",
"# 	c #0A0A11",
"$ 	c #111118",
"% 	c #070710",
"& 	c #080811",
"* 	c #101017",
"= 	c #121218",
"- 	c #06060F",
"; 	c #121219",
"> 	c #131319",
", 	c #13131A",
"' 	c #07070F",
") 	c #0F0F16",
"! 	c #16161D",
"~ 	c #121217",
"{ 	c #141419",
"] 	c #14141A",
"^ 	c #16161C",
"/ 	c #0E0E16",
"( 	c #19191F",
"_ 	c #1A1A20",
": 	c #17171D",
"< 	c #131318",
"[ 	c #15151A",
"} 	c #15151C",
"| 	c #17171E",
"1 	c #18181F",
"2 	c #1D1D24",
"3 	c #06060E",
"4 	c #05050E",
"5 	c #0C0C14",
"6 	c #1A1A1F",
"7 	c #1B1B21",
"8 	c #19191E",
"9 	c #16161A",
"0 	c #17171B",
"a 	c #18181E",
"b 	c #1C1C22",
"c 	c #1D1D23",
"d 	c #05050D",
"e 	c #0A0A12",
"f 	c #17171C",
"g 	c #1C1C20",
"h 	c #1A1A1E",
"i 	c #1E1E24",
"j 	c #1F1F26",
"k 	c #141418",
"l 	c #18181D",
"m 	c #18181C",
"n 	c #18181B",
"o 	c #151518",
"p 	c #19191D",
"q 	c #141417",
"r 	c #151519",
"s 	c #17171A",
"t 	c #202026",
"u 	c #222228",
"v 	c #0B0B14",
"w 	c #212127",
"x 	c #131317",
"y 	c #1F1F24",
"z 	c #0C0C13",
"A 	c #15151B",
"B 	c #242429",
"C 	c #202024",
"D 	c #202025",
"E 	c #202027",
"F 	c #1F1F25",
"G 	c #08080F",
"H 	c #16161B",
"I 	c #1D1D22",
"J 	c #232328",
"K 	c #212126",
"L 	c #242428",
"M 	c #14141B",
"N 	c #0D0D15",
"O 	c #1A1A1D",
"P 	c #161619",
"Q 	c #1E1E22",
"R 	c #252529",
"S 	c #222227",
"T 	c #212125",
"U 	c #262629",
"V 	c #27272B",
"W 	c #191920",
"X 	c #212128",
"Y 	c #1B1B22",
"Z 	c #1C1C1F",
"` 	c #25252A",
" .	c #232327",
"..	c #27272A",
"+.	c #29292D",
"@.	c #1B1B20",
"#.	c #1A1A21",
"$.	c #222229",
"%.	c #1C1C23",
"&.	c #07070E",
"*.	c #16161E",
"=.	c #26262B",
"-.	c #27272C",
";.	c #202023",
">.	c #18181A",
",.	c #24242A",
"'.	c #1C1C21",
").	c #1E1E25",
"!.	c #101018",
"~.	c #24242B",
"{.	c #26262C",
"].	c #26262A",
"^.	c #1F1F22",
"/.	c #1E1E23",
"(.	c #28282D",
"_.	c #1D1D21",
":.	c #23232A",
"<.	c #25252B",
"[.	c #232329",
"}.	c #27272D",
"|.	c #1B1B1F",
"1.	c #25252C",
"2.	c #1F1F23",
"3.	c #28282E",
"4.	c #232326",
"5.	c #222225",
"6.	c #28282C",
"7.	c #222226",
"8.	c #252528",
"9.	c #272729",
"0.	c #262628",
"a.	c #212124",
"b.	c #28282F",
"c.	c #1D1D20",
"d.	c #29292F",
"e.	c #29292E",
"f.	c #2A2A2F",
"g.	c #19191C",
"h.	c #1E1E21",
"i.	c #242427",
"j.	c #1E1E20",
"k.	c #2A2A2E",
"l.	c #323238",
"m.	c #37373D",
"n.	c #36363B",
"o.	c #35353A",
"p.	c #343439",
"q.	c #323237",
"r.	c #303035",
"s.	c #2F2F33",
"t.	c #2F2F34",
"u.	c #323236",
"v.	c #333338",
"w.	c #14141C",
"x.	c #1B1B1E",
"y.	c #2D2D2F",
"z.	c #393939",
"A.	c #373737",
"B.	c #383838",
"C.	c #3A3A39",
"D.	c #3F3F3F",
"E.	c #454548",
"F.	c #4E4E53",
"G.	c #5D5D61",
"H.	c #5B5B60",
"I.	c #59595E",
"J.	c #5A5A5F",
"K.	c #5B5B5F",
"L.	c #59595C",
"M.	c #57575B",
"N.	c #58585C",
"O.	c #5A5A5D",
"P.	c #5A5A5E",
"Q.	c #515154",
"R.	c #505054",
"S.	c #343437",
"T.	c #353537",
"U.	c #383839",
"V.	c #3B3B3C",
"W.	c #3E3E3F",
"X.	c #424243",
"Y.	c #47474A",
"Z.	c #4E4E52",
"`.	c #56565A",
" +	c #545459",
".+	c #55555A",
"++	c #515155",
"@+	c #606065",
"#+	c #646469",
"$+	c #606064",
"%+	c #58585A",
"&+	c #4C4C4E",
"*+	c #46464A",
"=+	c #27272E",
"-+	c #29292C",
";+	c #2D2D31",
">+	c #333337",
",+	c #353538",
"'+	c #3D3D3E",
")+	c #3F3F41",
"!+	c #434343",
"~+	c #474748",
"{+	c #49494B",
"]+	c #4A4A4D",
"^+	c #4B4B4F",
"/+	c #4B4B50",
"(+	c #4A4A4F",
"_+	c #46464B",
":+	c #444447",
"<+	c #4C4C50",
"[+	c #5C5C61",
"}+	c #555558",
"|+	c #4A4A4C",
"1+	c #2A2A2D",
"2+	c #303034",
"3+	c #3C3C3D",
"4+	c #3B3B3B",
"5+	c #3C3C3C",
"6+	c #404041",
"7+	c #48484C",
"8+	c #434347",
"9+	c #414145",
"0+	c #414144",
"a+	c #3F3F43",
"b+	c #3B3B3D",
"c+	c #39393B",
"d+	c #3F3F42",
"e+	c #535355",
"f+	c #515153",
"g+	c #4B4B4D",
"h+	c #474749",
"i+	c #28282B",
"j+	c #2B2B2E",
"k+	c #454545",
"l+	c #494946",
"m+	c #44443F",
"n+	c #3F3F3B",
"o+	c #41413F",
"p+	c #414143",
"q+	c #47474B",
"r+	c #343435",
"s+	c #313132",
"t+	c #323233",
"u+	c #363639",
"v+	c #3B3B3E",
"w+	c #454547",
"x+	c #434344",
"y+	c #464648",
"z+	c #292930",
"A+	c #2D2D32",
"B+	c #5A5A57",
"C+	c #51514C",
"D+	c #4A4A45",
"E+	c #484844",
"F+	c #494948",
"G+	c #4D4D4F",
"H+	c #5E5E62",
"I+	c #555559",
"J+	c #4A4A4E",
"K+	c #434346",
"L+	c #434345",
"M+	c #3F3F3E",
"N+	c #363636",
"O+	c #313131",
"P+	c #323235",
"Q+	c #38383B",
"R+	c #3C3C3E",
"S+	c #3E3E41",
"T+	c #19191B",
"U+	c #2B2B30",
"V+	c #2A2A30",
"W+	c #48484D",
"X+	c #707071",
"Y+	c #636362",
"Z+	c #595956",
"`+	c #545452",
" @	c #525251",
".@	c #565657",
"+@	c #5F5F62",
"@@	c #68686A",
"#@	c #67676B",
"$@	c #565659",
"%@	c #505051",
"&@	c #424242",
"*@	c #353533",
"=@	c #313130",
"-@	c #303032",
";@	c #333333",
">@	c #363638",
",@	c #39393D",
"'@	c #79797C",
")@	c #727273",
"!@	c #656564",
"~@	c #585858",
"{@	c #525252",
"]@	c #50504F",
"^@	c #545455",
"/@	c #5D5D5F",
"(@	c #646466",
"_@	c #616165",
":@	c #5C5C60",
"<@	c #626264",
"[@	c #5B5B5B",
"}@	c #4A4A49",
"|@	c #3D3D3A",
"1@	c #383837",
"2@	c #303030",
"3@	c #313133",
"4@	c #333335",
"5@	c #6F6F72",
"6@	c #656568",
"7@	c #57575A",
"8@	c #4B4B4C",
"9@	c #4B4B4B",
"0@	c #4C4C4D",
"a@	c #505050",
"b@	c #535354",
"c@	c #535356",
"d@	c #545458",
"e@	c #5D5D60",
"f@	c #6A6A6D",
"g@	c #6C6C6E",
"h@	c #5E5E5E",
"i@	c #4C4C4C",
"j@	c #464647",
"k@	c #494949",
"l@	c #414141",
"m@	c #343433",
"n@	c #2F2F30",
"o@	c #303031",
"p@	c #2B2B31",
"q@	c #2C2C31",
"r@	c #2B2B32",
"s@	c #4F4F54",
"t@	c #616166",
"u@	c #525257",
"v@	c #4F4F52",
"w@	c #4D4D4E",
"x@	c #4A4A4B",
"y@	c #48484B",
"z@	c #49494C",
"A@	c #5E5E60",
"B@	c #6B6B6E",
"C@	c #585859",
"D@	c #4D4D4D",
"E@	c #545457",
"F@	c #58585B",
"G@	c #4D4D50",
"H@	c #373738",
"I@	c #313135",
"J@	c #2E2E33",
"K@	c #2E2E34",
"L@	c #2D2D33",
"M@	c #2A2A31",
"N@	c #5D5D62",
"O@	c #4C4C51",
"P@	c #4E4E50",
"Q@	c #4F4F51",
"R@	c #4B4B4E",
"S@	c #49494D",
"T@	c #5C5C5E",
"U@	c #515152",
"V@	c #505053",
"W@	c #303036",
"X@	c #2F2F35",
"Y@	c #505056",
"Z@	c #4F4F53",
"`@	c #4E4E51",
" #	c #48484A",
".#	c #45454A",
"+#	c #49494E",
"@#	c #555556",
"##	c #525254",
"$#	c #2C2C32",
"%#	c #313137",
"&#	c #313136",
"*#	c #484849",
"=#	c #454549",
"-#	c #444448",
";#	c #444449",
">#	c #4F4F50",
",#	c #525253",
"'#	c #111119",
")#	c #37373B",
"!#	c #3D3D3F",
"~#	c #404042",
"{#	c #414142",
"]#	c #373739",
"^#	c #38383C",
"/#	c #3A3A3F",
"(#	c #404044",
"_#	c #4E4E54",
":#	c #505055",
"<#	c #464649",
"[#	c #414146",
"}#	c #2D2D30",
"|#	c #2C2C30",
"1#	c #2B2B2F",
"2#	c #313134",
"3#	c #2E2E32",
"4#	c #353536",
"5#	c #39393C",
"6#	c #36363A",
"7#	c #3C3C41",
"8#	c #4D4D51",
"9#	c #29292A",
"0#	c #2F2F32",
"a#	c #2F2F2F",
"b#	c #39393E",
"c#	c #3A3A3E",
"d#	c #3E3E43",
"e#	c #2A2A2C",
"f#	c #303033",
"g#	c #424246",
"h#	c #434348",
"i#	c #404043",
"j#	c #505052",
"k#	c #424247",
"l#	c #474747",
"m#	c #464646",
"n#	c #444443",
"o#	c #3A3A3D",
"p#	c #353535",
"q#	c #39393A",
"r#	c #47474C",
"s#	c #4C4C4F",
"t#	c #5E5E5F",
"u#	c #606060",
"v#	c #4A4A4A",
"w#	c #343434",
"x#	c #30302E",
"y#	c #323232",
"z#	c #35353B",
"A#	c #353539",
"B#	c #3C3C3F",
"C#	c #4E4E4E",
"D#	c #606062",
"E#	c #616161",
"F#	c #40403F",
"G#	c #323231",
"H#	c #30302D",
"I#	c #2F2F2E",
"J#	c #2E2E31",
"K#	c #535357",
"L#	c #454546",
"M#	c #4E4E4F",
"N#	c #4F4F4F",
"O#	c #3D3D40",
"P#	c #3B3B3A",
"Q#	c #575759",
"R#	c #49494A",
"S#	c #424244",
"T#	c #424245",
"                                                                                                                                            ",
"                                                                                                                                            ",
"                                                                                                                                            ",
"                                                                                                                                            ",
"                                                                                                                                            ",
"                                                                                                                                            ",
"                                                                                . +                                                         ",
"                                                                            @ # $ + +                                                       ",
"                                                                    % & @ @ * $ + = $ = =                                                   ",
"                                                              % - - @ . * = = $ = ; ; = > ,                                                 ",
"                                                          @ ' ' @ % ) , ! = ~ = = { ] > > ] ^ !                                             ",
"                                                      % % - - @ @ / ( _ : > = ~ < { [ ] > ] } | 1 2                                         ",
"                                                    % % 3 4 % 5 * 6 _ 7 8 ] = = < { 9 0 [ ] ^ a b c 2                                       ",
"                                              d - % % 3 3 % e f 6 _ 8 g h < = = = < { { ] ] 9 8 7 i c i j                                   ",
"                                            4 ' & - 4 - . k 9 > ] : l m n o < > ; ; = ; = < o 0 p _ c i i j                                 ",
"                                        d 3 % @ % 4 % , [ { = = = ; < < o q < > , > k = = = < r s 8 ( 7 b i t u                             ",
"                                    ' 4 ' @ @ @ v _ i w b ] = > < = = = x x x k ] 9 s r ~ = = < r 0 | 1 _ c y t w                           ",
"                                ' 3 - % & @ z A B t t u C 8 A ] ] < = = < < < < > [ m 0 k = = = < ] ] ^ a 7 y D E w F                       ",
"                              @ - % @ # G x H I J K D L L C l ] A ] > ; ; > < > > M l m 9 k < ; ; > > ] : _ F K w t 2 b                     ",
"                          & ' ' @ N , O P 9 m Q R S T U V V g ^ , M > > ; ] ] ] { A W ( m P r k < ; ; > M 1 c X u t c Y                     ",
"                        @ - % @ Y S S Z P 0 p D `  . ...+.+.F : , > > > > ] ^ 0 r 9 _ b @.0 9 r k < ; = ] ^ #.c $.X 2 %.                    ",
"                      % &./ *.$.=.-.` ;.>.0 p K =.B L V +.+.,.I ^ > > > ] ^ m p p m '.D j '.l 0 m [ { ; > [ H | b w ).b                     ",
"                    3 !.1 $.~.u ` {.].^.n 9 0 /.-.=.B =.(.(.{.S a [ < { ] ^ l p g _.D J u j @.l l H A A A A H ^ ( c i b                     ",
"                    ^ _ E ~.~.X :.<.` T 6 [ H '.<.{.[.$.~.}.-.J b f r { A A m |.Q y J B B ,.t b _ : ! 1 8 : a a 1 b ).c                     ",
"                  ] : 7 w <.B w u :.,.w b ^ A 7 :.{.,.u :.{.-.` D ( H k [ H 8 _.T K B ,.,.[.[.u ).W ( 7 c 7 7 b ).t F 2                     ",
"                  [ 8 b J ` u t w [.[.S C a A ( j 1.<.[.[.{.}.=.K 6 H 9 { H ( y B ` =.<.[.[.J [.u c I c i j E E :.u F c b                   ",
"                  r 8 F J J t F E J J  .2.( A 8 i B {.,.[.{.3.=.S h 0 f ^ f ( 2.` =.=.<.[.J S S S u w y 2 j [.~.,.w i %.b                   ",
"                  o f i S t ).F u B R 4.Q f A ( t ,.}.<.[.{.(.=.K h s f 8 a _ /.B ` B [.J  .S  . .J [.u t t w J u t c c /.                  ",
"                  o r l c i 2 E L U U 5.Z 9 A ( t <.3.{.B ` 6.=.S 8 H l ( _ 1 7 S [.S w w 7.7.S  .J $.X t i y D K D c c /.                  ",
"                  P { H 7 2 i S 8.9.9.7.|.[ [ a /.<.3.}.` ` 6.=.u 6 ^ a 1 W ( _ t $.w t D D D K w u X t i c c F K t i i y                   ",
"                  s { A #.i y 7.R U 0. ./.H H ^ #.w }.3.=.B -.-.u ( ^ : | a '.b t [.S t F y C D w w j c '.7 Y i K K D i D T                 ",
"                  m r A Y F F a.8.U U  .F h H } W t {.b.-.B =.}.,._ ^ ^ ! | './.t [.J w t D D F t t F 7 _ ( #.%.y K D i F t                 ",
"                  c.H M W F D C 4.U =.B T '.0 A ( F 1.b.}.<.~.(.}.w b : : : 6 Q D K [.u u S w E t F i b _ _ 7 %.y F t F F D                 ",
"                  K a M W F F y T J <.{.S _.n 9 a c ,.b.3.{.<.3.d.{.u 2.'.m p _.K y u u J J J [.u t t F 2 b I c c i t E E w                 ",
"                  w 1 M W j j F t u :.-.U ;.O 9 l c [.3.3.-.=.e.f.(.{.J 2.g.O h. . .y i F C 2.$.~.[.J u w D y i /.2.t w u B                 ",
"                  J 8 M ! b t t u [.[.<.V i.j.n f 7 u }.3.(.-.e.f.e.}.,.D O O h.5.8.R  . .i.U k.l.m.n.o.o.p.q.r.s.t.u.q.q.v.                ",
"                  B '.A w.( K S [.` ,.:.=.` K @.0 ( F {.(.(.-.-.+.e.(.=.u _.x.Z ;.y.z.A.B.C.D.E.F.G.H.I.J.K.L.M.N.O.P.M.Q.R.                ",
"                  =.7.6 [ l Q  .` {.{.:.:.{.,.i : : Y ,.{.{.-.<.-.+.+.-.B y '.|.R S.T.U.V.W.X.Y.Z.`. + +.+++Q.`.@+#+$+%+&+*+                ",
"                  6.]./.0 9 p C =.=+}.<.[.=.=.w ( } _ w <.{.{.<.{.k.k.-+` K '.@.;+>+,+'+)+!+~+{+]+^+^+/+(+_+:+<+I.[+G.}+|+E.                ",
"                  V ..T h P 0 _.B {.{.-.,.R 6.L '.: a b J {.-.{.{.k.k.1+V K @.2+3+4+5+6+6+:+]+&+7+8+9+0+a+b+c+d+7+<+e+f+g+h+                ",
"                  ].6.B b H H h t ,.,.=.` B -+i+T l ! ( Q R (.}.-.e.j+1+i+7.i+k+l+m+n+o+p+<+}+R.q+)+b+U.r+s+t+u+v+d+w+x+y+                  ",
"                  ` 6.].i f A l c u B B =.L -.-+L |.f 8 h.4.f.z+3.6.1+-+V A+%+B+C+D+E+F+G+K.H+I+J+K+L+M+N+O+s+P+,+Q+R+R+S+                  ",
"                  ` 6.V t #.A ^ _ /.D J -.` =.k.-.K m T+Z 5.U+V+(.` V i+6.W+X+Y+Z+`+ @.@+@@@#@H+L.$@.@%@&@*@=@-@P+;@;@>@,@                  ",
"                  R V ].w b H H 8 '.D ` (.{.=.k.e.,._.g.x.2.6.f.(.,.J ].7+'@)@!@~@{@]@^@/@(@_@:@:@$+<@[@}@|@4+R+3+1@2@3@4@                  ",
"                  B ` ].u /.f } | c [.(.V+(.-.V+V+=+ .|.p 7 u {.{.<.[.6.O.5@6@7@G+8@9@0@a@b@c@d@e@f@g@h@i@j@|+G+k@l@m@n@o@                  ",
"                  J S ` R 2.l ^ 1 t {.p@p@3.3.q@r@p@-./.: ( b t w ,.<.s@t@I.u@v@&+&+w@0@x@y@z@v@A@B@@@C@D@w@E@F@G@w+R+H@I@                  ",
"                  J t S ].5.|.f 8 F {.p@V+3.f.J@K@L@e.S a : 8 7 c X M@N@I+s@O@G@P@Q@P@P@R@S@*+^+O._@T@U@G+V@L.J.s@J+y@y+                    ",
"                    F K R i.2.p l i {.V+3.(.U+t.W@X@V+` |.m m 8 '.V+Y@I+++Z@s@++V@`@{+ #W+J+.#_+v@e+v@J++#O@e+@#f+Q.##V@                    ",
"                    } 7 y 7.y l : i }.b.{.f.$#t.%#&#q@-.h.g.m p @.X@+#S@R@J+/+`@*#y+)+d+9+7+=#-#*+]+J+;#_+(+&+0@>#,#,#G@                    ",
"                      '#! 1 7 8 ! 2 =+3.b.q@;+J@t.2+q@k.L c.g.l 7.)#n.)#Q+!#~#{#R+]#^#/#(#W+S@q+E.:+:+W+_#:#J+Y.=#<#:+[#                    ",
"                        | M ^ ( ( Y b.V+V+;+q@}#|#1#3.(.(.L g p }#2#t.3#o@4#5#v+6#p.)#7#[#7+8#]+h+E.q+F.d@:#J+=#;#*+=#8+                    ",
"                          ! 1 A #._ 6 3.3.$#|#j+i+V 6.|#A+1#4.9#s+0#s.s+a#t+)#b#m.)#c#d#[#7+G@g+*+q+8#E@E@Q@S@q+*+q+=#-#                    ",
"                              | } a a 1 _ {.e.+.R 8.e#3#I@I@f#'+v+!#{#'+t+2#v+g#h#g#i#~#!#{#h+]+S@O@V@j#x@Y.E.Y.7+q+h#k#                    ",
"                                  ( M ^ 8 @.D J R ].k.J@v.n.Y.z@w+l#m#n#V.o#z@}+I+Q@!+V.p#p#q#-#+#.#<#x+V.R+(#.#S@r#                        ",
"                                      #.l | 6 ( i J {.|#q.=#Q.Q@i@9@x@|+s#I+t#u#$@v#5+w#x#x#y#S.z#A#]#H@H@B#k#.#(+                          ",
"                                          a ^ ( 7 @.c ,.I@Q@c@b@`@G+C#%@}+D#E#@#y@F#A.G#H#I#n@J#}#s.S.u+,+)#c#d#                            ",
"                                              6 a %.b @.i ^#J+E@V@>#a@f+K#I+Q@y@L#p+S+c+2#u.4@n@y.0#v.u.;+J@                                ",
"                                                8 l @.c @.6 =.8+Z.M#N#G+G@G@G@P@e+E@v@0+c#O#p+P#y#-@s.1#                                    ",
"                                                    a a b c f i (.y+0@G+Q@G+j#Q#+@T@f+z@R#R# #p+c+0#                                        ",
"                                                        a _ c 7 ( -.K+P@f+V@e+F@L.c@G+|+R#9@x@*#S#                                          ",
"                                                            A ( b _ J r.R@s#<+8#^+S@q+h+*#{+8@|+                                            ",
"                                                                l I '.( -.n.*+S@R@*+[#T#T#S#                                                ",
"                                                                      @.^ 1 I@a+.#r#.#h#                                                    ",
"                                                                            < ( v.a+                                                        ",
"                                                                                                                                            ",
"                                                                                                                                            ",
"                                                                                                                                            ",
"                                                                                                                                            ",
"                                                                                                                                            ",
"                                                                                                                                            "};
