/* XPM */
static char * stone_mark_xpm[] = {
"70 70 16 1",
" 	c None",
".	c #D7FDD4",
"+	c #B2FDAC",
"@	c #99FC91",
"#	c #8CFC83",
"$	c #DDFEDB",
"%	c #61FA54",
"&	c #3CFA2C",
"*	c #23F911",
"=	c #16F903",
"-	c #CBFDC7",
";	c #74FB69",
">	c #2CF91B",
",	c #14F900",
"'	c #62FB55",
")	c #1FF90D",
"                                                                      ",
"                                                                      ",
"                                                                      ",
"                                                                      ",
"                                                                      ",
"                                                                      ",
"                                                                      ",
"                                                                      ",
"                                                                      ",
"                                                                      ",
"                                                                      ",
"                                                                      ",
"                                                                      ",
"                                                                      ",
"                                                                      ",
"                                                                      ",
"                                                                      ",
"                                                                      ",
"                                                                      ",
"                                                                      ",
"                                                                      ",
"                                                                      ",
"                                                                      ",
"                                                                      ",
"                                                                      ",
"                               .+@##@+.                               ",
"                             $@%&*==*&%@$                             ",
"                            -;>,,,,,,,,>;-                            ",
"                           -'),,,,,,,,,,)'-                           ",
"                          $;),,,,,,,,,,,,);$                          ",
"                          @>,,,,,,,,,,,,,,>@                          ",
"                         .%,,,,,,,,,,,,,,,,%.                         ",
"                         +&,,,,,,,,,,,,,,,,&+                         ",
"                         @*,,,,,,,,,,,,,,,,*@                         ",
"                         #=,,,,,,,,,,,,,,,,=#                         ",
"                         #=,,,,,,,,,,,,,,,,=#                         ",
"                         @*,,,,,,,,,,,,,,,,*@                         ",
"                         +&,,,,,,,,,,,,,,,,&+                         ",
"                         .%,,,,,,,,,,,,,,,,%.                         ",
"                          @>,,,,,,,,,,,,,,>@                          ",
"                          $;),,,,,,,,,,,,);$                          ",
"                           -'),,,,,,,,,,)'-                           ",
"                            -;>,,,,,,,,>;-                            ",
"                             $@%&*==*&%@$                             ",
"                               .+@##@+.                               ",
"                                                                      ",
"                                                                      ",
"                                                                      ",
"                                                                      ",
"                                                                      ",
"                                                                      ",
"                                                                      ",
"                                                                      ",
"                                                                      ",
"                                                                      ",
"                                                                      ",
"                                                                      ",
"                                                                      ",
"                                                                      ",
"                                                                      ",
"                                                                      ",
"                                                                      ",
"                                                                      ",
"                                                                      ",
"                                                                      ",
"                                                                      ",
"                                                                      ",
"                                                                      ",
"                                                                      ",
"                                                                      "};
