/* XPM */
static char * stone_mark_xpm[] = {
"100 100 42 1",
" 	c None",
".	c #D7FDD4",
"+	c #BDFDB8",
"@	c #A8FDA1",
"#	c #98FC90",
"$	c #8FFC86",
"%	c #8CFC83",
"&	c #A1FC99",
"*	c #A8FCA1",
"=	c #8EFC85",
"-	c #79FB6E",
";	c #69FB5C",
">	c #5FFB53",
",	c #5DFB50",
"'	c #CCFEC8",
")	c #A0FC99",
"!	c #7EFB74",
"~	c #59FA4C",
"{	c #42FA32",
"]	c #2FFA1E",
"^	c #20F90E",
"/	c #18F905",
"(	c #16F903",
"_	c #BBFDB5",
":	c #88FC7E",
"<	c #5AFA4D",
"[	c #39F928",
"}	c #23F911",
"|	c #1EF90B",
"1	c #1AF907",
"2	c #17F903",
"3	c #15F901",
"4	c #14F901",
"5	c #87FC7D",
"6	c #51FA43",
"7	c #31F920",
"8	c #1CF909",
"9	c #14F900",
"0	c #49FA3B",
"a	c #22F910",
"b	c #18F904",
"c	c #68FB5C",
"                                                                                                    ",
"                                                                                                    ",
"                                                                                                    ",
"                                                                                                    ",
"                                                                                                    ",
"                                                                                                    ",
"                                                                                                    ",
"                                                                                                    ",
"                                                                                                    ",
"                                                                                                    ",
"                                                                                                    ",
"                                                                                                    ",
"                                                                                                    ",
"                                                                                                    ",
"                                                                                                    ",
"                                                                                                    ",
"                                                                                                    ",
"                                                                                                    ",
"                                                                                                    ",
"                                                                                                    ",
"                                                                                                    ",
"                                                                                                    ",
"                                                                                                    ",
"                                                                                                    ",
"                                                                                                    ",
"                                                                                                    ",
"                                                                                                    ",
"                                                                                                    ",
"                                                                                                    ",
"                                                                                                    ",
"                                                                                                    ",
"                                                                                                    ",
"                                                                                                    ",
"                                                                                                    ",
"                                                                                                    ",
"                                                                                                    ",
"                                             .+@#$%$#@+.                                            ",
"                                            &*=-;>,>;-=*&                                           ",
"                                          ')!~{]^/(/^]{~!)'                                         ",
"                                         _:<[}|1234321|}[<:_                                        ",
"                                        *5678999999999998765*                                       ",
"                                       _50ab9999999999999ba05_                                      ",
"                                      ':6a24999999999999942a6:'                                     ",
"                                      )<7b49999999999999994b7<)                                     ",
"                                     &![899999999999999999998[!&                                    ",
"                                    .*~}999999999999999999999}~*.                                   ",
"                                    +={|999999999999999999999|{=+                                   ",
"                                    @-]19999999999999999999991]-@                                   ",
"                                    #;^29999999999999999999992^;#                                   ",
"                                    $>/39999999999999999999993/>$                                   ",
"                                    %,(49999999999999999999994(,%                                   ",
"                                    $>/39999999999999999999993/>$                                   ",
"                                    #c^29999999999999999999992^c#                                   ",
"                                    @-]19999999999999999999991]-@                                   ",
"                                    +={|999999999999999999999|{=+                                   ",
"                                    .*~}999999999999999999999}~*.                                   ",
"                                     &![899999999999999999998[!&                                    ",
"                                      )<7b49999999999999994b7<)                                     ",
"                                      ':6a24999999999999942a6:'                                     ",
"                                       _50ab9999999999999ba05_                                      ",
"                                        *5678999999999998765*                                       ",
"                                         _:<[}|1234321|}[<:_                                        ",
"                                          ')!~{]^/(/^]{~!)'                                         ",
"                                            &*=-c>,>c-=*&                                           ",
"                                             .+@#$%$#@+.                                            ",
"                                                                                                    ",
"                                                                                                    ",
"                                                                                                    ",
"                                                                                                    ",
"                                                                                                    ",
"                                                                                                    ",
"                                                                                                    ",
"                                                                                                    ",
"                                                                                                    ",
"                                                                                                    ",
"                                                                                                    ",
"                                                                                                    ",
"                                                                                                    ",
"                                                                                                    ",
"                                                                                                    ",
"                                                                                                    ",
"                                                                                                    ",
"                                                                                                    ",
"                                                                                                    ",
"                                                                                                    ",
"                                                                                                    ",
"                                                                                                    ",
"                                                                                                    ",
"                                                                                                    ",
"                                                                                                    ",
"                                                                                                    ",
"                                                                                                    ",
"                                                                                                    ",
"                                                                                                    ",
"                                                                                                    ",
"                                                                                                    ",
"                                                                                                    ",
"                                                                                                    ",
"                                                                                                    ",
"                                                                                                    "};
