/* XPM */
static char * background_xpm[] = {
"46 48 462 2",
"  	c None",
". 	c #EBE6E6",
"+ 	c #E9E4E4",
"@ 	c #E5E0E0",
"# 	c #E2DCDC",
"$ 	c #DED8D8",
"% 	c #E1DCDB",
"& 	c #E2DDDC",
"* 	c #DFDAD9",
"= 	c #E2DEDC",
"- 	c #DAD3D3",
"; 	c #DBD5D5",
"> 	c #E3DDDD",
", 	c #E0DADA",
"' 	c #DDD7D7",
") 	c #DAD4D3",
"! 	c #DCD6D6",
"~ 	c #E5E2E0",
"{ 	c #E8E6E3",
"] 	c #EBE9E6",
"^ 	c #EDEBE8",
"/ 	c #EFEFEB",
"( 	c #ECE3D8",
"_ 	c #EAD6BB",
": 	c #ECDECA",
"< 	c #E9CBA2",
"[ 	c #E9CEAB",
"} 	c #E9D2B2",
"| 	c #E9CDA9",
"1 	c #E9D4B8",
"2 	c #E8D9C5",
"3 	c #EAE2D8",
"4 	c #E8E5E3",
"5 	c #E6E3E1",
"6 	c #E7E4E1",
"7 	c #E3DFDE",
"8 	c #DCD6D5",
"9 	c #DED7D7",
"0 	c #DFD8D8",
"a 	c #DFD9D9",
"b 	c #E3DEDD",
"c 	c #E3DFDD",
"d 	c #E2DEDD",
"e 	c #E4E0DE",
"f 	c #E6E3E0",
"g 	c #E9E6E3",
"h 	c #EBEAE6",
"i 	c #EEEDE9",
"j 	c #F1F1EC",
"k 	c #EEE8DF",
"l 	c #E9DDCE",
"m 	c #E8DBCC",
"n 	c #EADFD1",
"o 	c #ECE5DB",
"p 	c #ECEAE6",
"q 	c #EDECE8",
"r 	c #ECEAE7",
"s 	c #DED9D8",
"t 	c #DED8D7",
"u 	c #E0DBDA",
"v 	c #E9E7E4",
"w 	c #EAE8E5",
"x 	c #EEE6DA",
"y 	c #E9E0D5",
"z 	c #ECE8E2",
"A 	c #ECE7DF",
"B 	c #ECE4D8",
"C 	c #E7E4E2",
"D 	c #EBE9E5",
"E 	c #E8E5E2",
"F 	c #E5E1DF",
"G 	c #DFD9D8",
"H 	c #DDD7D6",
"I 	c #DDD6D6",
"J 	c #E7E2E2",
"K 	c #EAE5E5",
"L 	c #E8E3E3",
"M 	c #E5DFDF",
"N 	c #E1DBDB",
"O 	c #DAD4D4",
"P 	c #DDD8D7",
"Q 	c #E0DCDA",
"R 	c #EFE8DE",
"S 	c #F1F1ED",
"T 	c #EEECE7",
"U 	c #E9E6E4",
"V 	c #EAE7E4",
"W 	c #E7E3E1",
"X 	c #EFEEEA",
"Y 	c #F0F0EB",
"Z 	c #F0F0EC",
"` 	c #F0EFEB",
" .	c #ECE9E4",
"..	c #E8E2DB",
"+.	c #ECE7E7",
"@.	c #DCD5D5",
"#.	c #DBD4D4",
"$.	c #E1DDDB",
"%.	c #E0DAD9",
"&.	c #E1DCDA",
"*.	c #F2F2ED",
"=.	c #EBE6DF",
"-.	c #EDEAE4",
";.	c #ECEBE7",
">.	c #E4DEDE",
",.	c #EBE8E5",
"'.	c #E6E1E1",
").	c #EBE5E5",
"!.	c #E8E2E2",
"~.	c #E6E0E0",
"{.	c #E5E2DF",
"].	c #EDD2AA",
"^.	c #ECC792",
"/.	c #EDD1A7",
"(.	c #EFDEC4",
"_.	c #EEE4D3",
":.	c #F2F0EA",
"<.	c #E7E5E2",
"[.	c #F1F0EC",
"}.	c #E8E3DF",
"|.	c #E2D9D2",
"1.	c #E1D5CD",
"2.	c #E3DBD5",
"3.	c #E7E3E0",
"4.	c #E7E3DE",
"5.	c #E7E2DC",
"6.	c #DCD7D6",
"7.	c #E4E1DF",
"8.	c #EFE9E0",
"9.	c #EBDDCC",
"0.	c #E8D2B6",
"a.	c #E4C49E",
"b.	c #E5C9A8",
"c.	c #E5CDB1",
"d.	c #E9DBC9",
"e.	c #EDE4D8",
"f.	c #E6E2E0",
"g.	c #F2F1EC",
"h.	c #F1EFE9",
"i.	c #E6DBCE",
"j.	c #E9DFD3",
"k.	c #E5D9CA",
"l.	c #E7DBCD",
"m.	c #E8DED1",
"n.	c #EBE7E1",
"o.	c #EBE3D7",
"p.	c #EDE9E2",
"q.	c #EBE6DE",
"r.	c #ECE9E3",
"s.	c #EDEAE5",
"t.	c #ECE9E5",
"u.	c #EEEDE8",
"v.	c #EEE3D3",
"w.	c #EBE0D2",
"x.	c #EDE0CF",
"y.	c #EBE1D4",
"z.	c #EEE7DC",
"A.	c #ECDDC9",
"B.	c #EFEAE0",
"C.	c #F2F1ED",
"D.	c #E0DBD9",
"E.	c #EEE9E9",
"F.	c #EFEBEB",
"G.	c #E3DEDE",
"H.	c #DFD8D5",
"I.	c #E3CFBA",
"J.	c #E6D4C0",
"K.	c #E5D3BF",
"L.	c #EBE1D5",
"M.	c #EADED1",
"N.	c #ECE6DF",
"O.	c #EDE7DD",
"P.	c #E9E7E3",
"Q.	c #E9E4DD",
"R.	c #E9E2DB",
"S.	c #E1DDDC",
"T.	c #E6E1E0",
"U.	c #E7E2E1",
"V.	c #E7E1E1",
"W.	c #DDCABB",
"X.	c #DAC5B5",
"Y.	c #DCC9BB",
"Z.	c #E8E3E0",
"`.	c #EDE8E7",
" +	c #F2EDED",
".+	c #E8E3E2",
"++	c #EBE6E5",
"@+	c #EDE8DF",
"#+	c #EFEDE7",
"$+	c #DBD5D4",
"%+	c #E8E4E2",
"&+	c #EBE8E6",
"*+	c #F1EDE4",
"=+	c #ECE7E0",
"-+	c #E9E0D4",
";+	c #EEE8DC",
">+	c #ECE6DC",
",+	c #EDECE9",
"'+	c #E4DFDF",
")+	c #E4E0DF",
"!+	c #CBA17F",
"~+	c #CBA383",
"{+	c #C69872",
"]+	c #CA9F7C",
"^+	c #CEA786",
"/+	c #D6B89F",
"(+	c #D0AA88",
"_+	c #DCC4AD",
":+	c #E6DACD",
"<+	c #EBE7E2",
"[+	c #E9E6E2",
"}+	c #EFECE4",
"|+	c #EEE5D7",
"1+	c #EEE1CD",
"2+	c #EFE6D7",
"3+	c #EFE5D4",
"4+	c #F0EDE6",
"5+	c #EEEDEA",
"6+	c #E3DBD6",
"7+	c #E4DFDC",
"8+	c #EFEAEA",
"9+	c #E9E5E0",
"0+	c #EAE5DE",
"a+	c #EBE5DD",
"b+	c #EAE0D3",
"c+	c #E5D6C6",
"d+	c #E5D3BE",
"e+	c #DCBFA2",
"f+	c #DCBB99",
"g+	c #DDBE9D",
"h+	c #DEBF9D",
"i+	c #E2CBB1",
"j+	c #E1C6A8",
"k+	c #E2CAB0",
"l+	c #E6D6C3",
"m+	c #E5D4C1",
"n+	c #EDE2D3",
"o+	c #EAE5DF",
"p+	c #F2F1EB",
"q+	c #F1F0EA",
"r+	c #E6E2E1",
"s+	c #E9E5E3",
"t+	c #EAE6E5",
"u+	c #EDE9E7",
"v+	c #E2DDDD",
"w+	c #E5E1E0",
"x+	c #E4DDD9",
"y+	c #E8DDD3",
"z+	c #E6D7C8",
"A+	c #E6DED9",
"B+	c #ECEAE4",
"C+	c #F0E6D6",
"D+	c #EFDDC3",
"E+	c #ECDDC8",
"F+	c #F0E2CE",
"G+	c #EEECE9",
"H+	c #E5D3BC",
"I+	c #E7D5BE",
"J+	c #E6D4BD",
"K+	c #E7D9C8",
"L+	c #E8DFD5",
"M+	c #E8E2DC",
"N+	c #E9E2DA",
"O+	c #F0ECEC",
"P+	c #EDE9E8",
"Q+	c #EDE8E8",
"R+	c #E9E4E3",
"S+	c #ECDFCD",
"T+	c #E9D8C3",
"U+	c #E2C099",
"V+	c #E3C198",
"W+	c #E3C29A",
"X+	c #E2C098",
"Y+	c #E0BB92",
"Z+	c #DDB384",
"`+	c #DDB68B",
" @	c #E0C2A1",
".@	c #E3CBB2",
"+@	c #EEEAE2",
"@@	c #EEEBE4",
"#@	c #F0EDE7",
"$@	c #EBE3D9",
"%@	c #EAE1D5",
"&@	c #EDE7DE",
"*@	c #EBE5DC",
"=@	c #E7E3E2",
"-@	c #EAE6E2",
";@	c #E9E3E3",
">@	c #F0EDE4",
",@	c #EEE6D9",
"'@	c #E1DBD8",
")@	c #EAE4E4",
"!@	c #E9DED2",
"~@	c #EBE5DE",
"{@	c #E0DAD8",
"]@	c #E4DFDE",
"^@	c #E8E1DA",
"/@	c #DFD0C6",
"(@	c #D0B7A7",
"_@	c #CBAE9B",
":@	c #D0B6A5",
"<@	c #D7C3B7",
"[@	c #D9C8BD",
"}@	c #E1D9D3",
"|@	c #E5DFDA",
"1@	c #E2D4C7",
"2@	c #E2D4C5",
"3@	c #ECD8BC",
"4@	c #EBD3B3",
"5@	c #EDE1CF",
"6@	c #E7E0D9",
"7@	c #E7DFD7",
"8@	c #E5DBD0",
"9@	c #E6DFD9",
"0@	c #E8E4E1",
"a@	c #E3DFDC",
"b@	c #E1D9D4",
"c@	c #E3DCD8",
"d@	c #E5E0DF",
"e@	c #EAE3D9",
"f@	c #EAE2D7",
"g@	c #EDEBE5",
"h@	c #E3D7CD",
"i@	c #DAC8BA",
"j@	c #D7C2B2",
"k@	c #DECDC1",
"l@	c #E0D3C9",
"m@	c #E5DDD5",
"n@	c #EBE8E4",
"o@	c #EAE7E3",
"p@	c #EAE8E4",
"q@	c #E7E2DE",
"r@	c #E2DBD6",
"s@	c #E2D9D3",
"t@	c #E8E3DE",
"u@	c #E8DED3",
"v@	c #E7DACA",
"w@	c #E5D0B7",
"x@	c #E4CDB3",
"y@	c #E1C19B",
"z@	c #DFC09E",
"A@	c #E4D1BC",
"B@	c #E3D1BD",
"C@	c #E7DFD6",
"D@	c #EEECE8",
"E@	c #EBE6E0",
"F@	c #E8E1D9",
"G@	c #EBE1D3",
"H@	c #EBE0CF",
"I@	c #EADAC4",
"J@	c #E5C8A3",
"K@	c #E5C7A0",
"L@	c #E5C9A5",
"M@	c #E1BA89",
"N@	c #E2BE90",
"O@	c #E1C198",
"P@	c #E3C6A2",
"Q@	c #E4CFB5",
"R@	c #E7D8C6",
"S@	c #EDE5D9",
"T@	c #EEEEEA",
"U@	c #E5DCD4",
"V@	c #E6E2DD",
"W@	c #E4DFDB",
"X@	c #E2B880",
"Y@	c #E3B67B",
"Z@	c #E2B881",
"`@	c #E4BB86",
" #	c #E7C79D",
".#	c #EAD3B5",
"+#	c #ECD8BD",
"@#	c #EFDFC7",
"##	c #EFD5AD",
"$#	c #EEDABC",
"%#	c #EED3AA",
"&#	c #ECD5B2",
"*#	c #EBD8BC",
"=#	c #E7D7C1",
"-#	c #F0E6D5",
";#	c #EEE4D4",
">#	c #EDE1CE",
",#	c #EDE9E1",
"'#	c #EADCCC",
")#	c #EAE0D6",
"!#	c #ECE2D4",
"~#	c #EBDCC6",
"{#	c #E9D7BE",
"]#	c #E8D7BF",
"^#	c #E6E1DB",
"/#	c #ECE6DD",
"(#	c #E7D3BA",
"_#	c #E9D6BC",
":#	c #EADECE",
"<#	c #E9DECF",
"[#	c #EEE3D4",
"}#	c #EAD7BD",
"|#	c #E9D2B1",
"1#	c #E5C090",
"2#	c #E9D0AD",
"3#	c #E9CFAB",
"4#	c #E8CEAB",
"5#	c #E7CAA3",
"6#	c #E6C8A1",
"7#	c #EADAC5",
"8#	c #EBDDCA",
"9#	c #EADDCC",
"0#	c #EEE9E0",
"a#	c #E6CFB2",
"b#	c #E5CFB2",
"c#	c #E7D7C3",
"d#	c #E5D8CB",
"e#	c #E6DED5",
"f#	c #E6E0DC",
"g#	c #ECE8E3",
"h#	c #EBE3D8",
"i#	c #ECDECB",
"j#	c #E8CCA8",
"k#	c #E8C89C",
"l#	c #E8C9A1",
"m#	c #EAD0AD",
"n#	c #E8CBA5",
"o#	c #EAD4B7",
"p#	c #EBE2D5",
"q#	c #EEEBE6",
"r#	c #ECDFCC",
"s#	c #ECE1D2",
"t#	c #EDE9E9",
"u#	c #E4E0DD",
"v#	c #E6E1DD",
"w#	c #ECDBC3",
"x#	c #E9CEA9",
"y#	c #E5C396",
"z#	c #E4BF8F",
"A#	c #E5C296",
"B#	c #E8CFAD",
"C#	c #EDE2D2",
"D#	c #E0D9D9",
"E#	c #ECE8E7",
"F#	c #EEEAEA",
"G#	c #E8E4E3",
"H#	c #EDEAE8",
"I#	c #DCCABB",
"J#	c #D7BEAB",
"K#	c #CEAE95",
"L#	c #CBA98F",
"M#	c #C8A48B",
"N#	c #CCAB92",
"O#	c #CEAF98",
"P#	c #D8C3B2",
"Q#	c #DCCBBE",
"R#	c #DECFC3",
"S#	c #E3D7CE",
"T#	c #DED1C8",
"U#	c #E4DCD4",
"V#	c #E6E0DB",
"W#	c #E2D7CD",
"X#	c #EAE4DC",
"Y#	c #EAE3DB",
"Z#	c #ECE7E1",
"`#	c #E8C596",
" $	c #E8CBA2",
".$	c #EBE1D1",
". + @ # $ % & * = - ; $ & % > > # , ' ) ! * = ~ { ] ^ / ( _ : < [ } | 1 2 3 4 5 6 7 % * % * ",
"8 9 0 a a $ % b ' * % = c d & & & b e f g h i j k l m n o p q r ] ] g 6 & * s ! ! t u c 5 v ",
"w x y z A B v C D E F c % u G H I $ > J K . K L M N $ O P % e 5 { w p ^ q ^ r w 4 f e = Q & ",
"R S T p w 4 E E g w 4 v U U g V { 4 4 V v v h C g C p v E W 5 6 { w ^ X Y Z ` i q q r r  ...",
"+.+ M , @.#.; 8 ; $.% b u % s #.#.u s %.* b % , $ ' P &.F v q ` *.=.-.S X ;.v 5 e % = Q 9 >.",
"% $.% b 7 C g w ,.e w g C f ~ 5 4 w h ;.^ r w C e u ! @.# '.+ K ).K + !.~.M >., ' $ u * = {.",
"].^./.(._.:.i w 5 c % u * u % = e ~ 5 <.4 { { 4 V w v C 5 e e e ~ 6 g ] q X [.] }.|.1.2.4 F ",
"3.4.5.E f e u ' ; I a 0 a $ ! 6.* $.7.<.] i S 8.9.0.a.b.c.d.e.i w w 4 4 5 F e e e 7.F ~ f.f ",
"` j g.h.*.S i.j.k.l.m.n.o.p.q.r.s.] q r w v v v v w t. .r.u.v.w.x.y.z.A.B.C.Y ` ` [.r q i q ",
"{ C f.F e 5.$.u s = % b d % % & u u % & $.D.' - # L +.E.F.F.G.+ > #.P & ~ { w w { ~ ~ c H.& ",
"^ / I.J.K.L.M.N.O.X ] w U v P.Q.R.] 4 F S.F T.U.N M J V.M N ' ! * b f.g ] ^ q ^ ;.;.;.W.X.Y.",
"4 5 Z.u ! $ V.`. + +.+++.+~.% d s = f.U r @+#+[./ i ^ h w v v v w ] ] r 4 5 v 6 e % s b $+#.",
"v E C W %+&+E C ] *+=+-+;+>+q ,+g e * $+a '+!.+ + J >., )+Q 7.s a G $.&.G u ; ; #.- #.@.! 6.",
"!+~+{+]+^+/+(+_+:+<+[+p v E 6 ~ e = % * G s * u & 7 ~ 4 V ] }+|+1+2+3+4+5+r V C 6 C 4 v w ] ",
"6+7+c d b f.5 F $.* 8 ' ~.8+ + + + +E.V.9 H $.f.w 9+0+a+b+c+d+e+f+g+h+i+j+k+l+m+n+o+w ] <.e ",
"f.{ h 5+[.p+q+j i w f.% r+s+t+u+> > # N a ' @.#.#.)+c ' 0 , v+w+b x+Z.y+z+A+.+T.V.f., H &.F ",
"v U 4 5 F e e e f.4 ] i B+C+D+E+F+:./ r g ~ = u s P ' P s % & 7.E ] G+H+I+J+K+L+i ;.w { 5 7.",
"P t ' ; @.# !.. +.. J N G s $ u % = 7 F W 4 w r ;.=+M+N+n.q V { 5 5 e = $.c = % $.= c 7.f E ",
"4 C F $.' I V.O+ + + +P+Q+R+> $+Q f ] i 4+S+T+U+V+W+X+Y+Z+`+ @.@l +@j ` X [.@@#@$@%@&@*@Z i ",
"] 4 ] ;.D g W F c = & & & & $.u t ; .++ '.#.P )+F =@-@4 { 4 v v g C f ~ F {.~ {.7.e b b = b ",
"* u a , > >.> , #.H u e E w ] p ] w g 6 F c % * t ! $+$+8 t u c f g D { ^ ;.] U 5 c u P $+I ",
"u Q % $.& = b 7 7.f.6 E { g g g { E C 6 W 5 W 6 <.4 U w D D V C e u a G # '.!.V.# ; P & 6 h ",
"e {.5 C C C 5 {.e = % u % & e f.<.U v g 6 7 * - M > ;@U.. , H = 4 ^ ] >@,@4+r v V 5 c S.% & ",
"<.6 C { V ] h h D g 5 c u ' #.! $ $ I - ; ! ' P H u '@$.' , >.'.;@K K )@!.'+I H #.6.t s $ P ",
"!@~@w X i q r ] g 5 e e s 8 {@{@= d P % e 6 g v g 6 7.= % u * * u u Q u u * t H ' s u = F C ",
"b ]@]@% 7.4 r w G+^@/@(@_@:@<@[@}@|@V ^ G+X ` [.j [./ i ;.D v { E C C C E { g v v w D 1@2@=.",
"J >.% * &.& = & u H ; @., # G.> , @.6.* c 6 D i Y S 3@4@E+5@i r v 6 e % u 8 - @.' $ * H * u ",
"^ q q D w ] U X g -@6@7@8@9@0@Z 4 { 4 ] ] w v E f.= a@b@c@d@N ' ; u ~ ] r @@e@f@g@i w f u * ",
"H $ v+'.K +.Q++.+ > @.H Q 7 ~ 5 5 f.F c $.%.t ! #.; a # # , t ' u e v i  .h@i@j@k@l@m@Q.i r ",
"O #.@.' G Q = e {.5 E v w h ;.q i G+^ ] U 6 F c = c e 5 g ] E w n@o@o@p@[+g 6 q@r@s@V g E 6 ",
"' #.; @.- 8 s & ~ v ^ / S *.j X q ] g 6 f.F F ~ f W C 4 V r i j t@u@v@w@x@y@z@ @A@B@9+X r V ",
"f 6 E { g f 5 W f.f f.{.F C v ] p h w E F % t $+@.$ $ r+W * d f.4 w 1@C@s.D@i T i i i i E@F@",
"n G@H@I@J@K@L@M@N@O@P@Q@m+R@S@T@{ & 8 , J + '.a 6.= 4 9@U@i ;.v V@&.W@e >.V.@ # a u * &.& 7 ",
"X@Y@Z@`@ #.#+#@###$#%#&#*#=#7 u ' ; - #.#.- #.8 P G u c C r Z -#;#>#C+,#;.E c u P ! H * = f.",
"* u & * u a - b %+6.'#)#* u $.c e F F F e e e 7.f g r i !#~#{#]#J+^#% s P s % 7.E w h ] V 6 ",
"s./#(#_#:#<#[#r C f.Q 8 ' # >.>.> , ' O H * d f V q Y }#|#1#2#3#4#5#6#7#8#9.d.9#0#j X r w 4 ",
"] { F $.$ ; - P H ! * & e f.6 C C 5 F e c b e f v [+l.J+a#b#c#d#e#5.f#7.)+~ C v w V E F % ' ",
"$.u d d $.* a s , % G ; $.& G * * G P 8 - @.I ; #.% & c ]@7.~ 6 r h w { 5 e c = = = = & $.% ",
"g#h#i#I@ #j#k#l#m#n#o#p#( q q w C e $.G ! #.#.@.#.#.H G Q = e f.<.V r i q q#,@r#s#4+` ^ v 5 ",
"* G #.) = 7 )+T.]@d@.+t#. V., ; * c f 4 v V v 4 6 5 6 E v w ] ] V C e u * b , , ' s+4 = f.{ ",
"r w E 7.$.$ $+I N >.@ '.V.~.>.N I ! 8 ' $ s * * u Q & e f 4 v w v C 7.% H ! > L +.E.E.. V.# ",
"* H $+@., # > @ I b % c u#v#C g V E v E ~ = s - # ;@. K @ 0 ; G S.7 e e c = $.]@& % * P t t ",
"! ; #.s = C r S@w#x#y#z#A#B#C#X ] C e % G ' 8 s $ a M + . . + V.> , $ 9 D#'++.E#).Q+F#+.L V.",
"= c e e 7 c c d = G#H#U 5 e ~ 6 4 v w w ] ] w ] ] w ] p ;.^ ^ ;.r ] V g E C C E V p G+` r D@",
"c u t ; #.' ! O H u e <.] 4 V ] i ^ ] g 5 e F b Q 7 = c {.5 5 E f.f ~ 7 u H @.# M ~.>.N ! P ",
"8 #.$ , , $ #.#.! ' t P ' ' t P * b 5 D X I#J#K#L#M#N#O#P#Q#R#h@S#R.C.` q ] { 5 e b & & b )+",
"5 ~ f & & S.& = c 7.5 v r g { v ] X ;.v W f.3.3.T#U#V#W#F@X#q#Y#z Z#=.r.T i G+q p r h h r q ",
"`# $.$j r E 7.= % $.c F E w g g ] D w ] w w { 5 F c & % u * * * * e c & = & S.D.&.t e F c U "};
