/* XPM */
static char * field_removed_xpm[] = {
"70 70 2 1",
" 	c None",
".	c #FFFFFF",
"                                 .....                                ",
"                               .........                              ",
"                             ............                             ",
"                            ...............                           ",
"                          ...................                         ",
"                        ......................                        ",
"                       .........................                      ",
"                     .............................                    ",
"                   .................................                  ",
"                 ....................................                 ",
"               .........................................              ",
"              ...........................................             ",
"            ..............................................            ",
"           .................................................          ",
"         .....................................................        ",
"       .........................................................      ",
"      ...........................................................     ",
"    ...............................................................   ",
"    ...............................................................   ",
"    ...............................................................   ",
"    ...............................................................   ",
"    ...............................................................   ",
"    ...............................................................   ",
"    ...............................................................   ",
"    ...............................................................   ",
"    ...............................................................   ",
"    ...............................................................   ",
"    ...............................................................   ",
"    ...............................................................   ",
"    ...............................................................   ",
"    ...............................................................   ",
"    ...............................................................   ",
"    ...............................................................   ",
"    ...............................................................   ",
"    ...............................................................   ",
"    ...............................................................   ",
"    ...............................................................   ",
"    ...............................................................   ",
"    ...............................................................   ",
"    ...............................................................   ",
"    ...............................................................   ",
"    ...............................................................   ",
"    ...............................................................   ",
"    ...............................................................   ",
"    ...............................................................   ",
"    ...............................................................   ",
"    ...............................................................   ",
"    ...............................................................   ",
"    ...............................................................   ",
"    ...............................................................   ",
"    ...............................................................   ",
"    ...............................................................   ",
"    ...............................................................   ",
"    ..............................................................    ",
"      ...........................................................     ",
"       ........................................................       ",
"         ....................................................         ",
"           .................................................          ",
"             .............................................            ",
"              ..........................................              ",
"                .......................................               ",
"                  ...................................                 ",
"                   ................................                   ",
"                     ............................                     ",
"                       ........................                       ",
"                         .....................                        ",
"                          ..................                          ",
"                             .............                            ",
"                              ...........                             ",
"                                .......                               "};
