/* XPM */
static char * field_grey_xpm[] = {
"70 70 474 2",
"  	c None",
". 	c #272727",
"+ 	c #4B4B4C",
"@ 	c #1B1B1B",
"# 	c #252525",
"$ 	c #444444",
"% 	c #484848",
"& 	c #474747",
"* 	c #151516",
"= 	c #121212",
"- 	c #131313",
"; 	c #191919",
"> 	c #3B3B3B",
", 	c #454545",
"' 	c #464646",
") 	c #4B4B4B",
"! 	c #515151",
"~ 	c #151515",
"{ 	c #161616",
"] 	c #2F2F2F",
"^ 	c #414141",
"/ 	c #434343",
"( 	c #404040",
"_ 	c #444445",
": 	c #4A4A4A",
"< 	c #505050",
"[ 	c #4F4F4F",
"} 	c #161617",
"| 	c #323232",
"1 	c #505051",
"2 	c #535354",
"3 	c #565658",
"4 	c #171717",
"5 	c #141414",
"6 	c #282828",
"7 	c #424242",
"8 	c #454546",
"9 	c #4D4D4D",
"0 	c #525252",
"a 	c #4C4C4D",
"b 	c #515152",
"c 	c #57575A",
"d 	c #555558",
"e 	c #535357",
"f 	c #141415",
"g 	c #1F1F1F",
"h 	c #292929",
"i 	c #494949",
"j 	c #4C4C4C",
"k 	c #484849",
"l 	c #545454",
"m 	c #565657",
"n 	c #58585C",
"o 	c #555557",
"p 	c #4D4D4E",
"q 	c #4F4F50",
"r 	c #181818",
"s 	c #1C1C1C",
"t 	c #4E4E4E",
"u 	c #565656",
"v 	c #5B5B5D",
"w 	c #5C5C5F",
"x 	c #59595C",
"y 	c #525253",
"z 	c #49494A",
"A 	c #1A1A1A",
"B 	c #535353",
"C 	c #5C5C5E",
"D 	c #5E5E60",
"E 	c #5D5D5E",
"F 	c #4E4E4F",
"G 	c #535356",
"H 	c #303030",
"I 	c #545455",
"J 	c #555556",
"K 	c #555555",
"L 	c #5C5C5C",
"M 	c #4E4E50",
"N 	c #4A4A4B",
"O 	c #202020",
"P 	c #535355",
"Q 	c #575757",
"R 	c #58585A",
"S 	c #2E2E2E",
"T 	c #5B5B5B",
"U 	c #626263",
"V 	c #1D1D1E",
"W 	c #202021",
"X 	c #5C5C5D",
"Y 	c #616162",
"Z 	c #626262",
"` 	c #5E5E5E",
" .	c #585858",
"..	c #5F5F62",
"+.	c #171718",
"@.	c #383839",
"#.	c #656569",
"$.	c #6B6B6E",
"%.	c #6A6A6D",
"&.	c #69696C",
"*.	c #656565",
"=.	c #5D5D5D",
"-.	c #5A5A5B",
";.	c #565659",
">.	c #515153",
",.	c #5A5A5A",
"'.	c #404041",
").	c #585859",
"!.	c #636365",
"~.	c #68686D",
"{.	c #646465",
"].	c #686868",
"^.	c #5F5F5F",
"/.	c #595959",
"(.	c #616163",
"_.	c #626265",
":.	c #5E5E61",
"<.	c #2C2C2C",
"[.	c #656567",
"}.	c #69696D",
"|.	c #68686B",
"1.	c #6A6A6C",
"2.	c #676768",
"3.	c #606061",
"4.	c #646466",
"5.	c #5F5F60",
"6.	c #323233",
"7.	c #363636",
"8.	c #3F3F3F",
"9.	c #464647",
"0.	c #5E5E5F",
"a.	c #636366",
"b.	c #656568",
"c.	c #67676A",
"d.	c #69696B",
"e.	c #68686C",
"f.	c #59595A",
"g.	c #606062",
"h.	c #626364",
"i.	c #5F5F61",
"j.	c #636367",
"k.	c #646468",
"l.	c #666669",
"m.	c #636364",
"n.	c #626264",
"o.	c #666667",
"p.	c #5A5A5C",
"q.	c #616164",
"r.	c #606064",
"s.	c #575758",
"t.	c #69696A",
"u.	c #5D5D5F",
"v.	c #606063",
"w.	c #5B5B5F",
"x.	c #5B5B5C",
"y.	c #5F5F63",
"z.	c #5B5B5E",
"A.	c #5D5D61",
"B.	c #5A5A5D",
"C.	c #3D3D3D",
"D.	c #616161",
"E.	c #6D6D6E",
"F.	c #6C6C6D",
"G.	c #5D5D60",
"H.	c #5E5E62",
"I.	c #393939",
"J.	c #646467",
"K.	c #616165",
"L.	c #59595B",
"M.	c #6B6B6F",
"N.	c #626267",
"O.	c #676769",
"P.	c #626266",
"Q.	c #5C5C60",
"R.	c #616166",
"S.	c #3E3E3E",
"T.	c #666668",
"U.	c #646464",
"V.	c #676767",
"W.	c #6C6C6E",
"X.	c #6D6D70",
"Y.	c #6A6A6E",
"Z.	c #6C6C71",
"`.	c #666666",
" +	c #6B6B6B",
".+	c #6C6C70",
"++	c #6D6D71",
"@+	c #606060",
"#+	c #747474",
"$+	c #7B7B7B",
"%+	c #828282",
"&+	c #7F7F81",
"*+	c #7B7B7F",
"=+	c #7B7B7E",
"-+	c #7E7E82",
";+	c #7D7D81",
">+	c #7E7E83",
",+	c #6E6E6E",
"'+	c #777779",
")+	c #727273",
"!+	c #656566",
"~+	c #6C6C6C",
"{+	c #868686",
"]+	c #AFAFAF",
"^+	c #C2C2C3",
"/+	c #CACACF",
"(+	c #BBBBC0",
"_+	c #A7A7A9",
":+	c #A3A3A5",
"<+	c #AAAAAD",
"[+	c #A7A7A8",
"}+	c #B0B0B3",
"|+	c #B4B4B7",
"1+	c #9C9C9C",
"2+	c #9B9B9B",
"3+	c #979797",
"4+	c #ADADAE",
"5+	c #B8B8BB",
"6+	c #AFAFB0",
"7+	c #707074",
"8+	c #717174",
"9+	c #6E6E71",
"0+	c #767676",
"a+	c #9D9D9D",
"b+	c #A1A1A1",
"c+	c #ABABAC",
"d+	c #B3B3B5",
"e+	c #C2C2C7",
"f+	c #B5B6B9",
"g+	c #A3A3A3",
"h+	c #989898",
"i+	c #919192",
"j+	c #949494",
"k+	c #989899",
"l+	c #9E9E9E",
"m+	c #9D9D9E",
"n+	c #909090",
"o+	c #919191",
"p+	c #C4C4C6",
"q+	c #C2C2C5",
"r+	c #B9B9BB",
"s+	c #6F6F72",
"t+	c #717175",
"u+	c #6E6E72",
"v+	c #6F6F73",
"w+	c #6D6D6F",
"x+	c #888888",
"y+	c #99999A",
"z+	c #AEAEAF",
"A+	c #BCBCBE",
"B+	c #C0C0C4",
"C+	c #BCBCC0",
"D+	c #A6A6A6",
"E+	c #8F8F8F",
"F+	c #929292",
"G+	c #999999",
"H+	c #9A9A9A",
"I+	c #8E8E8E",
"J+	c #939393",
"K+	c #C5C5C8",
"L+	c #C8C8CC",
"M+	c #C3C3C7",
"N+	c #6E6E70",
"O+	c #68686A",
"P+	c #A0A0A7",
"Q+	c #BEBEC1",
"R+	c #C2C2C6",
"S+	c #C7C7CD",
"T+	c #C4C4CB",
"U+	c #B7B7BB",
"V+	c #A1A1A2",
"W+	c #A5A5A6",
"X+	c #AAAAAB",
"Y+	c #A0A0A0",
"Z+	c #C3C3C8",
"`+	c #C4C4CA",
" @	c #C6C6CC",
".@	c #636363",
"+@	c #6D6D6D",
"@@	c #A9A9AA",
"#@	c #C6C6CA",
"$@	c #CECED3",
"%@	c #A6A6A8",
"&@	c #969696",
"*@	c #ADADAD",
"=@	c #BBBBBC",
"-@	c #BBBBBF",
";@	c #B8B8BC",
">@	c #B6B6BA",
",@	c #BBBBBE",
"'@	c #B6B6B8",
")@	c #6A6A6A",
"!@	c #696969",
"~@	c #B7B7B7",
"{@	c #C6C6C8",
"]@	c #C8C8CA",
"^@	c #BFBFC2",
"/@	c #B1B1B3",
"(@	c #9F9FA0",
"_@	c #8C8C8C",
":@	c #8D8D8D",
"<@	c #C5C5CC",
"[@	c #C2C2C9",
"}@	c #BEBEC4",
"|@	c #B2B2B5",
"1@	c #A9A9AC",
"2@	c #A5A5A7",
"3@	c #A3A3A4",
"4@	c #ABABAB",
"5@	c #66666A",
"6@	c #6B6B6C",
"7@	c #727272",
"8@	c #A8A8A8",
"9@	c #BFBFC0",
"0@	c #BABABB",
"a@	c #B3B3B4",
"b@	c #A7A7A7",
"c@	c #A9A9AB",
"d@	c #BABABF",
"e@	c #BEBEC3",
"f@	c #B9B9BD",
"g@	c #B9B9BC",
"h@	c #A9A9A9",
"i@	c #A4A4A4",
"j@	c #AAAAAA",
"k@	c #959596",
"l@	c #636466",
"m@	c #959595",
"n@	c #B1B1B1",
"o@	c #B2B2B2",
"p@	c #B4B4B4",
"q@	c #B3B3B7",
"r@	c #BCBCC2",
"s@	c #B2B2B7",
"t@	c #ACACAD",
"u@	c #B0B0B0",
"v@	c #9F9F9F",
"w@	c #67676B",
"x@	c #878787",
"y@	c #B8B8B9",
"z@	c #C7C7C7",
"A@	c #C4C4C5",
"B@	c #C9C9CC",
"C@	c #C7C7CB",
"D@	c #BBBBC1",
"E@	c #B3B3B9",
"F@	c #A0A0A1",
"G@	c #A8A8A9",
"H@	c #B7B7B9",
"I@	c #BCBCC1",
"J@	c #6B6B6D",
"K@	c #686869",
"L@	c #9A9A9B",
"M@	c #BEBEC2",
"N@	c #CCCCD1",
"O@	c #CECED4",
"P@	c #CDCED5",
"Q@	c #B3B3B6",
"R@	c #9E9E9F",
"S@	c #A4A4A5",
"T@	c #B5B5B7",
"U@	c #BDBDC4",
"V@	c #B7B7BD",
"W@	c #66666B",
"X@	c #6C6C6F",
"Y@	c #737377",
"Z@	c #B5B5B8",
"`@	c #C1C1C7",
" #	c #C1C1C6",
".#	c #C1C1C5",
"+#	c #C5C5C9",
"@#	c #BABABD",
"##	c #A5A5A5",
"$#	c #B4B4B8",
"%#	c #B8B8BD",
"&#	c #ABABAE",
"*#	c #78787C",
"=#	c #AAAAAE",
"-#	c #B7B7BA",
";#	c #BFBFC4",
">#	c #BFBFC5",
",#	c #BBBBC2",
"'#	c #B1B1B2",
")#	c #A2A2A2",
"!#	c #A6A6A7",
"~#	c #ADADB0",
"{#	c #BDBDC3",
"]#	c #C1C1C8",
"^#	c #B4B4B9",
"/#	c #89898C",
"(#	c #B2B2B3",
"_#	c #AFAFB2",
":#	c #A4A4A6",
"<#	c #ACACAE",
"[#	c #B5B5B5",
"}#	c #B6B6B9",
"|#	c #B2B2B4",
"1#	c #AEAEB1",
"2#	c #ADADAF",
"3#	c #3E3E3F",
"4#	c #474748",
"5#	c #777777",
"6#	c #B4B4B5",
"7#	c #B5B5BB",
"8#	c #B8B8BF",
"9#	c #B1B1B4",
"0#	c #B9BABF",
"a#	c #ACACB1",
"b#	c #9E9EA0",
"c#	c #B4B4B6",
"d#	c #B9B9BE",
"e#	c #AFAFB3",
"f#	c #525254",
"g#	c #BDBDC2",
"h#	c #B0B0B5",
"i#	c #A0A0A2",
"j#	c #A4A5A6",
"k#	c #979798",
"l#	c #B0B0B4",
"m#	c #9B9B9C",
"n#	c #9F9FA1",
"o#	c #49494B",
"p#	c #BEBEC5",
"q#	c #A2A2A4",
"r#	c #969697",
"s#	c #48484A",
"t#	c #6E6E6F",
"u#	c #79797A",
"v#	c #B9B9BA",
"w#	c #ABABAD",
"x#	c #6A6A6B",
"y#	c #757578",
"z#	c #ACACAF",
"A#	c #BABAC0",
"B#	c #9C9C9D",
"C#	c #939394",
"D#	c #B6B6B6",
"E#	c #C7C7CC",
"F#	c #464648",
"G#	c #727274",
"H#	c #A2A2A9",
"I#	c #BABABC",
"J#	c #ACACAC",
"K#	c #B0B0B1",
"L#	c #C3C3C9",
"M#	c #A6A6A9",
"N#	c #CBCBCF",
"O#	c #C8C8CB",
"P#	c #B1B1B6",
"Q#	c #B4B4BA",
"R#	c #C0C0C5",
"S#	c #505053",
"T#	c #7A7A7E",
"U#	c #B8B8C0",
"V#	c #BDBDC1",
"W#	c #B8B8B8",
"X#	c #767677",
"Y#	c #969698",
"Z#	c #B5B5B9",
"`#	c #8B8B8B",
" $	c #8A8A8B",
".$	c #B5B5BA",
"+$	c #ADADB1",
"@$	c #BDBDC0",
"#$	c #BCBCBF",
"$$	c #C0C0C7",
"%$	c #747475",
"&$	c #A2A2A3",
"*$	c #C3C3CA",
"=$	c #575759",
"-$	c #6F6F70",
";$	c #848484",
">$	c #A5A5A9",
",$	c #A1A1A6",
"                                                                                                                                            ",
"                                                                                                                                            ",
"                                                                                                                                            ",
"                                                                                                                                            ",
"                                                                                                                                            ",
"                                                                                                                                            ",
"                                                                                . +                                                         ",
"                                                                            @ # $ % &                                                       ",
"                                                                    * = - ; > , $ $ ' ) !                                                   ",
"                                                              ~ ~ { - { ] ^ / ( $ _ : < < [                                                 ",
"                                                          { ~ } ~ - # | ^ / ' & : [ 1 < < 2 3 3                                             ",
"                                                      } - { 4 5 5 6 , / 7 8 & : 9 0 a ) [ b 3 c d e                                         ",
"                                                    ~ f ~ ~ - g h & i + j k & i < l 0 j [ l m n o p q                                       ",
"                                              } r ~ f { 5 - s , i & j < < ) & ' % ) j ) t u v w x y a ) z                                   ",
"                                            4 { 5 ~ 5 = A / y ) ' , i t 0 B < ' ^ $ & ' j C D w E [ : ) F G                                 ",
"                                        } 4 ~ { { - - H 7 I J a % $ ' [ K u ! & $ j < ) % 3 w w L t $ & a M N %                             ",
"                                    * } } 5 * ; O / i 9 < 2 P 9 : : % ) B B 0 [ : 0 Q Q m 3 x R K t $ % ) j j ' 7                           ",
"                                } } { f 5 * S ( u B 9 [ u K b ) : [ % i ) < B [ : 0 T U D R b p t j & % j 9 [ [ % ' '                       ",
"                              r 4 { 4 V W X Y Z ` X  . .T K B : % j : & : < < b ) [ v ..C Q t & a [ i $ & i : ) t : & :                     ",
"                          ~ +.{ 4 # @.#.$.%.&.*.U Z =.L L Q B ) , i : ) ! l u -.v x ;.>.u ,.Q 0 < a ' & ' , & t 9 % 7 ^                     ",
"                        ~ { { 5 '.q ).!.&.~.$.{.].].Z ^.T /.[ 9 & & & : j B ,.(._.:.2 ) 9 u  .Q u [ % & : i j % i & , >.                    ",
"                      4 { g <.k ! < l [.}.|.1.2.1.$.1.3.Q K j t [ i : i & j L 4.5.,.l 0 i l /.Q  .K ! & ) K ! ' : : $ p                     ",
"                    ~ 6.7.8.& 9.i j B 0.a.b.c.d.e.|.|.3.f.-.J ! [ u l < i 1 g.a.E ,.u 0 i ) 0 l K [ 9 , < m 0 & % [ : +                     ",
"                    & ) ) a : ' ' % 9 < 2 g.h.!._.i.w j.a.k.l.m.n.o.5.E Q X _.g.=./. . .< ) < t ) : % % B < ) % ' j : j                     ",
"                  i % : : + i i : ' % : t I 5.X p.y -.i.C D 4.q.4.e.1.(.0.D r.0.` T /.Q < j 0 < : ) ) t 0 t : : , & q 2                     ",
"                  l i % i i i t l < : [ K 1 m m m B /.J B K f.s.X |.t.{.u.g.v.5.T T u 0 j B B ! t ! l I K [ ' & a J p.x w.                  ",
"                  u.j % : , / ) m x.-.X Q t [ u /.,.b ! ! b B Q E |.].*.a.r.y.i.,. .u ) j B Q Q B 0 Q u ! y s.Q z.A.B.3 B.                  ",
"                  D t : % / C.$ m v.a.D./.[ 9 ! Q /.[ t 0 0 K  .^.}.E.F.c.G.C ).,.,. .j < ,.,.L ,.B B ! l 0.(.i.H.w.R I f.                  ",
"                  x.m B i C.I.$ :.j.b.m.J.x.! < u Q ! t L Q ,.Q X J.|.1.U D w s.l B 0 t [ L L ` L B 9 < D G.K.k.:.p.2 j R                   ",
"                  x.u.s.: I.> 7 .._.#._...q.2 [ l u 0 ! T  .T Q 2 s.X 5.f.E K.L.< j : i < T L  .l t i ! v.G.G.K.C L.).p 2                   ",
"                  I A.f.y : ( $ D i.(.i.z._.B ) [ [ t ! T L T Q t B I b t ,.M.N.J ! < j <  . .< 9 i j B 0...A.v...v ).j 0 -.                ",
"                  p 3 x w z.! F y.p.C G.v g.x.: ) ) 9 < ` ` /.B [ 0 B ! ! s.O.l.-.K l < 0 u u ) t < t 0  .x.u.g.P.j.f.) 9 !                 ",
"                  N a N >.Q.D D :.1 3 z.R u._.9 ) j t l ^.,.l B B B 0 l l s.D.o.4.u K 0 B Q 0 ) <  .B f.E E i.g.R.K.3 ) p L                 ",
"                  / ^ S./ d H.v.q ' a + : f.J.x.0 < f.0.o.U Y (.T.m.l u ,.` U.V.U u ! B  .T K : J !.!.3.f.5.{.4.P.i.[ & B E                 ",
"                  / S.C.C._ o b ^ ( C./ : u !.U K  .T.c.W.X.%.Y.Z.%./. .=.D.`. +V.` 0 B Q ` ,.t ).b.k.q.g.a.4.J.i.-.< ) l u                 ",
"                  ' % & ( 7 ' / C.( C.7 % y D O.!.c.|.b.%..+++Y.X.%.X B /.@+]. + +`.#+#+#+$+%+&+*+=+-+=+*+;+;+>+,+F.`.V.'+)+                ",
"                  2 p.z.q % j i , ^ C.C./ i ! C u.X x.f.D.d.++1..+W.!+K K L ~+ +V.{+]+]+]+^+/+(+_+:+:+<+_+[+}+|+1+2+3+4+5+6+                ",
"                  D -.J :.s.Q ` [ / ( ( 7 / ' i j < ! ! Q Y M.d.%.7+8+d.U t.9+E.0+a+b+c+d+e+f+g+h+3+i+j+k+1+l+m+n+o+b+p+q+r+                ",
"                  u B q (.4.D.!+L z $ , % t [ t 9 9 ! < u 0.4.U O.s+t+t+u+v+u+w+x+y+z+A+B+C+D+b+2+j+o+E+F+j+G+H+I+J+6+K+L+M+                ",
"                  Q K t v l.o.2.U + ' 9 t B l l l 0 [ Q @+U g.E m.1.N+F.t.O+l.P+Q+R+S+T+U+V+a+2+j+F+3+G+G+W+X+Y+2+6+Z+`+ @T+                ",
"                  /./.! o j.#.Y _.v I Q  .l Q =.L u 0  .V.V.D.s.@+2.].V..@=.+@@@#@$@L+Q+%@j+&@n+F+a+*@=@R+ @e+-@;@>@-@,@'@                  ",
"                  D.@+K [ H.a.` _.q.Y ` T l Q 2.T.^.T L ].)@.@u E {.!@ +U.U.G+~@{@]@^@/@(@J+_@:@n+l+r+<@[@}@|@1@2@3@c+4@g+                  ",
"                  5@4.u : I j.k.E -.b.U /.0 =.$.M.$.6@!@)@ +].` ^.*.!@!@Z 7@8@~@9@0@a@b@a+3+I+3+c@d@e@f@g@6+h@H+&@i@j@b+k@                  ",
"                  #.!.! % i C 3 ! 2 l@O.^.0 (.|.4.|.N++@)@!@V.^.L D.*..@#+m@D+n@o@n@p@*@h@h@a+q@r@s@t@]+u@o@D+l+v@j@i@v@2+                  ",
"                  b.Y 0 ) 9 [ i % ) m w@J.Y b.f.l f.M.N+,+F.`.=.=.` ` U.x@3+1+i@4@y@z@A@B@C@D@E@<+F@i@G@h@[+F@a+6+j@n@H@I@                  ",
"                  w@!.l B K [ % ' & 1 #.b.l.q.0 < ! U w+X.X.N+J@K@{.{.J+V+L@1+X+M@N@O@P@ @Q@_+1+a+3+2+Y+8@R@G+S@T@z+T@U@V@                  ",
"                  W@Y K  ./.m  .j % a g.#.c.x.0 ! <  .d.u+X@u+v+s+u+Y@U@}@'@Z@`@ #.#+#@#X+a+G+m@j+J+2+i@a+h+##|@$#$#%#&#                    ",
"                    m Q L ,.).3.B t j J L.0.u B t < u 4.s+F.w+w+1.*#=#-#;#>#,#D@5+'#6+##H+l+)#G@i@!#Y+3+h+~#{#]#D@^#!#j+                    ",
"                    + & < K  ././.K j [ 9 l l Q K u u 5.w+t.V.!@K@/#_+W+(#_#:#<#[#u@h@Y+Y+}#C+-@(+{#|#S@1#D@d@Z@G@)###2#                    ",
"                      3#4#/ [ -.Y (.t j j l ` .@/.T Q ` U.`..@Z 5#H+o+l+v@)#)#4@6#Z@M@%#7#8#U@%#9#0#U@8#a#b#&@1+(@c#d#e#                    ",
"                        7 z 8 9.f#:.f.< 9 m.F.t.T T u  .^.Z U.*.3+2+o+G+##h@d+U+g#h#1@i#k+b#!#g+(@j#<+%@k#o+H+i@l#1#m#n#                    ",
"                          8.o#$ / & % Q v }.%.w+Z .@.@@+` Z )@_@i@H+m@Y+n@M@p#7#q#r#&@F+o+h+g+D+2+3+R@)#h@z+@#%#:#Y+Y+2+                    ",
"                              9.S.s#& k p s.f.++t#].)@`.*.t.u#h@h+a+v@c# #d#c@L@F+o+1+v@g+j@*@b@3+j+Y+]+v#M+}@w#v@H+G+j+                    ",
"                                  k 8 q j 2 l J X@6@!@x#F.y#z#X+a+b@6+S+A#B#C#j+E+1+h@h@D#n@4@R@a+i+c+v#E#]#2#3+o+I+                        ",
"                                      F#F j q B q E m.++G#H#e@I#J#K#Q+L#M#J+a+)#J+D+6#.#N#O#^@(+P#Q#;#R#I#c@J+o+:@                          ",
"                                          P M S#k y 9 2 T#U#e+L#I@e@`+V#m+G+v@2+h+W#.#L# @]#e#z#b#H+S@!#g+m@o+J+                            ",
"                                              9 2 % [ [ ! X#Y#~#Z#e@g#b@m@j+h+&@-#g#7#-#|@b#G+Y+1+J+`#&@&@:@                                ",
"                                                ! q 2 < F B B  $W+t@[+1+&@G+(@/@.$:+%@+$n#H+a+8@h@h+n+o+                                    ",
"                                                    p s.t t 2 J 3.1+[+W+S@Q@$#z#m+l+Y+a+)#g+(@|@H@G+                                        ",
"                                                        2 q J ! >.*.w#@$C+~#l+3+G+1+l+b@#$B+V#$$U+                                          ",
"                                                            [ f#! 0 =.%$F@G+j+F+j+m@&$T@[@*$$$(+                                            ",
"                                                                t I =$I -$$+m@v@6+q@%#I@g#;#                                                ",
"                                                                      P b 3 ;$*@(+Z#>$:#                                                    ",
"                                                                            J P.,$S@                                                        ",
"                                                                                                                                            ",
"                                                                                                                                            ",
"                                                                                                                                            ",
"                                                                                                                                            ",
"                                                                                                                                            ",
"                                                                                                                                            "};
