/* XPM */
static char * field_mark_xpm[] = {
"50 50 2 1",
" 	c None",
".	c #D80000",
"                                                  ",
"                                                  ",
"                                                  ",
"                                                  ",
"                                                  ",
"                                                  ",
"                                                  ",
"                                                  ",
"                                                  ",
"                                                  ",
"                                                  ",
"                                                  ",
"                      ......                      ",
"                   ............                   ",
"                  ..............                  ",
"                ..................                ",
"               ....................               ",
"               ....................               ",
"              ......................              ",
"             ........................             ",
"             ........................             ",
"             ........................             ",
"            ..........................            ",
"            ..........................            ",
"            ..........................            ",
"            ..........................            ",
"            ..........................            ",
"            ..........................            ",
"             ........................             ",
"             ........................             ",
"             ........................             ",
"              ......................              ",
"               ....................               ",
"               ....................               ",
"                ..................                ",
"                  ..............                  ",
"                   ............                   ",
"                      ......                      ",
"                                                  ",
"                                                  ",
"                                                  ",
"                                                  ",
"                                                  ",
"                                                  ",
"                                                  ",
"                                                  ",
"                                                  ",
"                                                  ",
"                                                  ",
"                                                  "};
