/* XPM */
static char * field_black_xpm[] = {
"50 50 60 1",
" 	c None",
".	c #363434",
"+	c #333131",
"@	c #312F2F",
"#	c #302E2E",
"$	c #2F2D2D",
"%	c #2E2C2C",
"&	c #343232",
"*	c #2D2B2B",
"=	c #2A2929",
"-	c #272626",
";	c #262525",
">	c #252424",
",	c #242323",
"'	c #2B2A2A",
")	c #212020",
"!	c #1E1D1D",
"~	c #1C1C1C",
"{	c #1C1B1B",
"]	c #1B1A1A",
"^	c #323030",
"/	c #2C2A2A",
"(	c #232121",
"_	c #191818",
":	c #171616",
"<	c #161515",
"[	c #1F1E1E",
"}	c #1A1A1A",
"|	c #151414",
"1	c #131313",
"2	c #121111",
"3	c #101010",
"4	c #100F0F",
"5	c #292727",
"6	c #222121",
"7	c #1D1C1C",
"8	c #181818",
"9	c #141414",
"0	c #0F0E0E",
"a	c #0E0E0E",
"b	c #0D0D0D",
"c	c #0C0B0B",
"d	c #0B0B0B",
"e	c #0C0C0C",
"f	c #0A0A0A",
"g	c #090909",
"h	c #161616",
"i	c #131212",
"j	c #080808",
"k	c #070707",
"l	c #252525",
"m	c #121212",
"n	c #0F0F0F",
"o	c #343434",
"p	c #777777",
"q	c #111111",
"r	c #474747",
"s	c #ABABAB",
"t	c #272727",
"u	c #575757",
"                                                  ",
"                                                  ",
"                                                  ",
"                                                  ",
"                                                  ",
"                                                  ",
"                                                  ",
"                   .+@#$%%$#@+.                   ",
"                 &#*=-;>,,>;-=*#&                 ",
"               &#'-,)!~{]]{~!),-'#&               ",
"              ^/-(!]_:<<<<<<:_]!(-/^              ",
"            .#=,[}:|1234444321|:}[,=#.            ",
"           .#56789230abcddcba03298765#.           ",
"           #5)]:14aedddfggfdddea41:])5#           ",
"          ^=6]hi4bcfgggjkkjgggfcb4ih]6=^          ",
"         &/,7:i4edfgjkkkkkkkkjgfde4i:7,/&         ",
"         #-[814efdfkkkkkkkkkkkkjgfe418[-#         ",
"        &'(}94bd9llmkkkkkkkkkkkkjgdb49}('&        ",
"        #-!:2acnoppoekkkkkkkkkkkkjfca2:!-#        ",
"       .*,]|3efqrssrnkkkkkkkkkkkkkgfe3|],*.       ",
"       +=)_10dgdtuutfkkkkkkkkkkkkkjgd01_)=+       ",
"       @-!:2adgkfmmfkkkkkkkkkkkkkkkgda2:!-@       ",
"       #;~<3bdgkkkkkkkkkkkkkkkkkkkkgdb3<~;#       ",
"       $>{<4cfjkkkkkkkkkkkkkkkkkkkkjfc4<{>$       ",
"       %,]<4dgkkkkkkkkkkkkkkkkkkkkkkgd4<],%       ",
"       %,]<4dgkkkkkkkkkkkkkkkkkkkkkkgd4<],%       ",
"       $>{<4cfjkkkkkkkkkkkkkkkkkkkkjfc4<{>$       ",
"       #;~<3bdgkkkkkkkkkkkkkkkkkkkkgdb3<~;#       ",
"       @-!:2adgkkkkkkkkkkkkkkkkkkkkgda2:!-@       ",
"       +=)_10dgjkkkkkkkkkkkkkkkkkkjgd01_)=+       ",
"       .*,]|3efgkkkkkkkkkkkkkkkkkkgfe3|],*.       ",
"        #-!:2acfjkkkkkkkkkkkkkkkkjfca2:!-#        ",
"        &'(}94bdgjkkkkkkkkkkkkkkjgdb49}('&        ",
"         #-[814efgjkkkkkkkkkkkkjgfe418[-#         ",
"         &/,7:i4edfgjkkkkkkkkjgfde4i:7,/&         ",
"          ^=6]hi4bcfgggjkkjgggfcb4ih]6=^          ",
"           #5)]:14aedddfggfdddea41:])5#           ",
"           .#56789230abcddcba03298765#.           ",
"            .#=,[}:|1234444321|:}[,=#.            ",
"              ^/-(!]_:<<<<<<:_]!(-/^              ",
"               &#'-,)!~{]]{~!),-'#&               ",
"                 &#*=-;>,,>;-=*#&                 ",
"                   .+@#$%%$#@+.                   ",
"                                                  ",
"                                                  ",
"                                                  ",
"                                                  ",
"                                                  ",
"                                                  ",
"                                                  "};
