/* XPM */
static char * stone_grey_xpm[] = {
"50 50 80 1",
" 	c None",
".	c #515151",
"+	c #565757",
"@	c #585858",
"#	c #575858",
"$	c #5F6060",
"%	c #666767",
"&	c #6A6B6B",
"*	c #6D6E6E",
"=	c #6E7070",
"-	c #6F7171",
";	c #505050",
">	c #5D5D5D",
",	c #676868",
"'	c #727575",
")	c #767979",
"!	c #787B7B",
"~	c #787C7C",
"{	c #797C7C",
"]	c #7A7D7D",
"^	c #5B5C5C",
"/	c #707272",
"(	c #767878",
"_	c #7A7E7E",
":	c #7B7F7F",
"<	c #7B8080",
"[	c #7C8080",
"}	c #535353",
"|	c #636464",
"1	c #7A8080",
"2	c #7A7F7F",
"3	c #797F7F",
"4	c #686969",
"5	c #797E7E",
"6	c #777D7D",
"7	c #767D7D",
"8	c #696B6B",
"9	c #757777",
"0	c #7C7F7F",
"a	c #787E7E",
"b	c #757C7C",
"c	c #757B7B",
"d	c #747B7B",
"e	c #767C7C",
"f	c #747A7A",
"g	c #737A7A",
"h	c #727979",
"i	c #717979",
"j	c #717878",
"k	c #707878",
"l	c #707777",
"m	c #6F7777",
"n	c #6F7676",
"o	c #727A7A",
"p	c #6E7676",
"q	c #787F7F",
"r	c #7C8383",
"s	c #7E8484",
"t	c #7D8484",
"u	c #798080",
"v	c #6D7575",
"w	c #787D7D",
"x	c #808686",
"y	c #8C9191",
"z	c #969B9B",
"A	c #959A9A",
"B	c #899090",
"C	c #7B8383",
"D	c #777E7E",
"E	c #A7ABAB",
"F	c #BDC0C0",
"G	c #A5AAAA",
"H	c #898F8F",
"I	c #DFE0E0",
"J	c #949A9A",
"K	c #7B8282",
"L	c #959B9B",
"M	c #737B7B",
"N	c #A6ABAB",
"O	c #727878",
"                                                  ",
"                                                  ",
"                                                  ",
"                                                  ",
"                     .+@@@@+.                     ",
"                  #$%&*=--=*&%$#                  ",
"               ;>,*')!~{]]{~!)'*,>;               ",
"              ^,/({_:<<[<<[<<:_{(/,^              ",
"            }|=(]:[<<12233221<<[:](=|}            ",
"           @4'~:[<13566677666531<[:~'4@           ",
"          @89]0<13a7bcddddddcb7a31<0]98@          ",
"         @89_[<2aecfghijjjjihgfcea2<[_98@         ",
"        }49_[<56bghijklmnnmlkjihgb65<[_94}        ",
"        |'][<566efojnnnppppnnnlkjgc75<[]'|        ",
"       ^=~0<56qrstuomppvvvvppppmljgd75<0~=^       ",
"      ;,(:<2w3xyzABCipvvvvvvvvppnljgc62<:(,;      ",
"      >/][1aDryEFFGHDmvvvvvvvvvvppljgba1[]/>      ",
"      ,(:<3eeszFIIFJKkvvvvvvvvvvvpnljge3<:(,      ",
"     #*{[1acctLFIIFJKkvvvvvvvvvvvvpmkhca1[{*#     ",
"     $'_<37fM1BNFFGHDmvvvvvvvvvvvvpplif73<_'$     ",
"     %):<5bgOgCHJJHKipvvvvvvvvvvvvvpnjgb5<:)%     ",
"    .&!<16chkloDKKDipvvvvvvvvvvvvvvpnkhc61<!&.    ",
"    +*~<26dilnmmkkmpvvvvvvvvvvvvvvvpnlid62<~*+    ",
"    @={[26djmpvvvvvvvvvvvvvvvvvvvvvvpmjd62[{=@    ",
"    @-]<37djnpvvvvvvvvvvvvvvvvvvvvvvpnjd73<]-@    ",
"    @-]<37djnpvvvvvvvvvvvvvvvvvvvvvvpnjd73<]-@    ",
"    @={[26djmpvvvvvvvvvvvvvvvvvvvvvvpmjd62[{=@    ",
"    +*~<26dilnpvvvvvvvvvvvvvvvvvvvvpnlid62<~*+    ",
"    .&!<16chknpvvvvvvvvvvvvvvvvvvvvpnkhc61<!&.    ",
"     %):<5bgjnpvvvvvvvvvvvvvvvvvvvvpnjgb5<:)%     ",
"     $'_<37filppvvvvvvvvvvvvvvvvvvpplif73<_'$     ",
"     #*{[1achkmpvvvvvvvvvvvvvvvvvvpmkhca1[{*#     ",
"      ,(:<3egjlnpvvvvvvvvvvvvvvvvpnljge3<:(,      ",
"      >/][1abgjlppvvvvvvvvvvvvvvppljgba1[]/>      ",
"      ;,(:<26cgjlnppvvvvvvvvvvppnljgc62<:(,;      ",
"       ^=~0<57dgjlmppppvvvvppppmljgd75<0~=^       ",
"        |'][<57cgjklnnnppppnnnlkjgc75<[]'|        ",
"        }49_[<56bghijklmnnmlkjihgb65<[_94}        ",
"         @89_[<2aecfghijjjjihgfcea2<[_98@         ",
"          @89]0<13a7bcddddddcb7a31<0]98@          ",
"           @4'~:[<13566677666531<[:~'4@           ",
"            }|=(]:[<<12233221<<[:](=|}            ",
"              ^,/({_:<<[<<[<<:_{(/,^              ",
"               ;>,*')!~{]]{~!)'*,>;               ",
"                  #$%&*=--=*&%$#                  ",
"                     .+@@@@+.                     ",
"                                                  ",
"                                                  ",
"                                                  ",
"                                                  "};
