/* XPM */
static char * stone_mark_xpm[] = {
"50 50 36 1",
" 	c None",
".	c #B8FCB2",
"+	c #97FC8E",
"@	c #78FB6D",
"#	c #72FB66",
"$	c #84FC7A",
"%	c #AEFCA8",
"&	c #8CFC83",
"*	c #4DFA3E",
"=	c #2AFA18",
"-	c #19F906",
";	c #16F902",
">	c #20F90E",
",	c #37FA26",
"'	c #6AFA5E",
")	c #AEFDA7",
"!	c #7DFB73",
"~	c #2FF91E",
"{	c #14F900",
"]	c #1EF90B",
"^	c #51FA43",
"/	c #A7FCA0",
"(	c #15F901",
"_	c #58FA4A",
":	c #23F910",
"<	c #85FB7B",
"[	c #18F904",
"}	c #5EFB51",
"|	c #40FA30",
"1	c #3AFA2B",
"2	c #4CFA3E",
"3	c #1AF907",
"4	c #74FB69",
"5	c #38F927",
"6	c #95FC8D",
"7	c #29F918",
"                                                  ",
"                                                  ",
"                                                  ",
"                                                  ",
"                                                  ",
"                                                  ",
"                                                  ",
"                                                  ",
"                                                  ",
"                                                  ",
"                                                  ",
"                                                  ",
"                                                  ",
"                                                  ",
"                                                  ",
"                                                  ",
"                                                  ",
"                                                  ",
"                      .+@#$%                      ",
"                     &*=-;>,')                    ",
"                    !~;{{{{{]^/                   ",
"                   &~({{{{{{{-_                   ",
"                  .*;{{{{{{{{{:<                  ",
"                  +={{{{{{{{{{[}                  ",
"                  @-{{{{{{{{{{(|                  ",
"                  #;{{{{{{{{{{{1                  ",
"                  $>{{{{{{{{{{;2                  ",
"                  %,{{{{{{{{{{34                  ",
"                   ']{{{{{{{{(56                  ",
"                   )^-{{{{{{(7$                   ",
"                    /_:[({;35$                    ",
"                      <}|1246                     ",
"                                                  ",
"                                                  ",
"                                                  ",
"                                                  ",
"                                                  ",
"                                                  ",
"                                                  ",
"                                                  ",
"                                                  ",
"                                                  ",
"                                                  ",
"                                                  ",
"                                                  ",
"                                                  ",
"                                                  ",
"                                                  ",
"                                                  ",
"                                                  "};
