/* XPM */
static char * stone_white_xpm[] = {
"50 50 146 2",
"  	c None",
". 	c #615D5D",
"+ 	c #686464",
"@ 	c #6D6969",
"# 	c #716C6C",
"$ 	c #736E6E",
"% 	c #635F5F",
"& 	c #7A7575",
"* 	c #847F7F",
"= 	c #8B8585",
"- 	c #8D8888",
"; 	c #918B8B",
"> 	c #948E8E",
", 	c #747070",
"' 	c #837D7D",
") 	c #8E8989",
"! 	c #989292",
"~ 	c #9F9999",
"{ 	c #A49E9E",
"] 	c #A69F9F",
"^ 	c #A9A2A2",
"/ 	c #ABA5A5",
"( 	c #5D5959",
"_ 	c #928C8C",
": 	c #9D9797",
"< 	c #A7A0A0",
"[ 	c #ADA6A6",
"} 	c #B3ABAB",
"| 	c #B8B1B1",
"1 	c #BAB2B2",
"2 	c #BBB4B4",
"3 	c #BDB6B6",
"4 	c #656161",
"5 	c #7A7676",
"6 	c #B2ABAB",
"7 	c #C2BABA",
"8 	c #C6BEBE",
"9 	c #C8C0C0",
"0 	c #C9C1C1",
"a 	c #CAC2C2",
"b 	c #B1AAAA",
"c 	c #A8A1A1",
"d 	c #9C9696",
"e 	c #676363",
"f 	c #817C7C",
"g 	c #979292",
"h 	c #B4AEAE",
"i 	c #BCB6B6",
"j 	c #C2BBBB",
"k 	c #C6BFBF",
"l 	c #CCC4C4",
"m 	c #CFC7C7",
"n 	c #D1C8C8",
"o 	c #C5BDBD",
"p 	c #BFB7B7",
"q 	c #AFA8A8",
"r 	c #A39C9C",
"s 	c #807B7B",
"t 	c #9A9494",
"u 	c #BDB7B7",
"v 	c #C8C2C2",
"w 	c #CEC8C8",
"x 	c #D1CACA",
"y 	c #D3CBCB",
"z 	c #D5CDCD",
"A 	c #D7CECE",
"B 	c #D8CFCF",
"C 	c #D2C9C9",
"D 	c #C4BCBC",
"E 	c #BCB5B5",
"F 	c #969090",
"G 	c #999494",
"H 	c #B0A9A9",
"I 	c #C2BDBD",
"J 	c #D2CDCD",
"K 	c #DBD6D6",
"L 	c #DEDADA",
"M 	c #DED9D9",
"N 	c #DCD5D5",
"O 	c #DAD2D2",
"P 	c #DAD1D1",
"Q 	c #DCD3D3",
"R 	c #DDD4D4",
"S 	c #D9D0D0",
"T 	c #D2CACA",
"U 	c #CDC5C5",
"V 	c #C7BFBF",
"W 	c #C0B8B8",
"X 	c #B5AEAE",
"Y 	c #958F8F",
"Z 	c #ACA5A5",
"` 	c #BFB9B9",
" .	c #D3CDCD",
"..	c #E2DEDE",
"+.	c #EAE8E8",
"@.	c #EBE9E9",
"#.	c #E8E4E4",
"$.	c #E3DDDD",
"%.	c #DFD8D8",
"&.	c #DED6D6",
"*.	c #DED5D5",
"=.	c #DFD6D6",
"-.	c #DBD3D3",
";.	c #C1B9B9",
">.	c #A49D9D",
",.	c #B8B0B0",
"'.	c #CBC4C4",
").	c #DDD8D8",
"!.	c #F2F1F1",
"~.	c #F3F2F2",
"{.	c #EEEBEB",
"].	c #E7E2E2",
"^.	c #E3DBDB",
"/.	c #E0D8D8",
"(.	c #E0D7D7",
"_.	c #E1D8D8",
":.	c #D4CCCC",
"<.	c #D0C7C7",
"[.	c #C0BABA",
"}.	c #D0CACA",
"|.	c #DFDBDB",
"1.	c #ECE9E9",
"2.	c #EEECEC",
"3.	c #E8E3E3",
"4.	c #E3DCDC",
"5.	c #E1D9D9",
"6.	c #E2D9D9",
"7.	c #B8B2B2",
"8.	c #DFD9D9",
"9.	c #EFECEC",
"0.	c #EBE7E7",
"a.	c #E7E1E1",
"b.	c #E4DCDC",
"c.	c #E3DADA",
"d.	c #D5CECE",
"e.	c #DED7D7",
"f.	c #E3DEDE",
"g.	c #E8E2E2",
"h.	c #E9E3E3",
"i.	c #E6DFDF",
"j.	c #E2DADA",
"k.	c #D6CECE",
"l.	c #DCD4D4",
"m.	c #E4DDDD",
"n.	c #E5DDDD",
"o.	c #DFD7D7",
"                                                                                                    ",
"                                                                                                    ",
"                                                                                                    ",
"                                                                                                    ",
"                                                                                                    ",
"                                        . + @ # $ $ # @ + .                                         ",
"                                  % @ & * = - ; > > ; - = * & @ %                                   ",
"                              % , ' ) ! ~ { ] ^ / / ^ ] { ~ ! ) ' , %                               ",
"                          ( # ' _ : < [ } | 1 2 3 3 2 1 | } [ < : _ ' # (                           ",
"                        4 5 ) : ^ 6 | 3 7 8 9 0 a a 0 9 8 7 3 | b c d - & 4                         ",
"                      e f g c h i j k a l m n n n n n n m l a o p | q r > s e                       ",
"                    e f t q u v w x y y y z A B B B B A z y C m a D E } < F s e                     ",
"                  4 s G H I J K L M N O P P O Q R R Q O P S A z T U V W X c F s 4                   ",
"                ( & Y Z `  ...+.@.#.$.%.&.R R *.=.=.*.R R R -.P B y m a ;.X < > & (                 ",
"                # - >.,.'.).+.!.~.{.].^./.=.=.(._._.(.=.=.=.*.Q O B :.<.a W } r - #                 ",
"              % ' d H [.}.|.1.~.~.2.3.4.5._._.6.6.6.6._._.(.=.*.R -.B :.m V E q d ' %               ",
"              , _ c 7.V  .8.#.{.9.0.a.b.c.6.6.6.6.6.6.6.6.6._.(.=.*.-.B y U D | c _ ,               ",
"            % ' : b p '.d.e.f.g.h.a.i.b.j.6.6.6.6.6.6.6.6.6.6.6.(.=.R O B T a p b : ' %             ",
"            @ ) < | o m k.l./.^.m.n.b.j.6.6.6.6.6.6.6.6.6.6.6.6.6.(.*.Q P z m o | < ) @             ",
"            & ! [ 3 a C A l.o./.j.c.j.6.6.6.6.6.6.6.6.6.6.6.6.6.6._.=.*.-.A C a 3 [ ! &             ",
"          . * ~ } 7 l y S R =.(.6.6.6.6.6.6.6.6.6.6.6.6.6.6.6.6.6.6.(.=.R S y l 7 } ~ * .           ",
"          + = { | 8 m z P R =._.6.6.6.6.6.6.6.6.6.6.6.6.6.6.6.6.6.6._.=.R P z m 8 | { = +           ",
"          @ - ] 1 9 n A O R =._.6.6.6.6.6.6.6.6.6.6.6.6.6.6.6.6.6.6._.=.R O A n 9 1 ] - @           ",
"          # ; ^ 2 0 n B Q *.(.6.6.6.6.6.6.6.6.6.6.6.6.6.6.6.6.6.6.6.6.(.*.Q B n 0 2 ^ ; #           ",
"          $ > / 3 a n B R =._.6.6.6.6.6.6.6.6.6.6.6.6.6.6.6.6.6.6.6.6._.=.R B n a 3 / > $           ",
"          $ > / 3 a n B R =._.6.6.6.6.6.6.6.6.6.6.6.6.6.6.6.6.6.6.6.6._.=.R B n a 3 / > $           ",
"          # ; ^ 2 0 n B Q *.(.6.6.6.6.6.6.6.6.6.6.6.6.6.6.6.6.6.6.6.6.(.*.Q B n 0 2 ^ ; #           ",
"          @ - ] 1 9 n A O R =._.6.6.6.6.6.6.6.6.6.6.6.6.6.6.6.6.6.6._.=.R O A n 9 1 ] - @           ",
"          + = { | 8 m z P R =._.6.6.6.6.6.6.6.6.6.6.6.6.6.6.6.6.6.6._.=.R P z m 8 | { = +           ",
"          . * ~ } 7 l y S R =.(.6.6.6.6.6.6.6.6.6.6.6.6.6.6.6.6.6.6.(.=.R S y l 7 } ~ * .           ",
"            & ! [ 3 a C A -.*.=._.6.6.6.6.6.6.6.6.6.6.6.6.6.6.6.6._.=.*.-.A C a 3 [ ! &             ",
"            @ ) < | o m z P Q *.(.6.6.6.6.6.6.6.6.6.6.6.6.6.6.6.6.(.*.Q P z m o | < ) @             ",
"            % ' : b p a T B O R =.(.6.6.6.6.6.6.6.6.6.6.6.6.6.6.(.=.R O B T a p b : ' %             ",
"              , _ c | D U y B -.*.=.(._.6.6.6.6.6.6.6.6.6.6._.(.=.*.-.B y U D | c _ ,               ",
"              % ' d q E V m :.B -.R *.=.(._._.6.6.6.6._._.(.=.*.R -.B :.m V E q d ' %               ",
"                # - r } W a <.:.B O Q *.=.=.=.(._._.(.=.=.=.*.Q O B :.<.a W } r - #                 ",
"                ( & > < X ;.a m y B P -.R R R *.=.=.*.R R R -.P B y m a ;.X < > & (                 ",
"                  4 s F c X W V U T z A S P O Q R R Q O P S A z T U V W X c F s 4                   ",
"                    e s F < } E D a m C y z A B B B B A z y C m a D E } < F s e                     ",
"                      e s > r q | p o a l m n n n n n n m l a o p | q r > s e                       ",
"                        4 & - d c b | 3 7 8 9 0 a a 0 9 8 7 3 | b c d - & 4                         ",
"                          ( # ' _ : < [ } | 1 2 3 3 2 1 | } [ < : _ ' # (                           ",
"                              % , ' ) ! ~ { ] ^ / / ^ ] { ~ ! ) ' , %                               ",
"                                  % @ & * = - ; > > ; - = * & @ %                                   ",
"                                        . + @ # $ $ # @ + .                                         ",
"                                                                                                    ",
"                                                                                                    ",
"                                                                                                    ",
"                                                                                                    ",
"                                                                                                    "};
