/* XPM */
static char * field_removed_xpm[] = {
"100 100 2 1",
" 	c None",
".	c #FFFFFF",
"                                               .......                                              ",
"                                              .........                                             ",
"                                            .............                                           ",
"                                          .................                                         ",
"                                         ...................                                        ",
"                                       .......................                                      ",
"                                     ...........................                                    ",
"                                   ...............................                                  ",
"                                  .................................                                 ",
"                                .....................................                               ",
"                              .........................................                             ",
"                            .............................................                           ",
"                           ...............................................                          ",
"                         ...................................................                        ",
"                       .......................................................                      ",
"                     ...........................................................                    ",
"                    .............................................................                   ",
"                  .................................................................                 ",
"                .....................................................................               ",
"               .......................................................................              ",
"             ...........................................................................            ",
"           ...............................................................................          ",
"         ...................................................................................        ",
"        .....................................................................................       ",
"      .........................................................................................     ",
"      .........................................................................................     ",
"      .........................................................................................     ",
"      .........................................................................................     ",
"      .........................................................................................     ",
"      .........................................................................................     ",
"      .........................................................................................     ",
"      .........................................................................................     ",
"      .........................................................................................     ",
"      .........................................................................................     ",
"      .........................................................................................     ",
"      .........................................................................................     ",
"      .........................................................................................     ",
"      .........................................................................................     ",
"      .........................................................................................     ",
"      .........................................................................................     ",
"      .........................................................................................     ",
"      .........................................................................................     ",
"      .........................................................................................     ",
"      .........................................................................................     ",
"      .........................................................................................     ",
"      .........................................................................................     ",
"      .........................................................................................     ",
"      .........................................................................................     ",
"      .........................................................................................     ",
"      .........................................................................................     ",
"      .........................................................................................     ",
"      .........................................................................................     ",
"      .........................................................................................     ",
"      .........................................................................................     ",
"      .........................................................................................     ",
"      .........................................................................................     ",
"      .........................................................................................     ",
"      .........................................................................................     ",
"      .........................................................................................     ",
"      .........................................................................................     ",
"      .........................................................................................     ",
"      .........................................................................................     ",
"      .........................................................................................     ",
"      .........................................................................................     ",
"      .........................................................................................     ",
"      .........................................................................................     ",
"      .........................................................................................     ",
"      .........................................................................................     ",
"      .........................................................................................     ",
"      .........................................................................................     ",
"      .........................................................................................     ",
"      .........................................................................................     ",
"      .........................................................................................     ",
"      .........................................................................................     ",
"      .........................................................................................     ",
"      .........................................................................................     ",
"      .........................................................................................     ",
"        .....................................................................................       ",
"         ...................................................................................        ",
"           ...............................................................................          ",
"             ...........................................................................            ",
"               .......................................................................              ",
"                .....................................................................               ",
"                  .................................................................                 ",
"                    .............................................................                   ",
"                     ...........................................................                    ",
"                       .......................................................                      ",
"                         ...................................................                        ",
"                           ...............................................                          ",
"                            .............................................                           ",
"                              .........................................                             ",
"                                .....................................                               ",
"                                  .................................                                 ",
"                                   ...............................                                  ",
"                                     ...........................                                    ",
"                                       .......................                                      ",
"                                         ...................                                        ",
"                                          .................                                         ",
"                                            .............                                           ",
"                                              .........                                             "};
