/* XPM */
static char * click_mark_xpm[] = {
"50 50 15 1",
" 	c None",
".	c #FDEBE9",
"+	c #F9C6BF",
"@	c #F6A99F",
"#	c #F59A8E",
"$	c #FEF5F4",
"%	c #FACCC6",
"&	c #F48E80",
"*	c #EF5D49",
"=	c #EC4029",
"-	c #EA3119",
";	c #F8BBB3",
">	c #F06755",
",	c #EB3921",
"'	c #EA2E15",
"                                                  ",
"                                                  ",
"                                                  ",
"                                                  ",
"                                                  ",
"                                                  ",
"                                                  ",
"                                                  ",
"                                                  ",
"                                                  ",
"                                                  ",
"                                                  ",
"                                                  ",
"                                                  ",
"                                                  ",
"                                                  ",
"                                                  ",
"                      .+@##@+.                    ",
"                    $%&*=--=*&%$                  ",
"                   $;>,'''''',>;$                 ",
"                   %>-''''''''->%                 ",
"                  .&,'''''''''',&.                ",
"                  +*''''''''''''*+                ",
"                  @=''''''''''''=@                ",
"                  #-''''''''''''-#                ",
"                  #-''''''''''''-#                ",
"                  @=''''''''''''=@                ",
"                  +*''''''''''''*+                ",
"                  .&,'''''''''',&.                ",
"                   %>-''''''''->%                 ",
"                   $;>,'''''',>;$                 ",
"                    $%&*=--=*&%$                  ",
"                      .+@##@+.                    ",
"                                                  ",
"                                                  ",
"                                                  ",
"                                                  ",
"                                                  ",
"                                                  ",
"                                                  ",
"                                                  ",
"                                                  ",
"                                                  ",
"                                                  ",
"                                                  ",
"                                                  ",
"                                                  ",
"                                                  ",
"                                                  ",
"                                                  "};
