/* XPM */
static char * field_white_xpm[] = {
"50 50 603 2",
"  	c None",
". 	c #9D9998",
"+ 	c #585655",
"@ 	c #7A7877",
"# 	c #9A9894",
"$ 	c #A09E9C",
"% 	c #A5A2A0",
"& 	c #777574",
"* 	c #626262",
"= 	c #6B6A69",
"- 	c #928E8B",
"; 	c #ABA7A4",
"> 	c #B4B1AE",
", 	c #A8A4A2",
"' 	c #AEAAA7",
") 	c #9D9895",
"! 	c #9F9A99",
"~ 	c #6D6A69",
"{ 	c #6A6867",
"] 	c #6E6C6C",
"^ 	c #777474",
"/ 	c #A8A5A1",
"( 	c #B4B0AD",
"_ 	c #B8B4B0",
": 	c #ACA8A6",
"< 	c #A7A4A3",
"[ 	c #B0ACA9",
"} 	c #ACA8A4",
"| 	c #B5B2AE",
"1 	c #6B6967",
"2 	c #6C6B69",
"3 	c #686666",
"4 	c #6E6C6B",
"5 	c #777473",
"6 	c #ADACAB",
"7 	c #A3A09E",
"8 	c #B1AEAA",
"9 	c #ADA9A7",
"0 	c #BAB6B0",
"a 	c #B2AEAA",
"b 	c #A3A19F",
"c 	c #BCB8B4",
"d 	c #BCB9B5",
"e 	c #BEBBB7",
"f 	c #AAA9A7",
"g 	c #646262",
"h 	c #6E6D6B",
"i 	c #6F6E6D",
"j 	c #706F6E",
"k 	c #656464",
"l 	c #9F9E9C",
"m 	c #A39E9B",
"n 	c #B3B0AE",
"o 	c #BAB6B2",
"p 	c #BEBAB6",
"q 	c #BDB9B5",
"r 	c #BEBAB5",
"s 	c #BCB8B3",
"t 	c #A6A2A0",
"u 	c #AAA4A2",
"v 	c #A19C9E",
"w 	c #B5B1AE",
"x 	c #A8A5A2",
"y 	c #B0ABA8",
"z 	c #ADAAAA",
"A 	c #767472",
"B 	c #716F6E",
"C 	c #747372",
"D 	c #615F5E",
"E 	c #696766",
"F 	c #A19C9C",
"G 	c #B1B2B0",
"H 	c #A09B9A",
"I 	c #ABA8A6",
"J 	c #9C9796",
"K 	c #A29D9A",
"L 	c #C1BDBA",
"M 	c #AFABA8",
"N 	c #C1BEB9",
"O 	c #A5A3A1",
"P 	c #A39E9C",
"Q 	c #A29E9D",
"R 	c #9F9D9C",
"S 	c #A59F9D",
"T 	c #BDB9B4",
"U 	c #686665",
"V 	c #6F6E6C",
"W 	c #706E6C",
"X 	c #5D5B5A",
"Y 	c #979492",
"Z 	c #A4A09E",
"` 	c #C6C2BE",
" .	c #A4A09D",
"..	c #AAA7A6",
"+.	c #ADACAA",
"@.	c #A49F9E",
"#.	c #A6A2A2",
"$.	c #AAA8A6",
"%.	c #A4A09F",
"&.	c #B2AEAB",
"*.	c #BDB9B6",
"=.	c #AAA5A3",
"-.	c #A29E9C",
";.	c #A5A2A1",
">.	c #9A9492",
",.	c #ACAAA8",
"'.	c #B4B0AE",
").	c #9B9695",
"!.	c #BBB7B1",
"~.	c #B5B6B5",
"{.	c #727170",
"].	c #747270",
"^.	c #6C6B6A",
"/.	c #5C5A59",
"(.	c #9A9793",
"_.	c #BFBBB8",
":.	c #BFBEBC",
"<.	c #C6C1BC",
"[.	c #CCC8C2",
"}.	c #CCC8C4",
"|.	c #A5A09F",
"1.	c #A6A1A0",
"2.	c #A8A4A1",
"3.	c #B5B1AC",
"4.	c #A29F9E",
"5.	c #B2AEAC",
"6.	c #A19C9B",
"7.	c #A6A3A2",
"8.	c #A9A6A5",
"9.	c #B0AEAC",
"0.	c #ACA8A5",
"a.	c #C1BDB8",
"b.	c #646361",
"c.	c #6C6A68",
"d.	c #72716F",
"e.	c #7C7977",
"f.	c #8B8786",
"g.	c #BBB7B4",
"h.	c #CFCBC6",
"i.	c #B1AEAD",
"j.	c #CFCCC7",
"k.	c #D2CECA",
"l.	c #D0CCC7",
"m.	c #A8A5A3",
"n.	c #A09C9B",
"o.	c #C2BEBB",
"p.	c #AFACAA",
"q.	c #A7A4A2",
"r.	c #B0AFAC",
"s.	c #A6A19F",
"t.	c #A49F9D",
"u.	c #B0AEAD",
"v.	c #A7A2A0",
"w.	c #AFAAA8",
"x.	c #BAB7B4",
"y.	c #C2BEB9",
"z.	c #BAB7B2",
"A.	c #A39E9D",
"B.	c #A6A4A2",
"C.	c #A5A3A2",
"D.	c #686667",
"E.	c #848280",
"F.	c #A7A3A0",
"G.	c #B3AEAC",
"H.	c #B7B2B0",
"I.	c #A69F9E",
"J.	c #B9B3B0",
"K.	c #ADA8A6",
"L.	c #ACA5A4",
"M.	c #CECAC5",
"N.	c #CAC5C0",
"O.	c #D1CDC8",
"P.	c #CBC7C2",
"Q.	c #ABA6A4",
"R.	c #A8A3A1",
"S.	c #A39F9D",
"T.	c #B9B6B3",
"U.	c #B6B1AD",
"V.	c #B2AEAD",
"W.	c #9E9998",
"X.	c #B6B2AE",
"Y.	c #ABA9A8",
"Z.	c #A29D9B",
"`.	c #AAA6A6",
" +	c #B4B0AC",
".+	c #AFADAC",
"++	c #6D6C6A",
"@+	c #7E7B78",
"#+	c #AEABA7",
"$+	c #B9B8B6",
"%+	c #B0AAA8",
"&+	c #A39D9C",
"*+	c #B7B4B2",
"=+	c #C0BBB7",
"-+	c #CECAC4",
";+	c #CBC7C1",
">+	c #CAC6C2",
",+	c #BAB5B1",
"'+	c #ADA9A6",
")+	c #B0AAA7",
"!+	c #A09A98",
"~+	c #A5A1A0",
"{+	c #AAA6A4",
"]+	c #9F9998",
"^+	c #A9A8A6",
"/+	c #A09A99",
"(+	c #A5A09E",
"_+	c #B3B0AC",
":+	c #A39D9B",
"<+	c #A19D9C",
"[+	c #999795",
"}+	c #AEA9A6",
"|+	c #BFBAB5",
"1+	c #C9C5C1",
"2+	c #C0BCB8",
"3+	c #B0AAA9",
"4+	c #CDC8C4",
"5+	c #C1BCB8",
"6+	c #BCBAB7",
"7+	c #BCB9B8",
"8+	c #B6B1AE",
"9+	c #C0BDBB",
"0+	c #CDC9C3",
"a+	c #CDCAC5",
"b+	c #B2AFAD",
"c+	c #A9A4A2",
"d+	c #9C9594",
"e+	c #AAA7A5",
"f+	c #AEACAB",
"g+	c #B6B4B2",
"h+	c #AEAAA8",
"i+	c #A9A4A3",
"j+	c #ACA9A8",
"k+	c #ABAAA9",
"l+	c #B2ADAB",
"m+	c #B5B0AD",
"n+	c #C2BEBA",
"o+	c #C8C3C0",
"p+	c #B1AFAE",
"q+	c #CECAC6",
"r+	c #B5B3B1",
"s+	c #B7B5B3",
"t+	c #C0BEBE",
"u+	c #B3AFAC",
"v+	c #BDB8B5",
"w+	c #CEC9C4",
"x+	c #D1CCC7",
"y+	c #B3AEAB",
"z+	c #AEAAAA",
"A+	c #AFAFAD",
"B+	c #B0ADAB",
"C+	c #ADABA9",
"D+	c #A6A29F",
"E+	c #9E9896",
"F+	c #A8A4A3",
"G+	c #A39F9E",
"H+	c #B2B1AF",
"I+	c #B4B2B0",
"J+	c #BAB8B6",
"K+	c #AAA5A4",
"L+	c #A49E9D",
"M+	c #B4B2B1",
"N+	c #B7B6B3",
"O+	c #BEB8B6",
"P+	c #B6B2B1",
"Q+	c #B2AFAE",
"R+	c #B2ADAA",
"S+	c #C0BEBC",
"T+	c #B1ABAA",
"U+	c #BFBDBC",
"V+	c #A9A1A0",
"W+	c #B9B4B1",
"X+	c #C4C0BC",
"Y+	c #B8B3B1",
"Z+	c #C2BDBA",
"`+	c #A8A3A2",
" @	c #AEABA9",
".@	c #AEABAA",
"+@	c #A8A5A4",
"@@	c #B4B3B2",
"#@	c #A19C9A",
"$@	c #ACA7A6",
"%@	c #B5B1AD",
"&@	c #BFBDBB",
"*@	c #C6C2BD",
"=@	c #BEB9B6",
"-@	c #B1ACA9",
";@	c #AEA8A6",
">@	c #B4AEAD",
",@	c #BEBAB7",
"'@	c #B1AAA8",
")@	c #B4AFAE",
"!@	c #BAB6B5",
"~@	c #B1ACAA",
"{@	c #C2C1BF",
"]@	c #B6B1B0",
"^@	c #BAB5B2",
"/@	c #BCB7B4",
"(@	c #B8B2B1",
"_@	c #B7B3AF",
":@	c #B9B6B2",
"<@	c #A6A09E",
"[@	c #ACA8A7",
"}@	c #ACA9A7",
"|@	c #ACA8A8",
"1@	c #A8A6A4",
"2@	c #AEACAA",
"3@	c #BFBAB7",
"4@	c #C0BCB9",
"5@	c #C9C4C0",
"6@	c #CEC9C5",
"7@	c #B5B2B1",
"8@	c #B9B6B4",
"9@	c #B9B4B4",
"0@	c #CAC9C7",
"a@	c #BCB8B6",
"b@	c #C4BFBB",
"c@	c #B5AFAC",
"d@	c #B9B4B3",
"e@	c #BDB8B4",
"f@	c #B6B5B4",
"g@	c #B1B0AE",
"h@	c #AFAEAD",
"i@	c #A7A1A0",
"j@	c #ADAAA9",
"k@	c #B1AEAE",
"l@	c #B0ACAB",
"m@	c #B6B2B0",
"n@	c #C0BBB8",
"o@	c #BAB7B5",
"p@	c #B9B6B6",
"q@	c #BCBAB8",
"r@	c #BAB4B4",
"s@	c #C1BFBE",
"t@	c #BAB5B4",
"u@	c #B7B1AE",
"v@	c #CAC7C2",
"w@	c #AAA8A8",
"x@	c #9D9897",
"y@	c #B8B3B0",
"z@	c #B8B4B3",
"A@	c #AFABAA",
"B@	c #B1AEAC",
"C@	c #B1AFAD",
"D@	c #AFACAB",
"E@	c #AEAAA9",
"F@	c #C3BFB9",
"G@	c #A29D9C",
"H@	c #ADA8A5",
"I@	c #B3B0AF",
"J@	c #B6B0AE",
"K@	c #B1ABA8",
"L@	c #B5B0AF",
"M@	c #D2CEC8",
"N@	c #BCB6B4",
"O@	c #BFBAB8",
"P@	c #B9B4B0",
"Q@	c #B8B4B2",
"R@	c #C6C6C4",
"S@	c #BAB4B2",
"T@	c #C3C1BF",
"U@	c #B4AEAC",
"V@	c #B9B3B1",
"W@	c #B7B3B0",
"X@	c #A6A0A0",
"Y@	c #ADA9A8",
"Z@	c #A49E9C",
"`@	c #B1ADAA",
" #	c #B2AFAC",
".#	c #B3ADAB",
"+#	c #BDB8B6",
"@#	c #A9A5A2",
"##	c #C3BFBB",
"$#	c #B9B6B5",
"%#	c #ACA6A4",
"&#	c #A9A3A1",
"*#	c #B2ACAB",
"=#	c #B6B0AF",
"-#	c #C0BEBD",
";#	c #BAB6B4",
">#	c #C3C0BF",
",#	c #BEBCBA",
"'#	c #BEBBB9",
")#	c #B1AAA9",
"!#	c #ABA6A6",
"~#	c #B5B0AE",
"{#	c #A9A5A4",
"]#	c #BABBB9",
"^#	c #C4C5C4",
"/#	c #BBB6B3",
"(#	c #ADA7A6",
"_#	c #ACA7A5",
":#	c #B9B4B2",
"<#	c #B1ADAB",
"[#	c #BCB7B5",
"}#	c #C4C2C0",
"|#	c #BBB8B8",
"1#	c #BFBBBA",
"2#	c #BBB8B6",
"3#	c #BAB4B3",
"4#	c #C1BEBD",
"5#	c #BCB6B3",
"6#	c #CAC6C4",
"7#	c #D5D0CB",
"8#	c #ACA7A4",
"9#	c #A29B9A",
"0#	c #BCBAB9",
"a#	c #BAB8B7",
"b#	c #B0ABAA",
"c#	c #CCC9C4",
"d#	c #B9B7B5",
"e#	c #AEA9A7",
"f#	c #B4B1B0",
"g#	c #C6C2BF",
"h#	c #AEA9A8",
"i#	c #C1BCB9",
"j#	c #B6B4B3",
"k#	c #CFCAC6",
"l#	c #CAC6C3",
"m#	c #BEB8B4",
"n#	c #B2ABAA",
"o#	c #C2BFBE",
"p#	c #C6C4C2",
"q#	c #BBB6B4",
"r#	c #BCB5B3",
"s#	c #D9D7D5",
"t#	c #DCDAD9",
"u#	c #DADBDA",
"v#	c #DAD9D8",
"w#	c #DFDEDD",
"x#	c #D7D5D4",
"y#	c #DFDEDE",
"z#	c #E0DDDB",
"A#	c #DFDDDC",
"B#	c #D5D2D2",
"C#	c #D6D3D2",
"D#	c #DAD7D5",
"E#	c #E2E0DE",
"F#	c #CBC6C1",
"G#	c #C4C0BA",
"H#	c #B7B6B4",
"I#	c #B4B0AF",
"J#	c #AFAAA9",
"K#	c #B8B5B3",
"L#	c #B2ACAC",
"M#	c #C6C1BB",
"N#	c #D9D5D0",
"O#	c #C1BCBB",
"P#	c #C5C3C1",
"Q#	c #BAB5B3",
"R#	c #C5C3C2",
"S#	c #BCB7B6",
"T#	c #C4C0BE",
"U#	c #EFECEB",
"V#	c #FFFFFF",
"W#	c #CBC8C4",
"X#	c #CCC7C3",
"Y#	c #B9B5B4",
"Z#	c #BAB6B3",
"`#	c #B7B2AF",
" $	c #C0BDBA",
".$	c #C9C5C0",
"+$	c #D0CCC5",
"@$	c #D4D0CC",
"#$	c #C6C1BE",
"$$	c #B7B2B1",
"%$	c #DDD9D4",
"&$	c #C7C2BF",
"*$	c #E1DDDA",
"=$	c #FFFFFE",
"-$	c #FFFEFD",
";$	c #C7C3BE",
">$	c #CDC9C4",
",$	c #B8B2B0",
"'$	c #DAD6D1",
")$	c #B3ACAC",
"!$	c #C7C6C4",
"~$	c #CFCBC7",
"{$	c #DFDAD6",
"]$	c #D9D4CE",
"^$	c #BBB6B2",
"/$	c #ADABAA",
"($	c #C8C4BF",
"_$	c #B8B3B2",
":$	c #C8C5C2",
"<$	c #C2BEBE",
"[$	c #F9F8F7",
"}$	c #FAF2F0",
"|$	c #C7C2BE",
"1$	c #BCB8B5",
"2$	c #C0BCBA",
"3$	c #C3BFBD",
"4$	c #D6D2CD",
"5$	c #D8D3CC",
"6$	c #C2BDBB",
"7$	c #C0BBBA",
"8$	c #B7B3B2",
"9$	c #CBCCCA",
"0$	c #DAD6D4",
"a$	c #D6D2CF",
"b$	c #B6B2AF",
"c$	c #BEBAB8",
"d$	c #CDC8C2",
"e$	c #C2BCBA",
"f$	c #CDCBC8",
"g$	c #C3C2C1",
"h$	c #C9C7C6",
"i$	c #C0BCBB",
"j$	c #FEFCFD",
"k$	c #FDF9F8",
"l$	c #B5B0B0",
"m$	c #BFBFBD",
"n$	c #CCC8C3",
"o$	c #C8C4C0",
"p$	c #C2BFBD",
"q$	c #C2C0BE",
"r$	c #BEBAB9",
"s$	c #D8D4D0",
"t$	c #CECECC",
"u$	c #EDEBEA",
"v$	c #FFFBFB",
"w$	c #FEF8F7",
"x$	c #FFFCFC",
"y$	c #B4B1AF",
"z$	c #C4C4C2",
"A$	c #D5D1CB",
"B$	c #D0CCC8",
"C$	c #BBB7B6",
"D$	c #C4C0BD",
"E$	c #CCC8C8",
"F$	c #B9B5B3",
"G$	c #C4C3C1",
"H$	c #BBB6B5",
"I$	c #D4D0CA",
"J$	c #AEA8A5",
"K$	c #C1C0BE",
"L$	c #BDB8B7",
"M$	c #A19D9A",
"N$	c #9C9896",
"O$	c #BCB8B7",
"P$	c #D6D2CC",
"Q$	c #BAB4B0",
"R$	c #B4ADAC",
"S$	c #C0BCBC",
"T$	c #C2BEBD",
"U$	c #EFEEED",
"V$	c #FFFDFC",
"W$	c #8E8888",
"X$	c #9E9B9A",
"Y$	c #97918F",
"Z$	c #AFADAB",
"`$	c #BBB8B7",
" %	c #C4BFBD",
".%	c #D6D1CD",
"+%	c #C7C5C3",
"@%	c #CFCBCA",
"#%	c #FFFAFA",
"$%	c #908C8B",
"%%	c #9D9B9A",
"&%	c #9A9593",
"*%	c #AAA5A2",
"=%	c #BDBAB8",
"-%	c #C6C2C1",
";%	c #F9F7FA",
">%	c #EBE7EF",
",%	c #989493",
"'%	c #999593",
")%	c #8C8684",
"!%	c #D2CDCA",
"~%	c #CBC8C7",
"{%	c #E8E6E5",
"]%	c #FFFDFD",
"^%	c #FCF8F8",
"/%	c #F0EDF3",
"(%	c #F1EFF4",
"_%	c #999695",
":%	c #9A9795",
"<%	c #A2A09E",
"[%	c #A6A5A4",
"}%	c #A39F9F",
"|%	c #BEBBB8",
"1%	c #CDCAC7",
"2%	c #FEFAFA",
"3%	c #9F9C9A",
"4%	c #9A9694",
"5%	c #A6A2A1",
"6%	c #D2D0CF",
"7%	c #95918F",
"8%	c #9F9C9B",
"9%	c #A09D9D",
"0%	c #9E9997",
"a%	c #E6E5E4",
"b%	c #FFFEFE",
"c%	c #A6A19E",
"d%	c #EBE5E4",
"e%	c #959190",
"f%	c #999491",
"g%	c #BFBCBA",
"h%	c #FCF6F4",
"i%	c #B3B1AE",
"j%	c #EEECEC",
"k%	c #9D9898",
"l%	c #C7C6C5",
"                                                                                                    ",
"                                                                                                    ",
"                                                                                                    ",
"                                                                                                    ",
"                                                          .                                         ",
"                                                    + @ # $ %                                       ",
"                                              & * = - ; > , ' ) !                                   ",
"                                          ~ { ] ^ / > ( _ : < [ } |                                 ",
"                                      1 2 3 4 5 6 7 [ 8 9 0 a b c d e f                             ",
"                                  g h i j k l m ' n o p q r s t u v w x y z                         ",
"                              A B C D E ~ F G H I , J K o L M N O P Q R S T |                       ",
"                          E U V W X Y Z `  ...+.@.#.$.%.&.*.=.-.;.>.,., '.).!.' ~.                  ",
"                      { {.].^./.(._.:.<.[.}._ |.1.P 2.3.4.5.n 6.7.8.9.0.@.' a.p $.7.                ",
"                    b.c.d.e.f.g.h._ i.j.k.l.a m.n.n.&.o.p.q.r.s.Z t.u.v.w.x.y.z.A.B.C.              ",
"                  ].D.E.F.G.H.I.J.K.L.M.N.O.P.Q.R.S.T.U.V.W.4.X.#.Y.Z.W.`. +r s G.I .+              ",
"                ++@+#+c $+%+&+R.}.*+=+-+[.;+>+,+'+9 q.)+8., !+5.~+%.{+]+^+/+(+_ _+:+<+              ",
"              [+}+|+1+2+3+4+5+6+7+*+1+8+1+9+0+N.a+}+b+c+d+e+f+g+h+q.i+: |.j+k+X.s.l+W.              ",
"            o X.m+G.n+o+p+,+q+'.r+s+t+r+u+w.v+w+x+t y+w 0.z+A+Z &.B+C+D+E+F+G+H+I+&+(+              ",
"            J+>+X.K+b+L+M+N+O+H+P+Q+R+S+T+U+V+W+X+Y+R.Z+`+ @.@+@f+@@g+#@f+F+$@%@}+s.%.K+            ",
"            i.&@*@=@3+-@'.;@>@,@'@7+)@!@~@{@]@^@/@(@a _@:@<@F+.+,.[@}+}@@.I |@{+1@@.P I+            ",
"            t 2@~@3@p.4@5.c n+5@6@'.~@7@8@9@0@a@b@c@d@g.e@P |.I+f@g@$@h@i@j@q.9.k@K+2+X.            ",
"            -.W+l@1.^@m@a@n@v+Z+-+y+o@p@q@]@r@s@s+t@u@3@v@}+w@x@ +g.y@z@A@B@C@, D@E@'.F@            ",
"            G@R+H@I@J@K@~@=+&.L@M@%+N@O@P@Q@w.R@S@T@U@V@4@W@X@Y@%+Z@`@ #l@.#+#W@@#: R.##            ",
"            {+ @=.$#%#&#`+2+~@g@2+B@*#=#S@U@-#;#>#,#'#)#M@P@, !#{+p.~#5.{+^@c+=.o {#Q.2+            ",
"            ]#^#/#(#_#:#<#[#}#~@|#1#Y+a@,#2#3#4#5#7+,#6#7#k.8#E@9#0#a#b#, c#f@H+d#e#f#c             ",
"            X+B@g#H@h#=@p.Z+i#j#6+l.k#l#m#n#o#p#O+V@q#r#/#3@s#t#u#v#w#x#y#z#A#B#v#v#C#D#E#          ",
"            F#G#'.l+H#I#>@J#X+K#h#;+L#M#N#O#P#Q#R#S#k#O.T#U#V#V#V#V#V#V#V#V#V#V#V#V#V#V#            ",
"            W#X#Y#Z#y@x.`#*@[#%+ $q+.$+$@$#$$$1#;#6@%$&$*$=$V#V#V#V#V#V#-$V#V#V#V#V#V#V#            ",
"            a#7+q#z@/#;$Z#>$o.n@,$^@}.-+'$S#)$!$-#~${$]$V#V#V#V#V#V#V#V#V#V#V#V#V#V#V#V#            ",
"            ^$/$;#($-+O.:#_$:$I###Q@4+x+N#Q#<$t@-#a@k#[$V#-$V#V#V#V#V#V#V#V#V#V#V#V#V#}$            ",
"            |$1$a#a@i##$2$3$u@'.4$^@5$k#6$7$8$>#9$R#0$V#V#V#V#V#V#V#V#V#V#V#V#V#V#V#V#V#            ",
"            a$b$c$K#d$|$e$P.S#a@n+/@k#f$g$R#h$a@i$O@V#j$V#V#V#k$V#V#V#V#V#V#V#V#V#V#V#V#            ",
"            l$c+m$Q@n$o$p$X#q$R@r$O+s$T#t$=#N@m#+#u$V#V#v$V#V#V#w$V#V#V#V#V#V#V#V#x$V#              ",
"              y$z$8+/#J@n@A$B$}#C$_$D$P+Q@J@S#,$E$V#V#V#V#V#V#V#V#V#V#V#V#V#V#V#V#V#V#              ",
"              B.D+w.F$J+G$H$I$]@O@J$_$Z+K$_$L$N@V#V#V#V#V#V#V#V#V#V#=$V#V#V#V#V#V#V#V#              ",
"                M$N${+f#O$P$B$*+Q$@$U@R$S$c$T$U$V#V#V#x$V#V#V#V#V#V$V#V#V#V#x$V#V#V#V#              ",
"                  W$X$Y$Z$` g#`$ %.%H$Q@t@+%@%V#V#V#V#V##%V#V#V#V#V#V#V#V#V#V#V#V#V#V#              ",
"                      $%%%x@&%*%/@=%Q#o#2$-%V#V#=$V#V#V#V$V#V#V#V#V#V#x$V#;%V#>%V#V#V#              ",
"                        ,%'%)%,.Z n@!%T#~%{%V#V#V#V#V#V$]%V#V#V#V#V#V#^%/%(%V#V#V#                  ",
"                            _%:%<%[%}%|%1%V#V#V#V#V#V#2%V#V#V#V#V#V#V#V#V#V#V#V#                    ",
"                                3%4%4.Q 5%6%2%V#V#V#V#V#V#V#V#V#V#V#V#V#V#V#                        ",
"                                    7%8%9%0%7+a%b%V#V#V#V#V#V#V#-$V#V#V#V#                          ",
"                                        . t c%8%d%V#V#V#V#V#V#V#V#V#V#                              ",
"                                            e%3%f%g%V#V#V#V#V#V#V#h%                                ",
"                                                4%i%b$j%V#V#V#V#                                    ",
"                                                      k%l%V#                                        ",
"                                                                                                    ",
"                                                                                                    ",
"                                                                                                    ",
"                                                                                                    "};
