/* XPM */
static char * field_mark_xpm[] = {
"50 50 489 2",
"  	c None",
". 	c #04D62A",
"+ 	c #16961B",
"@ 	c #14C026",
"# 	c #348924",
"$ 	c #348720",
"% 	c #009316",
"& 	c #936227",
"* 	c #1AB725",
"= 	c #30A928",
"- 	c #12951B",
"; 	c #8A6D2B",
"> 	c #9D6224",
", 	c #1C9521",
"' 	c #32A022",
") 	c #119419",
"! 	c #14C228",
"~ 	c #767624",
"{ 	c #34881E",
"] 	c #229920",
"^ 	c #12A828",
"/ 	c #926625",
"( 	c #976626",
"_ 	c #617D24",
": 	c #32A325",
"< 	c #17961C",
"[ 	c #767725",
"} 	c #9B6932",
"| 	c #567F23",
"1 	c #2DAA29",
"2 	c #886926",
"3 	c #099118",
"4 	c #339F28",
"5 	c #249922",
"6 	c #16AF21",
"7 	c #18AA22",
"8 	c #34871D",
"9 	c #2C8E25",
"0 	c #249123",
"a 	c #1D971E",
"b 	c #7E6E26",
"c 	c #289B23",
"d 	c #38A32B",
"e 	c #35A32A",
"f 	c #0E9E1F",
"g 	c #35A62C",
"h 	c #348921",
"i 	c #17C029",
"j 	c #06D329",
"k 	c #19BD29",
"l 	c #896A23",
"m 	c #866B26",
"n 	c #348920",
"o 	c #06A51E",
"p 	c #18AB24",
"q 	c #0C941A",
"r 	c #1A961F",
"s 	c #50B735",
"t 	c #17BE27",
"u 	c #767625",
"v 	c #20A027",
"w 	c #567E21",
"x 	c #936426",
"y 	c #816D26",
"z 	c #1D971F",
"A 	c #977B39",
"B 	c #2C8F25",
"C 	c #24AF2A",
"D 	c #19BB26",
"E 	c #19BA25",
"F 	c #1DB727",
"G 	c #1DB728",
"H 	c #9D5F25",
"I 	c #35A42A",
"J 	c #7A7328",
"K 	c #9B6A38",
"L 	c #8A7132",
"M 	c #567F26",
"N 	c #2DAB2B",
"O 	c #839538",
"P 	c #8B8137",
"Q 	c #7A772E",
"R 	c #2DCE31",
"S 	c #17BE26",
"T 	c #756F28",
"U 	c #08A31E",
"V 	c #817025",
"W 	c #14C229",
"X 	c #1AB227",
"Y 	c #2DAC2A",
"Z 	c #8A6930",
"` 	c #8A6F2A",
" .	c #309C28",
"..	c #61AD36",
"+.	c #348922",
"@.	c #77953A",
"#.	c #348C25",
"$.	c #56862D",
"%.	c #8A783F",
"&.	c #0DE52E",
"*.	c #56852E",
"=.	c #77973B",
"-.	c #249224",
";.	c #617F28",
">.	c #0EA71E",
",.	c #328823",
"'.	c #30AA29",
").	c #18AB23",
"!.	c #099117",
"~.	c #309F27",
"{.	c #24AC28",
"].	c #32A72B",
"^.	c #38A42C",
"/.	c #1F9720",
"(.	c #8A7437",
"_.	c #1B8E1F",
":.	c #7A7A36",
"<.	c #1DD930",
"[.	c #56832C",
"}.	c #918A39",
"|.	c #348C26",
"1.	c #18AA23",
"2.	c #18B424",
"3.	c #22991F",
"4.	c #617B22",
"5.	c #30A929",
"6.	c #069317",
"7.	c #24AC29",
"8.	c #209321",
"9.	c #4DB635",
"0.	c #77963C",
"a.	c #618532",
"b.	c #9B7541",
"c.	c #988D39",
"d.	c #2C9028",
"e.	c #74A437",
"f.	c #79A637",
"g.	c #24AB26",
"h.	c #32A628",
"i.	c #866A26",
"j.	c #209322",
"k.	c #168F1B",
"l.	c #069318",
"m.	c #568229",
"n.	c #1B8E1D",
"o.	c #908739",
"p.	c #1B8E1E",
"q.	c #2DCF31",
"r.	c #7A7C39",
"s.	c #2CCE31",
"t.	c #55BB35",
"u.	c #15AD23",
"v.	c #617B28",
"w.	c #11A921",
"x.	c #32A127",
"y.	c #4C882B",
"z.	c #2E8C22",
"A.	c #2E8B22",
"B.	c #249223",
"C.	c #348A22",
"D.	c #2C9026",
"E.	c #348B23",
"F.	c #1B8F1E",
"G.	c #4FB935",
"H.	c #299927",
"I.	c #1DDA30",
"J.	c #18AF25",
"K.	c #7D6D26",
"L.	c #747226",
"M.	c #1DB428",
"N.	c #2A8B20",
"O.	c #779338",
"P.	c #51BA35",
"Q.	c #30D031",
"R.	c #3FC433",
"S.	c #9B7746",
"T.	c #099018",
"U.	c #059117",
"V.	c #7A7427",
"W.	c #7A762F",
"X.	c #2DAE2C",
"Y.	c #348B24",
"Z.	c #7A7D3A",
"`.	c #7A7D38",
" +	c #099219",
".+	c #5FAD36",
"++	c #1F9624",
"@+	c #567A21",
"#+	c #1CBA29",
"$+	c #35A52B",
"%+	c #39A12B",
"&+	c #9B6E31",
"*+	c #4A992D",
"=+	c #9B7442",
"-+	c #779B3D",
";+	c #779D42",
">+	c #76701B",
",+	c #1B8D1C",
"'+	c #38A32C",
")+	c #7A752D",
"!+	c #3C9B2D",
"~+	c #958C39",
"{+	c #2C9128",
"]+	c #899B38",
"^+	c #52BA35",
"/+	c #1EDA30",
"(+	c #779840",
"_+	c #2C932A",
":+	c #92B14B",
"<+	c #119416",
"[+	c #89661F",
"}+	c #0C9419",
"|+	c #1E8A1A",
"1+	c #35A62B",
"2+	c #9B6E39",
"3+	c #1D9720",
"4+	c #1B9620",
"5+	c #7A7B33",
"6+	c #3DC333",
"7+	c #4FBA35",
"8+	c #779D40",
"9+	c #249428",
"0+	c #1B9121",
"a+	c #567F22",
"b+	c #32A82A",
"c+	c #568329",
"d+	c #3DC134",
"e+	c #8D8739",
"f+	c #9D7E3A",
"g+	c #78A637",
"h+	c #43C633",
"i+	c #8A7F44",
"j+	c #34912B",
"k+	c #8EB14B",
"l+	c #198C14",
"m+	c #617A22",
"n+	c #9B6A2E",
"o+	c #4FB735",
"p+	c #77973E",
"q+	c #7F9738",
"r+	c #1E9122",
"s+	c #A4A550",
"t+	c #A1A453",
"u+	c #77A248",
"v+	c #098F16",
"w+	c #19BC26",
"x+	c #32A82B",
"y+	c #7A7633",
"z+	c #8A722E",
"A+	c #998E39",
"B+	c #31D131",
"C+	c #8A7E41",
"D+	c #7A813F",
"E+	c #4FC83C",
"F+	c #7FBD46",
"G+	c #9FA450",
"H+	c #93A24E",
"I+	c #7CBD46",
"J+	c #1A8C14",
"K+	c #2DA826",
"L+	c #24AE2A",
"M+	c #8A7237",
"N+	c #8A7538",
"O+	c #51B835",
"P+	c #9B733F",
"Q+	c #389F2E",
"R+	c #8F8A39",
"S+	c #568833",
"T+	c #1CDD32",
"U+	c #34D435",
"V+	c #29E932",
"W+	c #8A854C",
"X+	c #00FF26",
"Y+	c #3DDE37",
"Z+	c #72BC42",
"`+	c #91621B",
" @	c #568228",
".@	c #56832A",
"+@	c #958A39",
"@@	c #618632",
"#@	c #189520",
"$@	c #77A249",
"%@	c #14F42B",
"&@	c #6AC844",
"*@	c #56D53C",
"=@	c #5DC240",
"-@	c #96B64B",
";@	c #60C841",
">@	c #32A526",
",@	c #13951C",
"'@	c #369F2B",
")@	c #32AC2F",
"!@	c #8A7838",
"~@	c #7A8543",
"{@	c #249529",
"]@	c #1B9122",
"^@	c #5DC43D",
"/@	c #A4A456",
"(@	c #3DDF37",
"_@	c #ADAC50",
":@	c #52D43C",
"<@	c #53D53C",
"[@	c #26E931",
"}@	c #3FE037",
"|@	c #69CB41",
"1@	c #19BC28",
"2@	c #32A92D",
"3@	c #499B2C",
"4@	c #348B25",
"5@	c #7A7B37",
"6@	c #9B7339",
"7@	c #72A337",
"8@	c #1EDB30",
"9@	c #7A803A",
"0@	c #1B9020",
"a@	c #98A550",
"b@	c #94B54B",
"c@	c #13F42B",
"d@	c #6ACB41",
"e@	c #93A655",
"f@	c #26EA31",
"g@	c #3CDF37",
"h@	c #29EA31",
"i@	c #30A725",
"j@	c #3DC233",
"k@	c #2C9229",
"l@	c #77A34A",
"m@	c #98B74B",
"n@	c #42E037",
"o@	c #3EE037",
"p@	c #42E137",
"q@	c #73BF4B",
"r@	c #06D229",
"s@	c #38A42D",
"t@	c #7A7930",
"u@	c #77953B",
"v@	c #879A38",
"w@	c #9B7D48",
"x@	c #9BA454",
"y@	c #95B44B",
"z@	c #78BD46",
"A@	c #7A8949",
"B@	c #6ECD41",
"C@	c #9B753F",
"D@	c #75A437",
"E@	c #54D33C",
"F@	c #87B14B",
"G@	c #89B14C",
"H@	c #28EA31",
"I@	c #14F52B",
"J@	c #60CA47",
"K@	c #0FC829",
"L@	c #56842C",
"M@	c #1B8F1F",
"N@	c #7A7B3B",
"O@	c #4DB835",
"P@	c #7BBC48",
"Q@	c #49CC3A",
"R@	c #66CA41",
"S@	c #40E037",
"T@	c #27EA31",
"U@	c #77973C",
"V@	c #8A7D44",
"W@	c #2C942C",
"X@	c #76BC4A",
"Y@	c #97B74B",
"Z@	c #3BDE37",
"`@	c #4DD641",
" #	c #5A8223",
".#	c #7F9538",
"+#	c #9B7642",
"@#	c #3DC433",
"##	c #10941D",
"$#	c #779D47",
"%#	c #29E931",
"&#	c #98A653",
"*#	c #A9AA50",
"=#	c #1DDD33",
"-#	c #4FC847",
";#	c #4C8924",
">#	c #2ECF31",
",#	c #1C9622",
"'#	c #7A7F3B",
")#	c #9B7D4A",
"!#	c #9FA456",
"~#	c #9DA450",
"{#	c #85AA4F",
"]#	c #81C146",
"^#	c #86B958",
"/#	c #258713",
"(#	c #7A7D3B",
"_#	c #908B39",
":#	c #9B7D4B",
"<#	c #7ABC48",
"[#	c #28E931",
"}#	c #83C146",
"|#	c #52D33F",
"1#	c #3ADE37",
"2#	c #15F52B",
"3#	c #13F52C",
"4#	c #98AE5F",
"5#	c #2FEF34",
"6#	c #7A7635",
"7#	c #28E932",
"8#	c #99A450",
"9#	c #2BD635",
"0#	c #3ADF3A",
"a#	c #60DF48",
"b#	c #60DF47",
"c#	c #79D851",
"d#	c #2F9926",
"e#	c #2DB02E",
"f#	c #8A7735",
"g#	c #38A831",
"h#	c #249225",
"i#	c #1CDD31",
"j#	c #1B9223",
"k#	c #93A552",
"l#	c #2BEB31",
"m#	c #75B956",
"n#	c #8AB14C",
"o#	c #13F42C",
"p#	c #7DBF46",
"q#	c #99A453",
"r#	c #79D850",
"s#	c #79D951",
"t#	c #17F72D",
"u#	c #32A01C",
"v#	c #7A7F39",
"w#	c #7FB547",
"x#	c #60CE4B",
"y#	c #AAA56D",
"z#	c #79D94E",
"A#	c #60E14C",
"B#	c #79DA54",
"C#	c #648F32",
"D#	c #A4A454",
"E#	c #14F42C",
"F#	c #4ED33D",
"G#	c #4DD33D",
"H#	c #79DA53",
"I#	c #60E14B",
"J#	c #4B8827",
"K#	c #77A246",
"L#	c #77A34C",
"M#	c #26EB34",
"N#	c #48E73F",
"O#	c #17F72E",
"P#	c #79E05A",
"Q#	c #A5A550",
"R#	c #64C842",
"S#	c #63C843",
"T#	c #93A759",
"U#	c #259B1E",
"V#	c #0FC626",
"W#	c #08CF28",
"X#	c #2AE931",
"Y#	c #93A958",
"Z#	c #73C14F",
"`#	c #895F14",
" $	c #18AA21",
".$	c #93A350",
"+$	c #51D33F",
"@$	c #13F52D",
"#$	c #79DE58",
"$$	c #78A437",
"%$	c #955505",
"&$	c #099017",
"*$	c #88B14B",
"=$	c #86B14C",
"-$	c #79DA52",
";$	c #AD5118",
">$	c #718A34",
",$	c #3ADF39",
"'$	c #099016",
")$	c #60C942",
"!$	c #4DD845",
"~$	c #896619",
"{$	c #9DA453",
"]$	c #79DF57",
"^$	c #995406",
"/$	c #18A81E",
"($	c #567F24",
"_$	c #4DD53E",
":$	c #73C14E",
"<$	c #7A6F20",
"[$	c #30A420",
"}$	c #9D5B26",
"|$	c #14C025",
"                                                . . .                                               ",
"                                            . . . + @ . .                                           ",
"                                          . . . # $ % & . .                                         ",
"                                      . . * % = % - ; > , ' . .                                     ",
"                                  . . ) % ! ~ { % ] ^ / ( _ ^ : . .                                 ",
"                              . . . < % . % [ } | 1 2 % % % 3 4 5 6 . .                             ",
"                            . . 7 8 % 9 2 0 a % b c d e % ^ f g h ^ i . .                           ",
"                        . . j k l % % m % % % % n o o p 4 % % q ^ o r s t . .                       ",
"                    . . . u % k v w x y z % o % ^ p % o % A B o % o C o % o D . .                   ",
"                . . E % F v ^ G # H I J % K ^ L % M N o O P Q o ^ ^ ^ % % ^ % R S . .               ",
"              . . % T U i V ^ W X Y % % % Z ` %  .^ h % ^ ..R +.@.#.$.%.&.*.=.o -.;.>..             ",
"          . . % ,.8 % '.).% !.~.5 {.].% ^.^ 3 /.(.O _.% o o :.o <.o o ^ % [.}.o |.^ &.1.. .         ",
"      . . 2.3.% 4.% 5.% % % % 6.7.% o % 8.-.o % 9.^ q Q o % 0.a.&.^ ^ o b.c.d.&.% &.e.% f.% . .     ",
"      . % % g.< h.i.o ^ j.6.o k.o l.^ o m.n.o.3 % % _.p.% &.q.&.o &.o % &.&.r.s.% t.t.&.&.o o .     ",
"      . . u.v.$ w.x.p y.% 9 4 z.A.% ^ B.C.% D.<.E.F.^ 3 -.#.o G.G.&.H.% I.% &.&.o &.&.% o &.o .     ",
"      . . ).J.5.o % K.L.M.% ^ N.% O.^ o % o o ^ ^ o o &.&.o o P.&.I.Q.R.&.&.&.o &.o S.&.o &.% .     ",
"      . . % T.o % % % U.V.% W.X.% o o % % % &.Y.o Z.o `. +.+o &.&.&.&.% o &.% &.&.% &.++&.&.o .     ",
"      . @+% % #+L.^ % p $+%+% % o % &+% o ^ *+% =+o o % &.&.&.&.&.&.&.-+&.&.&.&.&.&.&.;+% &.&..     ",
"      . >+. % ] % ,+% '+)+o !+D.% &.^ % &.&.~+{+]+^+o &./+o &.&.(+&._+&.o &.% &.% &.&.&.&.:+&.<+    ",
"      . [+'.o }+|+;.1+2+3+% % % ..o &.% 4+5+6+q.&.7+&.&.&.o &.o &.&.&.&.8+&.9+&.o &.&.&.&.&.0+.     ",
"      . % a+% % % b+o c+n.-.d+R o % e+o f+&.g+h+o % &.&.o o &.i+&.&.&.j+&.&.&.&.&.&.k+&.&.&.&.l+    ",
"      . m+L.n+c ^ % ^ o+^ 3 ^ o p+&.% &.q+&.t.&.&.o % &.r+&.o &.&.&.&.&.&.&.s+% t+&.&.&.% u+&.v+    ",
"      . w+x+y+^ o o % z+o % &.-.o &.A+o &.&.B+o &.&.C+&.&.&.D+&.&.E+F+&.G+&.&.&.&.H+&.&.% &.I+J+    ",
"      . K+% % L+M+o % N+O+^ P+Q+o R+% &.o S+&.o o &.&.o &.&.&.&.0+&.&.T+U+&.V+&.&.&.W+X+&.Y+Z+>.    ",
"      . `+% o  @.@% +@% o ^ @@o % o o &.&.&.o &.#@&.&.&.&.% &.&.$@&.&.X+%@&@*@&.=@X+&.-@&.;@&..     ",
"      . >@,@3 o % % ^ '@^ )@o o !@o &.&.o &.&.&.&.o &.~@&.{@&.&.]@^@o &.X+/@(@_@:@<@&.[@&.}@|@.     ",
"      . 1@D.2@o % 3@4@5@6@% &.7@o % 8@9@0@&.o &.&.&.0+&.% k+&.&.&.&.&.a@b@X+X+c@d@e@f@X+&.g@h@.     ",
"      . i@^ ^ % j@/+% &.^ &.o o &.k@&.% &.o &.&.&.&.&.o &.X+&.&.l@m@&.X+n@X+o@p@q@&.X+&.X+&.X+r@    ",
"      . % ^ D.s@t@o u@&. +v@&.&.o o &.&.&.&.w@&.&.&.x@y@&.%@z@&.A@X+B@&.p@X+&.X+&.X+X+X+&.X+&..     ",
"      . % % R % ^ &.-.o C@D@% &.&.&.&.&.&.o &.E@&.&.X+F@&.H+X+G@X+&.&.H@I@X+&.X+X+&.X+&.X+X+J@.     ",
"      . K@L@o % % o M@N@% O@&.&.&.&.&.&.&.&.P@&.% &.Q@&.X+R@;@&.S@T@X+&.X+X+X+X+X+X+X+X+X+X+X+.     ",
"      . . o % % ^ U@&.o /+&.&.&.V@&.&.&.W@&.&.&.X@&.&.Y@o X+&.Z@&.X+X+X+X+X+`@X+&.X+X+X+X+X+X+.     ",
"      .  #% o .#-.&.+#&.@#0@&.&.##&.9+o {@$#&.%#X+&#*#<@X+&.X+X+X+&.X+X+X+X+=#X+X+X+X+-#X+X+X+.     ",
"      . ;#o >#o &./+,#o Q.'#&.o &.)#o o ]@!#~#&.{#X+]#X+X+c@X+X+X+X+X+&.X+X+X+^#X+X+X+X+X+X+X+/#    ",
"      . % ^ % (#_#&.o o &.&. +&.&.:#&.<#o &.&.[#}#|#1#X+2#X+X+X+&.X+X+3#X+X+4#X+X+X+X+X+X+5#X+.     ",
"      . h.6#<.o % o I.% &.% &.o &.&.&.&.7#8#&.9#&.B@&.X+&.X+X+X+X+X+0#X+a#X+X+b#5#c#X+X+X+X+X+%     ",
"      . d#e# +f#g#h#% `.&.&.&.o &.i#&.&.&.j#k#&.l#X+X+X+&.&.X+X+X+X+X+X+X+m#X+X+X+X+X+X+X+X+X+%     ",
"      . % % o {+g+&.I.% % &.&.% &.&.&.n#&.&.o#p#q#X+X+X+&.&.&.X+X+X+X+X+X+r#X+s#t#X+X+X+X+X+X+%     ",
"      . u#% ^ &.&.o v#&.&.&.&.&.&.&.&.&.W+w#X+(@&.&.X+X+X+X+X+X+x#X+X+X+X+y#X+X+X+z#A#B#X+X+^ .     ",
"          . . C#o I.&.0@&.&.&.&.D#&.&.E#&.F#G#X+c@X+X+X+X+X+X+X+X+X+X+X+X+X+X+H#I#X+X+X+^ .         ",
"              . J#o &.o 8+&.&.&.&.K#[#L#&.X+X+X+X+X+X+X+X+X+M#X+X+N#X+X+X+X+X+O#X+P#&.%             ",
"                . % % &.o &.o Q#&.R#S#&.&.X+&.o#&.T#X+X+X+X+O#X+X+X+X+X+X+z#X+X+X+U#V#              ",
"                    W#. ^ o &.X#&.o X+&.&.c@&.X+Y#X+Z#X+X+X+X+X+X+X+X+X+X+X+X+^ `#                  ",
"                        .  $&.&.&.&..$&.X++$&.X+&.X+X+X+@$X+X+X+X+X+X+X+#$$$%$                      ",
"                            . &$]@*$=$&.H@X+X+X+X+X+X+X+@$X+X+X+X+-$X+X+;$                          ",
"                              . V#>$&.&.X+X+X+,$X+X+X+X+c#X+X+X+X+X+'$.                             ",
"                                  . . &.)$&.X+X+X+X+&.X+X+!$X+X+% .                                 ",
"                                      . ~${$X+X+X+X+X+X+X+]$o ^$                                    ",
"                                          /$($_$:$X+X+X+X+<$                                        ",
"                                            . [$&.X+X+}$|$                                          "};
