/* XPM */
static char * stone_black_xpm[] = {
"50 50 349 2",
"  	c None",
". 	c #111117",
"+ 	c #07070F",
"@ 	c #090911",
"# 	c #0E0E15",
"$ 	c #06060E",
"% 	c #070710",
"& 	c #080810",
"* 	c #121218",
"= 	c #111118",
"- 	c #13131A",
"; 	c #0C0C14",
"> 	c #14141B",
", 	c #14141A",
"' 	c #121217",
") 	c #141419",
"! 	c #131319",
"~ 	c #16161D",
"{ 	c #1A1A1F",
"] 	c #1A1A20",
"^ 	c #15151B",
"/ 	c #141418",
"( 	c #16161B",
"_ 	c #191920",
": 	c #1D1D24",
"< 	c #06060F",
"[ 	c #1A1A1E",
"} 	c #1C1C20",
"| 	c #16161A",
"1 	c #131318",
"2 	c #15151A",
"3 	c #17171C",
"4 	c #1B1B20",
"5 	c #1E1E24",
"6 	c #1E1E26",
"7 	c #05050E",
"8 	c #0B0B12",
"9 	c #17171B",
"0 	c #12121A",
"a 	c #121219",
"b 	c #151519",
"c 	c #18181C",
"d 	c #1D1D23",
"e 	c #1F1F26",
"f 	c #1C1C22",
"g 	c #141417",
"h 	c #18181D",
"i 	c #18181F",
"j 	c #1B1B21",
"k 	c #202027",
"l 	c #212128",
"m 	c #242429",
"n 	c #1F1F25",
"o 	c #222228",
"p 	c #1F1F23",
"q 	c #16161C",
"r 	c #15151C",
"s 	c #18181E",
"t 	c #1D1D22",
"u 	c #202025",
"v 	c #202026",
"w 	c #0D0D14",
"x 	c #0E0E14",
"y 	c #161619",
"z 	c #242428",
"A 	c #202024",
"B 	c #252529",
"C 	c #19191E",
"D 	c #1B1B22",
"E 	c #212127",
"F 	c #222227",
"G 	c #101017",
"H 	c #1C1C21",
"I 	c #25252A",
"J 	c #222226",
"K 	c #26262A",
"L 	c #29292D",
"M 	c #17171D",
"N 	c #1A1A21",
"O 	c #222229",
"P 	c #1E1E25",
"Q 	c #1C1C23",
"R 	c #0F0F17",
"S 	c #24242A",
"T 	c #27272C",
"U 	c #18181B",
"V 	c #26262C",
"W 	c #19191D",
"X 	c #24242B",
"Y 	c #26262B",
"Z 	c #25252B",
"` 	c #232329",
" .	c #232328",
"..	c #1B1B1F",
"+.	c #23232A",
"@.	c #25252C",
"#.	c #1E1E22",
"$.	c #19191F",
"%.	c #27272D",
"&.	c #1C1C24",
"*.	c #151518",
"=.	c #212126",
"-.	c #202023",
";.	c #28282D",
">.	c #1E1E23",
",.	c #17171A",
"'.	c #232327",
").	c #262629",
"!.	c #252528",
"~.	c #1F1F24",
"{.	c #262628",
"].	c #28282E",
"^.	c #17171E",
"/.	c #232326",
"(.	c #28282F",
"_.	c #212124",
":.	c #1F1F22",
"<.	c #29292E",
"[.	c #1A1A1D",
"}.	c #28282C",
"|.	c #2A2A2E",
"1.	c #202022",
"2.	c #2B2B2E",
"3.	c #29292C",
"4.	c #2A2A2C",
"5.	c #2E2E30",
"6.	c #38383E",
"7.	c #424247",
"8.	c #404046",
"9.	c #3F3F44",
"0.	c #3E3E43",
"a.	c #3B3B3F",
"b.	c #3A3A3E",
"c.	c #3B3B40",
"d.	c #3C3C41",
"e.	c #3C3C40",
"f.	c #3E3E42",
"g.	c #323233",
"h.	c #363637",
"i.	c #383839",
"j.	c #3C3C3C",
"k.	c #434345",
"l.	c #4D4D51",
"m.	c #5A5A5E",
"n.	c #56565B",
"o.	c #58585D",
"p.	c #565659",
"q.	c #57575B",
"r.	c #5F5F63",
"s.	c #606064",
"t.	c #58585A",
"u.	c #4B4B4E",
"v.	c #27272E",
"w.	c #343437",
"x.	c #363638",
"y.	c #3F3F40",
"z.	c #424243",
"A.	c #48484A",
"B.	c #4A4A4C",
"C.	c #4B4B50",
"D.	c #4A4A4F",
"E.	c #444449",
"F.	c #4A4A4E",
"G.	c #5E5E62",
"H.	c #555558",
"I.	c #474749",
"J.	c #27272B",
"K.	c #404041",
"L.	c #40403E",
"M.	c #3E3E3C",
"N.	c #46464A",
"O.	c #4F4F51",
"P.	c #48484C",
"Q.	c #404044",
"R.	c #3E3E40",
"S.	c #3A3A3C",
"T.	c #353536",
"U.	c #39393C",
"V.	c #424246",
"W.	c #4B4B4D",
"X.	c #2A2A2D",
"Y.	c #242427",
"Z.	c #29292F",
"`.	c #505051",
" +	c #555552",
".+	c #4A4A44",
"++	c #474743",
"@+	c #474748",
"#+	c #58585C",
"$+	c #5A5A5F",
"%+	c #4B4B4F",
"&+	c #414144",
"*+	c #3E3E3F",
"=+	c #353534",
"-+	c #313131",
";+	c #323235",
">+	c #363639",
",+	c #3C3C3E",
"'+	c #404043",
")+	c #2A2A30",
"!+	c #28282B",
"~+	c #3D3D42",
"{+	c #717172",
"]+	c #5F5F5D",
"^+	c #565654",
"/+	c #545453",
"(+	c #5C5C5E",
"_+	c #68686A",
":+	c #646468",
"<+	c #58585B",
"[+	c #555556",
"}+	c #444444",
"|+	c #333331",
"1+	c #303032",
"2+	c #323234",
"3+	c #333332",
"4+	c #353537",
"5+	c #38383C",
"6+	c #2A2A2F",
"7+	c #1B1B1E",
"8+	c #7A7A7D",
"9+	c #6C6C6E",
"0+	c #585859",
"a+	c #4E4E4E",
"b+	c #4C4C4B",
"c+	c #535354",
"d+	c #5B5B5C",
"e+	c #68686B",
"f+	c #656565",
"g+	c #454544",
"h+	c #363635",
"i+	c #2F2F30",
"j+	c #313132",
"k+	c #2B2B31",
"l+	c #2B2B32",
"m+	c #56565A",
"n+	c #5C5C61",
"o+	c #525257",
"p+	c #4D4D50",
"q+	c #4C4C4E",
"r+	c #4D4D4E",
"s+	c #4B4B4B",
"t+	c #48484B",
"u+	c #4A4A4D",
"v+	c #6B6B6E",
"w+	c #5E5E60",
"x+	c #4D4D4D",
"y+	c #4F4F52",
"z+	c #4C4C4F",
"A+	c #3F3F41",
"B+	c #2D2D32",
"C+	c #2E2E35",
"D+	c #34343B",
"E+	c #505054",
"F+	c #4D4D52",
"G+	c #505052",
"H+	c #4C4C50",
"I+	c #45454A",
"J+	c #545458",
"K+	c #5B5B5E",
"L+	c #515153",
"M+	c #59595C",
"N+	c #26262D",
"O+	c #2E2E33",
"P+	c #313136",
"Q+	c #2F2F35",
"R+	c #4C4C52",
"S+	c #4C4C51",
"T+	c #414143",
"U+	c #434348",
"V+	c #47474A",
"W+	c #47474C",
"X+	c #46464C",
"Y+	c #4E4E51",
"Z+	c #16161E",
"`+	c #292930",
" @	c #2C2C31",
".@	c #2E2E32",
"+@	c #2F2F34",
"@@	c #2F2F32",
"#@	c #35353A",
"$@	c #3E3E41",
"%@	c #373739",
"&@	c #48484D",
"*@	c #49494D",
"=@	c #454548",
"-@	c #444447",
";@	c #4F4F55",
">@	c #4E4E53",
",@	c #464648",
"'@	c #414146",
")@	c #2C2C30",
"!@	c #2B2B2F",
"~@	c #2D2D2E",
"{@	c #38383B",
"]@	c #39393D",
"^@	c #4F4F53",
"/@	c #444448",
"(@	c #27272A",
"_@	c #2E2E31",
":@	c #323236",
"<@	c #3D3D3E",
"[@	c #3B3B3E",
"}@	c #404042",
"|@	c #3C3C3D",
"1@	c #2F2F31",
"2@	c #414142",
"3@	c #515154",
"4@	c #4A4A4B",
"5@	c #464649",
"6@	c #343439",
"7@	c #49494C",
"8@	c #484849",
"9@	c #484848",
"0@	c #464646",
"a@	c #525254",
"b@	c #5D5D60",
"c@	c #3F3F3F",
"d@	c #343434",
"e@	c #323231",
"f@	c #38383A",
"g@	c #46464B",
"h@	c #36363A",
"i@	c #525255",
"j@	c #626262",
"k@	c #434342",
"l@	c #363636",
"m@	c #30302E",
"n@	c #2F2F2E",
"o@	c #313134",
"p@	c #3A3A3F",
"q@	c #545457",
"r@	c #505050",
"s@	c #444446",
"t@	c #414145",
"u@	c #343436",
"v@	c #333337",
"w@	c #2E2E2E",
"x@	c #303033",
"y@	c #424245",
"z@	c #4D4D4F",
"A@	c #5D5D5F",
"B@	c #464647",
"C@	c #3F3F42",
"D@	c #4E4E50",
"E@	c #535355",
"F@	c #5A5A5C",
"G@	c #49494B",
"H@	c #47474B",
"                                                                                                    ",
"                                                                                                    ",
"                                                                                                    ",
"                                                                                                    ",
"                                                          .                                         ",
"                                                    + @ # . .                                       ",
"                                              $ % & # * = * * * -                                   ",
"                                          % + & ; > , ' * ) , ! , ~                                 ",
"                                      % % $ & ; { ] ^ * ' / ( , , ~ _ :                             ",
"                                  < & < $ & ( ] [ } | * * 1 , 2 , 3 4 5 5 6                         ",
"                              7 $ & 7 < 8 | 1 , 3 9 | 1 0 a * * 1 b c ] d 5 e                       ",
"                          $ $ % & < - f { * * * * 1 g 1 ) , b * * 1 b h i j 5 k l                   ",
"                      & $ + & % . m n o p q , ) * * 1 1 1 2 c b * * 1 , r s t u k v                 ",
"                    & + & w x y [ z A z B t , > , a a ) ) > C 3 b / a a ! q D E F 5 f               ",
"                  % + G 5 A y 9 H I J K L m M - ! ! , q | 2 N j 9 y / 1 * , s : O P Q               ",
"                + R : S T z U 9 H V z K L T 5 ^ 1 ! r c W W t v f c c 2 - , | ~ f v f               ",
"              = : X X o Y z [ 2 W Y Z ` V T  .s / ) ^ c ..5  .m O H C q ~ 3 q M i 5 Q               ",
"            ) M d S m E +.m d r s +.@.o S T I #.( ) ^ s p J m S `  .e $.] t j f P v :               ",
"            ) C u S E v o  .A s 3 5 V S S %.Y 5 ( ( 2 { J Y Y S  .o o n 5 d v O S v &.f             ",
"            *.c =.=.P k z z -.3 q u @.@.S ;.K >.,.3 s { =.I m ` '.F F  . .v k  .o 5 f >.            ",
"            *.b ] 5 5  .).!.} | 3 v %.V m T Y 5 ( s ] i d ` E E J J F o o v 5 A =.5 : >.            ",
"            ,./ ~ : ~.z ).{.#.| q f @.].I Y Y 5 q s i 4 f O E e A u E l n t D 5 =.v 5 u             ",
"            W ) ^.P ~./.).!.n C ^ _ o (.Y I %.E q q M } 5  .o v u n v v d ] _ f u v 5 v             ",
"            A 3 r P A _.!.V J 4 | i k ].%.S ].%.v { h [ A n `  . .o k n 5 D j f 5 n v v             ",
"            o i r n n u o Z K :.,.h n ].].K <.<.V F [ [.A F n v A =.S  .o k ~.5 >.u E o             ",
"            S C > N v l S +.T '.[.3 d V ].}.;.|.%.S } [.1.z 2.3.4.5.6.7.8.9.0.a.b.c.d.e.f.          ",
"            V ~.^ M A m Z X S Z v 3 _ S %.T Y ;.L Y u } } g.h.i.j.k.l.m.n.o.p.q.r.s.t.u.            ",
"            }.K ] | [ m v.%.` V m i ~ v V V Z }.|.}. .H v w.x.y.z.A.B.C.D.D.E.F.m.G.H.I.            ",
"            K J.n | c A Z V I I }.#.q ] J T V ;.|.4.z 4 K.L.M.K.N.O.P.Q.R.S.T.U.V.u.W.B.            ",
"            I }. .h ( j o m Y m X.Y.c C #.}.Z.;.X.3.B `. +.+++@+#+$+%+&+*+=+-+;+>+,+*+'+            ",
"            m }.S f ^ s >.=.T S L }.#.U } }.)+T K !+~+{+]+^+/+(+_+:+m.<+[+}+|+1+2+3+4+5+            ",
"            m K m 5 q q H  .6+T ].Z.S 7+[ =.].V  .m 8+9+0+a+b+c+d+q.$+e+f+b+}+A.g+h+i+j+            ",
"            z J I A h ~ v ].k+;.)+l+)+A M ] v o Z m+n+o+p+q+r+s+t+u+(+v+w+x+y+t.z+A+x.              ",
"              v  .Y.H 3 n Z.)+;.B+C+B+m C c { 5 D+#+E+F+y+G+z+H+F.I+J+K+L+z+o+M+E+p+u.              ",
"              ^.~.J #.( 5 (.N+6+O+P+Q+T } c W f R+H+H+S+p+A.T+Q.P.U+V+z+W+X+z+r+G+c+Y+              ",
"                > Z+] ~ 5 `+]. @.@+@O+|.z [ h @@#@>+S.$@R.%@5+~+&@*@=@-@N.;@>@V+=@,@'@              ",
"                  ~ q ] ] @.)+B+)@X.T <.!@'.-.1+)@~@-+{@5+#@]@8.P.p+A.N.^@H.p+N.I+N./@              ",
"                      r s s j V 6+!.(@_@:@.@<@[@}@|@1@[@U+V.}@$@2@B.&@l.3@4@5@N.P.E.7.              ",
"                        ] s ( { >.m }.B+6@7@q+8@9@0@&+a@b@L+c@d@e@f@7.f.R.i.$@g@F.                  ",
"                            5 3 s ] f S h@i@a@p+r+`.K+j@a@k@l@m@n@1@.@o@x.x.p@0.                    ",
"                                j h d H d e.q@y+r@L+q@Y+V+s@t@u@v@d@w@x@v@)@                        ",
"                                    M $.d { )+y@r+z@z@Y+t.A@G+s@B@,@i.5.|.                          ",
"                                        _ j 4 D C@D@L+E@F@q@q+G@s+G@s@                              ",
"                                            r H j ;.N.P.F.H@/@=@,@B.                                ",
"                                                f $.q 5+/@W+/@y@                                    ",
"                                                      1 E e.                                        ",
"                                                                                                    ",
"                                                                                                    ",
"                                                                                                    ",
"                                                                                                    "};
