/* XPM */
static char * stone_grey_xpm[] = {
"50 50 361 2",
"  	c None",
". 	c #4A4A4A",
"+ 	c #121212",
"@ 	c #202020",
"# 	c #373737",
"$ 	c #474747",
"% 	c #464646",
"& 	c #161616",
"* 	c #141414",
"= 	c #2C2C2C",
"- 	c #434343",
"; 	c #424242",
"> 	c #484848",
", 	c #515151",
"' 	c #4E4E4E",
") 	c #151515",
"! 	c #505050",
"~ 	c #535354",
"{ 	c #565659",
"] 	c #151516",
"^ 	c #494949",
"/ 	c #4C4C4C",
"( 	c #545454",
"_ 	c #4D4D4D",
": 	c #535353",
"< 	c #57575A",
"[ 	c #565658",
"} 	c #515153",
"| 	c #171718",
"1 	c #3E3E3E",
"2 	c #4F4F50",
"3 	c #545455",
"4 	c #5B5B5E",
"5 	c #58585B",
"6 	c #49494A",
"7 	c #181818",
"8 	c #131313",
"9 	c #242424",
"0 	c #4B4B4B",
"a 	c #454545",
"b 	c #5C5C5D",
"c 	c #5C5C5F",
"d 	c #5D5D5E",
"e 	c #525254",
"f 	c #141416",
"g 	c #161617",
"h 	c #333333",
"i 	c #515152",
"j 	c #4D4D4E",
"k 	c #565656",
"l 	c #555557",
"m 	c #5B5C5F",
"n 	c #585859",
"o 	c #444444",
"p 	c #4B4B4C",
"q 	c #414141",
"r 	c #3B3B3B",
"s 	c #5D5D5D",
"t 	c #606062",
"u 	c #58585A",
"v 	c #4E4E4F",
"w 	c #4F4F4F",
"x 	c #171717",
"y 	c #2A2A2B",
"z 	c #424244",
"A 	c #6C6C6E",
"B 	c #666666",
"C 	c #606061",
"D 	c #5A5A5A",
"E 	c #5B5B5B",
"F 	c #505051",
"G 	c #5A5A5D",
"H 	c #585858",
"I 	c #4C4C4D",
"J 	c #262626",
"K 	c #68686C",
"L 	c #68686D",
"M 	c #676768",
"N 	c #666667",
"O 	c #656565",
"P 	c #5F5F5F",
"Q 	c #525252",
"R 	c #626264",
"S 	c #5F5F62",
"T 	c #525253",
"U 	c #575757",
"V 	c #555555",
"W 	c #4E4E50",
"X 	c #383838",
"Y 	c #5B5B5C",
"Z 	c #68686B",
"` 	c #69696A",
" .	c #6A6A6C",
"..	c #6B6B6E",
"+.	c #626263",
"@.	c #393939",
"#.	c #4A4A4B",
"$.	c #59595A",
"%.	c #636366",
"&.	c #656668",
"*.	c #646468",
"=.	c #616163",
"-.	c #646466",
";.	c #5C5C5C",
">.	c #626265",
",.	c #595959",
"'.	c #565657",
").	c #5F5F60",
"!.	c #5A5A5C",
"~.	c #616164",
"{.	c #66666A",
"].	c #616162",
"^.	c #606064",
"/.	c #5E5E5E",
"(.	c #555556",
"_.	c #68686A",
":.	c #646464",
"<.	c #606063",
"[.	c #575758",
"}.	c #59595C",
"|.	c #5C5C60",
"1.	c #636365",
"2.	c #6B6B6D",
"3.	c #5E5E60",
"4.	c #5E5E62",
"5.	c #3D3D3D",
"6.	c #3A3A3A",
"7.	c #636367",
"8.	c #646467",
"9.	c #656567",
"0.	c #676769",
"a.	c #5D5D60",
"b.	c #69696C",
"c.	c #5C5C5E",
"d.	c #59595B",
"e.	c #626266",
"f.	c #434344",
"g.	c #5E5E61",
"h.	c #606060",
"i.	c #5A5A5B",
"j.	c #626262",
"k.	c #3C3C3C",
"l.	c #454546",
"m.	c #484849",
"n.	c #404040",
"o.	c #666668",
"p.	c #6A6A6D",
"q.	c #6C6C70",
"r.	c #696969",
"s.	c #656568",
"t.	c #3F3F3F",
"u.	c #666669",
"v.	c #6D6D71",
"w.	c #6E6E72",
"x.	c #686868",
"y.	c #6B6B6B",
"z.	c #868686",
"A.	c #858585",
"B.	c #8E8E8E",
"C.	c #989899",
"D.	c #8E8E92",
"E.	c #8C8C8F",
"F.	c #8C8C90",
"G.	c #8D8D91",
"H.	c #909095",
"I.	c #7D7D7E",
"J.	c #777777",
"K.	c #757575",
"L.	c #89898B",
"M.	c #808081",
"N.	c #6A6A6E",
"O.	c #6E6E71",
"P.	c #6E6E6F",
"Q.	c #5E5E5F",
"R.	c #6E6E70",
"S.	c #979797",
"T.	c #A6A6A6",
"U.	c #ACACAC",
"V.	c #C2C2C6",
"W.	c #B8B8BB",
"X.	c #9A9A9B",
"Y.	c #969697",
"Z.	c #9B9B9B",
"`.	c #A1A1A1",
" +	c #A6A6A7",
".+	c #949494",
"++	c #959595",
"@+	c #C0C0C2",
"#+	c #B8B8BA",
"$+	c #646465",
"%+	c #717174",
"&+	c #707074",
"*+	c #6F6F72",
"=+	c #747475",
"-+	c #999999",
";+	c #B2B2B3",
">+	c #BEBEC2",
",+	c #BCBCC0",
"'+	c #9D9D9D",
")+	c #8F8F8F",
"!+	c #929292",
"~+	c #A2A2A2",
"{+	c #C5C5C8",
"]+	c #C5C5C9",
"^+	c #656566",
"/+	c #BDBDC2",
"(+	c #CACACF",
"_+	c #C8C8CE",
":+	c #BABABE",
"<+	c #99999A",
"[+	c #939393",
"}+	c #969696",
"|+	c #A5A5A5",
"1+	c #ABABAC",
"2+	c #AEAEAF",
"3+	c #AAAAAB",
"4+	c #C3C3C8",
"5+	c #C2C2C7",
"6+	c #C0C1C5",
"7+	c #6A6A6A",
"8+	c #BEBEBF",
"9+	c #CACACC",
"0+	c #A8A8A8",
"a+	c #8B8B8B",
"b+	c #909090",
"c+	c #A4A4A4",
"d+	c #C1C1C5",
"e+	c #C3C3CA",
"f+	c #BDBDC3",
"g+	c #B0B0B3",
"h+	c #A9A9AB",
"i+	c #AAAAAC",
"j+	c #A4A4A5",
"k+	c #65656A",
"l+	c #69696B",
"m+	c #6A6A6B",
"n+	c #616161",
"o+	c #676767",
"p+	c #A9A9A9",
"q+	c #BABABB",
"r+	c #B1B1B1",
"s+	c #A0A0A0",
"t+	c #989898",
"u+	c #ADADB0",
"v+	c #BBBBC0",
"w+	c #B7B7BA",
"x+	c #B6B6B8",
"y+	c #AFAFAF",
"z+	c #9F9F9F",
"A+	c #ABABAB",
"B+	c #626365",
"C+	c #6C6C6C",
"D+	c #9A9A9A",
"E+	c #AAAAAA",
"F+	c #B0B0B0",
"G+	c #BCBCBC",
"H+	c #BDBDBE",
"I+	c #BFBFC2",
"J+	c #B6B6BB",
"K+	c #B4B4BA",
"L+	c #A4A4A6",
"M+	c #ACACAD",
"N+	c #ADADAD",
"O+	c #A7A7A8",
"P+	c #9E9E9E",
"Q+	c #B2B2B5",
"R+	c #656569",
"S+	c #6D6D6F",
"T+	c #979798",
"U+	c #9C9C9C",
"V+	c #B1B1B3",
"W+	c #CACAD0",
"X+	c #CECED4",
"Y+	c #CACBD2",
"Z+	c #B3B3B6",
"`+	c #A0A0A2",
" @	c #B3B3B5",
".@	c #B0B0B1",
"+@	c #BDBDC4",
"@@	c #808085",
"#@	c #C0C0C6",
"$@	c #C0C0C5",
"%@	c #C0C0C7",
"&@	c #BABABD",
"*@	c #BBBBBE",
"=@	c #B8B8BD",
"-@	c #B9B9BF",
";@	c #B8B8BC",
">@	c #9E9EA0",
",@	c #464648",
"'@	c #AEAEB2",
")@	c #A9A9AC",
"!@	c #B2B2B4",
"~@	c #A3A3A4",
"{@	c #B9B9BE",
"]@	c #A9A9AA",
"^@	c #A3A3A3",
"/@	c #444445",
"(@	c #5D5D5F",
"_@	c #909091",
":@	c #BABABF",
"<@	c #B0B0B5",
"[@	c #B5B5BA",
"}@	c #B8B8BE",
"|@	c #BABAC1",
"1@	c #A6A6A9",
"2@	c #939394",
"3@	c #B9B9BD",
"4@	c #ACACB0",
"5@	c #787878",
"6@	c #B1B1B2",
"7@	c #BABAC0",
"8@	c #9F9FA0",
"9@	c #AAAAAD",
"0@	c #48484A",
"a@	c #6B6B6C",
"b@	c #A8A8A9",
"c@	c #B6B6BA",
"d@	c #BEBEC5",
"e@	c #AEAEAE",
"f@	c #B9B9BA",
"g@	c #C4C4CA",
"h@	c #AFAFB1",
"i@	c #6F6F71",
"j@	c #ACACB2",
"k@	c #B5B5B6",
"l@	c #C6C6CE",
"m@	c #BFBFC0",
"n@	c #BABABA",
"o@	c #A7A7AB",
"p@	c #BEBEC1",
"q@	c #C5C5CA",
"r@	c #B2B2B6",
"s@	c #828286",
"t@	c #C2C2C8",
"u@	c #B6B6B9",
"v@	c #C1C1C6",
"w@	c #C6C6CC",
"x@	c #C4C4CB",
"y@	c #ACACAE",
"z@	c #919191",
"A@	c #7E7E80",
"B@	c #B4B4B8",
"C@	c #B3B3B8",
"D@	c #9C9C9D",
"E@	c #A0A0A1",
"F@	c #B1B1B4",
"G@	c #9D9D9E",
"H@	c #A2A2A3",
"I@	c #B4B4B6",
"J@	c #C0C0C4",
"K@	c #BEBEC3",
"L@	c #AEAEB0",
"M@	c #BFBFC5",
"N@	c #C1C1C8",
"O@	c #BCBCC2",
"P@	c #545456",
"Q@	c #8A8A8B",
"R@	c #AAAAAF",
"S@	c #B1B1B5",
"T@	c #77777B",
"                                                                                                    ",
"                                                                                                    ",
"                                                                                                    ",
"                                                                                                    ",
"                                                          .                                         ",
"                                                    + @ # $ %                                       ",
"                                              & * + = - ; ; > , '                                   ",
"                                          ) & * @ # ; % > ' ! ! ~ {                                 ",
"                                      ) * ] * @ ^ % % $ / ( _ ' : < [ }                             ",
"                                  | ) ] * * 1 % . 2 _ $ $ / _ / 3 4 5 2 / 6                         ",
"                              7 & ) * 8 9 3 0 a > ! ( ! ; a > % b c d ' . ' e                       ",
"                          f g ) & * h ; i [ j > $ ' k , > ' ( 2 l m n / o p p a q                   ",
"                      & g ] * & r k , ' k ( 0 / . ^ ' : / ! s t u v ' . % / ' w > a                 ",
"                    x x & y z A B C s D E ( . > . > F , ( i G b H ' I ' $ a % . _ % %               ",
"                  ) g J 6 d K L M N O P D : _ % > / Q D R S T . U U V _ % . . 6 ^ o W               ",
"                & @ X j w Y K Z `  ...+.U w ' ' / ^ > b R E ( / : H H ( ^ 0 H $ . > I               ",
"              @.j #.> % . : $.%.&.*.=.*.t -.Y b ;.H Q >.t ,.U , . ! w 0 % ( ! > $ w /               ",
"            . > #.#.> . % > ' '.).!.Q S b R ~.{. .].d ^./.;.H : / : . 0 / Q 0 . o j e               ",
"            d . ^ > $ (.k , k ' k U k ( Q (.k t _.:.S <.d D V . : ( ! : [.: _ / [ 4 }.|.            ",
"            R ' . o 1 2 S 1.D ' ! H (.' , Q H -.2.2.<.c D D k 0 ,.D ,.: ( ~ ).3.4.G ( !.            ",
"            $.[.T 5.6.(.7.8.%.Y w V V w ;.H U 3.9.0.3.c V Q w _ ;.;.;., / 3.a.7.c u / !.            ",
"            k S (.q 1 ~ <.%.c S _ , Q ! D D H ! k ( k b.G _ 0 / ,.U ! . ' t |.<.c.!.j U             ",
"            / [ G 4 ! d.!.3.4 ~.' 0 0 ! /.;.Q ! Q ! : 0.~.(.: , k , / w ! H c.t e.S . w             ",
"            > $ f.!.S g.I u T 3.!._ ' '.h.U '.i.: V H j.M [.( ( H w w b ;.b t ~.e.i.^ n             ",
"            o 1 k.l.u m.q n.> n o.V b o.A A p.q.b H P B r./.! V s ( ( s.>.3.-.-.t 3 . V             ",
"            $ #.> ; $ t.n.1 % : s.8.u.8.b.v.p.w.h.: ;.x.y.x.z.A.B.C.D.E.D.F.G.H.I.J.K.L.M.          ",
"            c.3.!.T ( ! q 1 n.o p ! : ( Y N. .O.P./.Q.R.x.S.T.U.V.W.X.S.Y.Z.`. +.+++@+#+            ",
"            k : '.-.].j.6 a > ' ' _ ' , U $++.2.%+&+*+w.=+-+;+>+,+`.'+.+)+!+++Z.B.~+{+]+            ",
"            H k 2 *.o.^+F / Q ( k U , V :.:.Y $+ .x.:.+./+(+_+:+<+Z.[+}+|+1+#+2+3+4+5+6+            ",
"            /.P w g.>.t ~./.;.( C $+E E r.x.k j.x.7+/.[+8+9+@+0+[+a+b+c+d+e+f+g+h+i+2+j+            ",
"            k+-.w 2 7.g.$.u.;.Q l+N.2.m+7+7+/.n+x.o+r.p+q+q+r+s+t+B.u+v+w+x+y+z+t+A+z+!+            ",
"            *.+./ ^ T . v B+-.b -.i.s.R.C+x.;.s n+h.D+z+E+F+G+H+I+J+K+L+M+N+O+P+U.O+N+Q+            ",
"            {.1.Q ( ' % % !.R+{.[.! U A S+O.2.B $+T+P+U+V+W+X+Y+Z+`+P+t+'+0+D+~+ @.@+@              ",
"              C H D Y (.. T R %.( w , -.w.S+w.v.@@#@$@/+%@&@*@j+D+S.S.S.z+S.L+=@-@;@>@              ",
"              ,@' k D U : I ' ( V : V d A x.m+ .'@E+w+)@!@F+0+U+;+:+w+*@~@i++@{@]@^@ +              ",
"                /@- w (@>.0 / H B ,.,.D :.:.j._@!+U+~+`.r+W.:@<@[@{@u+}@|@1@2@Z.L+3@4@              ",
"                  /@% - F V '.N.O././.E /.O 5@~+.+z+6@#@7@`+X.B.++~+P+X.8@~+ +Q+9@'+D+              ",
"                      n.0@> p 3 _.P.r.o+B a@b@t+z+c@d@h+}+b+'+s+E+e@t+++p+f@g@h@P+-+.+              ",
"                        % > 2 2 ~ Q.C+S+i@j@2+T.k@l@U+.+}+'+U.m@n@2+)@o@p@q@r@[+B.                  ",
"                            0@T W / F [ s@t@4+u@v@:+}+`.++e@d+w@x@r@L+8@y@T.z@!+                    ",
"                                F (.> ! ! A@y@B@v+s+[+S.j+v+C@Z+D@P+P+[+b+.+                        ",
"                                    i (.j ! :.z@^@'+E@!@F@G@H@G@'+P+x+.+b+                          ",
"                                        i 3 , T >@,+c@P+t+Z.P+I@J@K@:@                              ",
"                                            i ( 2 :.D+z@t+8@L@M@N@O@                                ",
"                                                [ P@F Q@Z+=@R@S@                                    ",
"                                                      (.T@L+                                        ",
"                                                                                                    ",
"                                                                                                    ",
"                                                                                                    ",
"                                                                                                    "};
