/* XPM */
static char * field_empty_xpm[] = {
"50 50 16 1",
" 	c None",
".	c #000000",
"+	c #0A0A0A",
"@	c #2B2B2B",
"#	c #535353",
"$	c #6E6E6E",
"%	c #898988",
"&	c #898886",
"*	c #242424",
"=	c #060606",
"-	c #383838",
";	c #878686",
">	c #888786",
",	c #888888",
"'	c #888787",
")	c #E5C090",
"                    ..........                    ",
"                ..................                ",
"              ......................              ",
"            ..........................            ",
"           ............................           ",
"         ................................         ",
"        ..................................        ",
"       ....................................       ",
"      ......................................      ",
"     ........................................     ",
"     ........................................     ",
"    ..........................................    ",
"   ............................................   ",
"   ............................................   ",
"  ..............................................  ",
"  ..................+@#$%&$#@+..................  ",
" ..................*$        $*.................. ",
" ................=-            -=................ ",
" ................-              -................ ",
" ...............*                *............... ",
"...............+$                $+...............",
"...............@                  @...............",
"...............#                  #...............",
"...............$                  $...............",
"...............;                  >...............",
"...............,                  '...............",
"...............$                  $...............",
"...............#                  #...............",
"...............@  )               @...............",
"...............+$                $+...............",
" ...............*                *............... ",
" ................-              -................ ",
" ................=-            -=................ ",
" ..................*$        $*.................. ",
"  ..................+@#$''$#@+..................  ",
"  ..............................................  ",
"   ............................................   ",
"   ............................................   ",
"    ..........................................    ",
"     ........................................     ",
"     ........................................     ",
"      ......................................      ",
"       ....................................       ",
"        ..................................        ",
"         ................................         ",
"           ............................           ",
"            ..........................            ",
"              ......................              ",
"                ..................                ",
"                    ..........                    "};
