/* XPM */
static const char * icon_xpm[] = {
"32 32 106 2",
"  	c None",
". 	c #D9D9D9",
"+ 	c #A1A1A1",
"@ 	c #838383",
"# 	c #D7D7D7",
"$ 	c #DADADA",
"% 	c #A3A3A3",
"& 	c #878787",
"* 	c #A5A5A5",
"= 	c #DDDDDD",
"- 	c #CBCBCB",
"; 	c #6B6B6B",
"> 	c #242424",
", 	c #060606",
"' 	c #6A6A6A",
") 	c #CACACA",
"! 	c #CCCCCC",
"~ 	c #070707",
"{ 	c #252525",
"] 	c #6D6D6D",
"^ 	c #CFCFCF",
"/ 	c #170D0F",
"( 	c #39020E",
"_ 	c #6C031A",
": 	c #D6D6D6",
"< 	c #D8D8D8",
"[ 	c #6C6C6C",
"} 	c #0E0E0E",
"| 	c #000000",
"1 	c #0F0F0F",
"2 	c #232323",
"3 	c #A50628",
"4 	c #E60838",
"5 	c #A4A4A4",
"6 	c #F4093C",
"7 	c #858585",
"8 	c #868686",
"9 	c #A0A0A0",
"0 	c #180E10",
"a 	c #DCDCDC",
"b 	c #DBDBDB",
"c 	c #9F9F9F",
"d 	c #D5D5D5",
"e 	c #B4B4B4",
"f 	c #8D8D8D",
"g 	c #696969",
"h 	c #C6C6C6",
"i 	c #8C8C8C",
"j 	c #353535",
"k 	c #040404",
"l 	c #17181C",
"m 	c #333648",
"n 	c #4C516C",
"o 	c #40445B",
"p 	c #161820",
"q 	c #101011",
"r 	c #9E9E9E",
"s 	c #1A1A1A",
"t 	c #010101",
"u 	c #3B3F54",
"v 	c #8088B5",
"w 	c #9DA7DE",
"x 	c #919ACD",
"y 	c #575D7B",
"z 	c #0E0F14",
"A 	c #3F3F3F",
"B 	c #818181",
"C 	c #7178A0",
"D 	c #A1ABE4",
"E 	c #1B1D27",
"F 	c #D0D0D0",
"G 	c #828282",
"H 	c #9D9D9D",
"I 	c #D4D4D4",
"J 	c #C7C7C7",
"K 	c #C9C9C9",
"L 	c #ADADAD",
"M 	c #888888",
"N 	c #7E7E7E",
"O 	c #939393",
"P 	c #C2C2C2",
"Q 	c #707070",
"R 	c #E4E4E4",
"S 	c #333333",
"T 	c #0D0D0D",
"U 	c #030303",
"V 	c #191919",
"W 	c #4E4E4E",
"X 	c #ACACAC",
"Y 	c #3E3E3E",
"Z 	c #B2B2B2",
"` 	c #999999",
" .	c #3D3D3D",
"..	c #C3C3C3",
"+.	c #4F4F4F",
"@.	c #515151",
"#.	c #969696",
"$.	c #808080",
"%.	c #8B8B8B",
"&.	c #6E6E6E",
"*.	c #B1B1B1",
"=.	c #343434",
"-.	c #9B9B9B",
";.	c #8A8A8A",
">.	c #AFAFAF",
",.	c #9C9C9C",
"                                                                ",
"              . + @ @ + #                 $ % & & * =           ",
"            - ; > , , > ' )             ! ; > ~ ~ { ] ^         ",
"          # ' / ( _ _ ( / ' :         < [ } | | | | 1 ] =       ",
"          + 2 ( 3 4 4 3 ( > +         5 { | | | | | | { *       ",
"          @ , _ 4 6 6 4 _ , 7         & ~ | | | | | | ~ &       ",
"          @ , _ 4 6 6 4 _ ~ 8         & ~ | | | | | | ~ &       ",
"          9 > ( 3 4 4 3 ( { *         * { | | | | | | { *       ",
"          : ' / ( _ _ ( 0 ] a         = ] 1 | | | | 1 ] =       ",
"            ) ] { ~ ~ { ] ^             ^ ] > , , { ] ^         ",
"              = * & & * =                 b % 7 7 * =           ",
". + @ @ c d                 = * & & * a                   e f @ ",
"' > , , 2 g h             ^ ] { ~ , > ' )               i j } k ",
"} | | | | } g .         a [ l m n o p q ' .           r s t t t ",
"| | | | | | 2 c         * 2 u v w x y z 2 9         a A t t t t ",
"| | | | | | , B         7 , C w D D x E , @         F } t t t t ",
"| | | | | | , B         G , C w D D x E , @         F } t t t t ",
"| | | | | | 2 r         H 2 u v w x y z > +         a A t t t t ",
"} | | | | } g I         I g l m n o p q ' #           r s t t t ",
"' > , , 2 g J             J g 2 , , 2 ' K               i j } k ",
"# + @ G c d                 d c G G c :                   e f @ ",
"                L M N O P                 h Q A A Q )           ",
"            R & S T U V W X             L Y 1 U U 1 A Z         ",
"            ` V | | | | ,  ...        h +., | | | | ~ @.)       ",
"          d  .| | | | | | 1 ]         #.V | | | | | t s `       ",
"          ) T | | | | | | U Y         $.U | | | | | t k @       ",
"          ! T | | | | | | U Y         %.T | | | | | t } f       ",
"          < Y | | | | | | 1 &.        *.=.| | | | t t j e       ",
"            -.V | | | | , Y h           ;.V | | t t s i         ",
"              ;.=.T U V +.>.              ,.Y T } A r           ",
"                *.%.B #.h                   a F F a             ",
"                                                                "};
